<?xml version="1.0" encoding="utf-8" ?>
<svg baseProfile="full" height="1021.9127600000002" version="1.1" width="943" xmlns="http://www.w3.org/2000/svg" xmlns:ev="http://www.w3.org/2001/xml-events" xmlns:xlink="http://www.w3.org/1999/xlink"><defs><marker id="arrow" markerHeight="3.5" markerWidth="5" orient="auto" refX="5.0" refY="1.7"><polygon points="0,0 5,1.75 0,3.5" /></marker></defs><g style="fill:white;"><g transform="matrix(1.0, 0.0, 0.0, 1.0, 471.5, 510.5232743589745)"><g transform="matrix(47.5786839423203, 0.0, 0.0, 47.5786839423203, 0.0, 0.0)"><g><g transform="matrix(1.0, 0.0, 0.0, 1.0, -0.0, -0.0)"><g><g style="fill: #ffffff;stroke: black;stroke-width: 1.5;" transform="matrix(1.0, 0.0, 0.0, 1.0, 0.0, 0.0)"><rect height="20.438255200000004" style="vector-effect: non-scaling-stroke;" width="18.876" x="-9.438" y="-10.219127600000002" /></g><g transform="matrix(1.0, 0.0, 0.0, 1.0, -0.0, -9.394127600000003)"><g><g><g><g><g><g><g style="stroke: black;stroke-width: 1.5;" transform="matrix(1.0, 0.0, 0.0, 1.0, 0.0, 0.0)"><g /></g><g transform="matrix(1.0, 0.0, 0.0, 1.0, 0.0, 0.75)"><g style="stroke: black;stroke-width: 1.5;" transform="matrix(1.0, 0.0, 0.0, 1.0, 0.0, 0.0)"><text style="text-align:center; text-anchor:middle; dominant-baseline:middle;font-family:sans-serif; font-weight: bold;font-size:1px;vector-effect: non-scaling-stroke;" transform="translate(-5e-05, 0)">Matmul (Simple)</text></g></g></g><g transform="matrix(1.0, 0.0, 0.0, 1.0, 0.0, 1.2501)"><g style="stroke: black;stroke-width: 1.5;" transform="matrix(1.0, 0.0, 0.0, 1.0, 0.0, 0.0)"><g /></g></g></g><g transform="matrix(1.0, 0.0, 0.0, 1.0, 0.0, 3.3501000000000003)"><g transform="matrix(1.0, 0.0, 0.0, 1.0, -1.1, -1.1)"><g><g><g><g><g><g><g><g><g><g /><g transform="matrix(1.0, 0.0, 0.0, 1.0, 0.0, 0.0)"><g><g style="fill: #ff0000;stroke: black;stroke-width: 1.5;fill-opacity: 0.7;" transform="matrix(1.0, 0.0, 0.0, 1.0, 0.0, 0.0)"><circle cx="0.0" cy="0.0" r="0.5" style="vector-effect: non-scaling-stroke" /></g><g style="stroke: black;stroke-width: 1.5;" transform="matrix(0.0008333333333333334, 0.0, 0.0, 0.0008333333333333334, 0.0, 0.0)"><image transform="translate(-600.0, -600.0)" xlink:href="https://raw.githubusercontent.com/minitorch/diagrams/main/robot.png" /></g></g></g></g><g transform="matrix(1.0, 0.0, 0.0, 1.0, 1.1, 0.0)"><g><g style="fill: #ff7100;stroke: black;stroke-width: 1.5;fill-opacity: 0.7;" transform="matrix(1.0, 0.0, 0.0, 1.0, 0.0, 0.0)"><circle cx="0.0" cy="0.0" r="0.5" style="vector-effect: non-scaling-stroke" /></g><g style="stroke: black;stroke-width: 1.5;" transform="matrix(0.0008333333333333334, 0.0, 0.0, 0.0008333333333333334, 0.0, 0.0)"><image transform="translate(-600.0, -600.0)" xlink:href="https://raw.githubusercontent.com/minitorch/diagrams/main/robot.png" /></g></g></g></g><g transform="matrix(1.0, 0.0, 0.0, 1.0, 2.2, 0.0)"><g><g style="fill: #ffe300;stroke: black;stroke-width: 1.5;fill-opacity: 0.7;" transform="matrix(1.0, 0.0, 0.0, 1.0, 0.0, 0.0)"><circle cx="0.0" cy="0.0" r="0.5" style="vector-effect: non-scaling-stroke" /></g><g style="stroke: black;stroke-width: 1.5;" transform="matrix(0.0008333333333333334, 0.0, 0.0, 0.0008333333333333334, 0.0, 0.0)"><image transform="translate(-600.0, -600.0)" xlink:href="https://raw.githubusercontent.com/minitorch/diagrams/main/robot.png" /></g></g></g></g><g transform="matrix(1.0, 0.0, 0.0, 1.0, 0.0, 1.1)"><g><g style="fill: #aaff00;stroke: black;stroke-width: 1.5;fill-opacity: 0.7;" transform="matrix(1.0, 0.0, 0.0, 1.0, 0.0, 0.0)"><circle cx="0.0" cy="0.0" r="0.5" style="vector-effect: non-scaling-stroke" /></g><g style="stroke: black;stroke-width: 1.5;" transform="matrix(0.0008333333333333334, 0.0, 0.0, 0.0008333333333333334, 0.0, 0.0)"><image transform="translate(-600.0, -600.0)" xlink:href="https://raw.githubusercontent.com/minitorch/diagrams/main/robot.png" /></g></g></g></g><g transform="matrix(1.0, 0.0, 0.0, 1.0, 1.1, 1.1)"><g><g style="fill: #39ff00;stroke: black;stroke-width: 1.5;fill-opacity: 0.7;" transform="matrix(1.0, 0.0, 0.0, 1.0, 0.0, 0.0)"><circle cx="0.0" cy="0.0" r="0.5" style="vector-effect: non-scaling-stroke" /></g><g style="stroke: black;stroke-width: 1.5;" transform="matrix(0.0008333333333333334, 0.0, 0.0, 0.0008333333333333334, 0.0, 0.0)"><image transform="translate(-600.0, -600.0)" xlink:href="https://raw.githubusercontent.com/minitorch/diagrams/main/robot.png" /></g></g></g></g><g transform="matrix(1.0, 0.0, 0.0, 1.0, 2.2, 1.1)"><g><g style="fill: #00ff39;stroke: black;stroke-width: 1.5;fill-opacity: 0.7;" transform="matrix(1.0, 0.0, 0.0, 1.0, 0.0, 0.0)"><circle cx="0.0" cy="0.0" r="0.5" style="vector-effect: non-scaling-stroke" /></g><g style="stroke: black;stroke-width: 1.5;" transform="matrix(0.0008333333333333334, 0.0, 0.0, 0.0008333333333333334, 0.0, 0.0)"><image transform="translate(-600.0, -600.0)" xlink:href="https://raw.githubusercontent.com/minitorch/diagrams/main/robot.png" /></g></g></g></g><g transform="matrix(1.0, 0.0, 0.0, 1.0, 0.0, 2.2)"><g><g style="fill: #00ffaa;stroke: black;stroke-width: 1.5;fill-opacity: 0.7;" transform="matrix(1.0, 0.0, 0.0, 1.0, 0.0, 0.0)"><circle cx="0.0" cy="0.0" r="0.5" style="vector-effect: non-scaling-stroke" /></g><g style="stroke: black;stroke-width: 1.5;" transform="matrix(0.0008333333333333334, 0.0, 0.0, 0.0008333333333333334, 0.0, 0.0)"><image transform="translate(-600.0, -600.0)" xlink:href="https://raw.githubusercontent.com/minitorch/diagrams/main/robot.png" /></g></g></g></g><g transform="matrix(1.0, 0.0, 0.0, 1.0, 1.1, 2.2)"><g><g style="fill: #00e3ff;stroke: black;stroke-width: 1.5;fill-opacity: 0.7;" transform="matrix(1.0, 0.0, 0.0, 1.0, 0.0, 0.0)"><circle cx="0.0" cy="0.0" r="0.5" style="vector-effect: non-scaling-stroke" /></g><g style="stroke: black;stroke-width: 1.5;" transform="matrix(0.0008333333333333334, 0.0, 0.0, 0.0008333333333333334, 0.0, 0.0)"><image transform="translate(-600.0, -600.0)" xlink:href="https://raw.githubusercontent.com/minitorch/diagrams/main/robot.png" /></g></g></g></g><g transform="matrix(1.0, 0.0, 0.0, 1.0, 2.2, 2.2)"><g><g style="fill: #0071ff;stroke: black;stroke-width: 1.5;fill-opacity: 0.7;" transform="matrix(1.0, 0.0, 0.0, 1.0, 0.0, 0.0)"><circle cx="0.0" cy="0.0" r="0.5" style="vector-effect: non-scaling-stroke" /></g><g style="stroke: black;stroke-width: 1.5;" transform="matrix(0.0008333333333333334, 0.0, 0.0, 0.0008333333333333334, 0.0, 0.0)"><image transform="translate(-600.0, -600.0)" xlink:href="https://raw.githubusercontent.com/minitorch/diagrams/main/robot.png" /></g></g></g></g></g></g></g><g transform="matrix(1.0, 0.0, 0.0, 1.0, 0.0, 5.450100000000001)"><g style="stroke: black;stroke-width: 1.5;" transform="matrix(1.0, 0.0, 0.0, 1.0, 0.0, 0.0)"><g /></g></g></g><g transform="matrix(1.0, 0.0, 0.0, 1.0, 0.0, 11.890166)"><g transform="matrix(1.0, 0.0, 0.0, 1.0, -0.0, -0.0)"><g><g /><g transform="matrix(1.0, 0.0, 0.0, 1.0, 0.0, 0.0)"><g><g><g><g transform="matrix(1.0, 0.0, 0.0, 1.0, -6.0, -0.0)"><g><g><g style="stroke: black;stroke-width: 1.5;" transform="matrix(1.0, 0.0, 0.0, 1.0, 0.0, 0.0)"><g /></g><g transform="matrix(1.0, 0.0, 0.0, 1.0, 6.0, 0.0)"><g transform="matrix(1.0, 0.0, 0.0, 1.0, -0.0, 0.5000499999999999)"><g><g transform="matrix(1.0, 0.0, 0.0, 1.0, -4.5, -0.0)"><g><g><g><g><g><g><g><g><g><g><g><g><g><g transform="matrix(1.0, 0.0, 0.0, 1.0, -0.0, -2.0)"><g><g><g><g transform="matrix(1.0, 0.0, 0.0, 1.0, -0.5, -0.5)"><g><g><g><g><g /><g><g style="stroke: black;stroke-width: 0.75;" transform="matrix(1.0, 0.0, 0.0, 1.0, 0.0, 0.0)"><rect height="1" style="vector-effect: non-scaling-stroke;" width="1" x="-0.5" y="-0.5" /></g></g></g><g><g style="stroke: black;stroke-width: 0.75;" transform="matrix(1.0, 0.0, 0.0, 1.0, 0.0, 1.0)"><rect height="1" style="vector-effect: non-scaling-stroke;" width="1" x="-0.5" y="-0.5" /></g></g></g><g><g style="stroke: black;stroke-width: 0.75;" transform="matrix(1.0, 0.0, 0.0, 1.0, 1.0, 0.0)"><rect height="1" style="vector-effect: non-scaling-stroke;" width="1" x="-0.5" y="-0.5" /></g></g></g><g><g style="stroke: black;stroke-width: 0.75;" transform="matrix(1.0, 0.0, 0.0, 1.0, 1.0, 1.0)"><rect height="1" style="vector-effect: non-scaling-stroke;" width="1" x="-0.5" y="-0.5" /></g></g></g></g><g transform="matrix(1.0, 0.0, 0.0, 1.0, -0.0, -1.25)"><g><g style="fill: #000000;stroke: black;stroke-width: 0.0;" transform="matrix(1.0, 0.0, 0.0, 1.0, 0.0, 0.0)"><text style="text-align:center; text-anchor:middle; dominant-baseline:middle;font-family:sans-serif; font-weight: bold;font-size:0.5px;vector-effect: non-scaling-stroke;" transform="translate(-5e-05, 0)">a</text></g><g style="stroke: black;stroke-width: 1.5;" transform="matrix(1.0, 0.0, 0.0, 1.0, 0.0, 0.0)"><g /></g></g></g></g><g transform="matrix(1.0, 0.0, 0.0, 1.0, 0.0, 2.0)"><g style="stroke: black;stroke-width: 1.5;" transform="matrix(0.0, -1.0, 1.0, 0.0, 0.0, 0.0)"><g /></g></g></g><g transform="matrix(1.0, 0.0, 0.0, 1.0, 0.0, 4.5)"><g><g transform="matrix(1.0, 0.0, 0.0, 1.0, -0.5, -0.5)"><g><g><g><g><g /><g><g style="stroke: black;stroke-width: 0.75;" transform="matrix(1.0, 0.0, 0.0, 1.0, 0.0, 0.0)"><rect height="1" style="vector-effect: non-scaling-stroke;" width="1" x="-0.5" y="-0.5" /></g></g></g><g><g style="stroke: black;stroke-width: 0.75;" transform="matrix(1.0, 0.0, 0.0, 1.0, 0.0, 1.0)"><rect height="1" style="vector-effect: non-scaling-stroke;" width="1" x="-0.5" y="-0.5" /></g></g></g><g><g style="stroke: black;stroke-width: 0.75;" transform="matrix(1.0, 0.0, 0.0, 1.0, 1.0, 0.0)"><rect height="1" style="vector-effect: non-scaling-stroke;" width="1" x="-0.5" y="-0.5" /></g></g></g><g><g style="stroke: black;stroke-width: 0.75;" transform="matrix(1.0, 0.0, 0.0, 1.0, 1.0, 1.0)"><rect height="1" style="vector-effect: non-scaling-stroke;" width="1" x="-0.5" y="-0.5" /></g></g></g></g><g transform="matrix(1.0, 0.0, 0.0, 1.0, -0.0, -1.25)"><g><g style="fill: #000000;stroke: black;stroke-width: 0.0;" transform="matrix(1.0, 0.0, 0.0, 1.0, 0.0, 0.0)"><text style="text-align:center; text-anchor:middle; dominant-baseline:middle;font-family:sans-serif; font-weight: bold;font-size:0.5px;vector-effect: non-scaling-stroke;" transform="translate(-5e-05, 0)">b</text></g><g style="stroke: black;stroke-width: 1.5;" transform="matrix(1.0, 0.0, 0.0, 1.0, 0.0, 0.0)"><g /></g></g></g></g></g></g></g><g transform="matrix(1.0, 0.0, 0.0, 1.0, 2.0, 0.0)"><g style="stroke: black;stroke-width: 1.5;" transform="matrix(1.0, 0.0, 0.0, 1.0, 0.0, 0.0)"><g /></g></g></g><g transform="matrix(1.0, 0.0, 0.0, 1.0, 4.5, 0.0)"><g transform="matrix(1.0, 0.0, 0.0, 1.0, -0.0, -2.0)"><g><g><g><g transform="matrix(1.0, 0.0, 0.0, 1.0, -1.0, -1.0)"><g><g><g><g><g><g><g><g><g><g /><g><g style="stroke: black;stroke-width: 0.75;" transform="matrix(1.0, 0.0, 0.0, 1.0, 0.0, 0.0)"><rect height="1" style="vector-effect: non-scaling-stroke;" width="1" x="-0.5" y="-0.5" /></g></g></g><g><g style="stroke: black;stroke-width: 0.75;" transform="matrix(1.0, 0.0, 0.0, 1.0, 0.0, 1.0)"><rect height="1" style="vector-effect: non-scaling-stroke;" width="1" x="-0.5" y="-0.5" /></g></g></g><g><g style="stroke: black;stroke-width: 0.75;" transform="matrix(1.0, 0.0, 0.0, 1.0, 0.0, 2.0)"><rect height="1" style="vector-effect: non-scaling-stroke;" width="1" x="-0.5" y="-0.5" /></g></g></g><g><g style="stroke: black;stroke-width: 0.75;" transform="matrix(1.0, 0.0, 0.0, 1.0, 1.0, 0.0)"><rect height="1" style="vector-effect: non-scaling-stroke;" width="1" x="-0.5" y="-0.5" /></g></g></g><g><g style="stroke: black;stroke-width: 0.75;" transform="matrix(1.0, 0.0, 0.0, 1.0, 1.0, 1.0)"><rect height="1" style="vector-effect: non-scaling-stroke;" width="1" x="-0.5" y="-0.5" /></g></g></g><g><g style="stroke: black;stroke-width: 0.75;" transform="matrix(1.0, 0.0, 0.0, 1.0, 1.0, 2.0)"><rect height="1" style="vector-effect: non-scaling-stroke;" width="1" x="-0.5" y="-0.5" /></g></g></g><g><g style="stroke: black;stroke-width: 0.75;" transform="matrix(1.0, 0.0, 0.0, 1.0, 2.0, 0.0)"><rect height="1" style="vector-effect: non-scaling-stroke;" width="1" x="-0.5" y="-0.5" /></g></g></g><g><g style="stroke: black;stroke-width: 0.75;" transform="matrix(1.0, 0.0, 0.0, 1.0, 2.0, 1.0)"><rect height="1" style="vector-effect: non-scaling-stroke;" width="1" x="-0.5" y="-0.5" /></g></g></g><g><g style="stroke: black;stroke-width: 0.75;" transform="matrix(1.0, 0.0, 0.0, 1.0, 2.0, 2.0)"><rect height="1" style="vector-effect: non-scaling-stroke;" width="1" x="-0.5" y="-0.5" /></g></g></g></g><g transform="matrix(1.0, 0.0, 0.0, 1.0, -0.0, -1.75)"><g><g style="fill: #000000;stroke: black;stroke-width: 0.0;" transform="matrix(1.0, 0.0, 0.0, 1.0, 0.0, 0.0)"><text style="text-align:center; text-anchor:middle; dominant-baseline:middle;font-family:sans-serif; font-weight: bold;font-size:0.5px;vector-effect: non-scaling-stroke;" transform="translate(-5e-05, 0)">S0'</text></g><g style="stroke: black;stroke-width: 1.5;" transform="matrix(1.0, 0.0, 0.0, 1.0, 0.0, 0.0)"><g /></g></g></g></g><g transform="matrix(1.0, 0.0, 0.0, 1.0, 0.0, 2.0)"><g style="stroke: black;stroke-width: 1.5;" transform="matrix(0.0, -1.0, 1.0, 0.0, 0.0, 0.0)"><g /></g></g></g><g transform="matrix(1.0, 0.0, 0.0, 1.0, 0.0, 4.5)"><g><g transform="matrix(1.0, 0.0, 0.0, 1.0, -1.0, -1.0)"><g><g><g><g><g><g><g><g><g><g /><g><g style="stroke: black;stroke-width: 0.75;" transform="matrix(1.0, 0.0, 0.0, 1.0, 0.0, 0.0)"><rect height="1" style="vector-effect: non-scaling-stroke;" width="1" x="-0.5" y="-0.5" /></g></g></g><g><g style="stroke: black;stroke-width: 0.75;" transform="matrix(1.0, 0.0, 0.0, 1.0, 0.0, 1.0)"><rect height="1" style="vector-effect: non-scaling-stroke;" width="1" x="-0.5" y="-0.5" /></g></g></g><g><g style="stroke: black;stroke-width: 0.75;" transform="matrix(1.0, 0.0, 0.0, 1.0, 0.0, 2.0)"><rect height="1" style="vector-effect: non-scaling-stroke;" width="1" x="-0.5" y="-0.5" /></g></g></g><g><g style="stroke: black;stroke-width: 0.75;" transform="matrix(1.0, 0.0, 0.0, 1.0, 1.0, 0.0)"><rect height="1" style="vector-effect: non-scaling-stroke;" width="1" x="-0.5" y="-0.5" /></g></g></g><g><g style="stroke: black;stroke-width: 0.75;" transform="matrix(1.0, 0.0, 0.0, 1.0, 1.0, 1.0)"><rect height="1" style="vector-effect: non-scaling-stroke;" width="1" x="-0.5" y="-0.5" /></g></g></g><g><g style="stroke: black;stroke-width: 0.75;" transform="matrix(1.0, 0.0, 0.0, 1.0, 1.0, 2.0)"><rect height="1" style="vector-effect: non-scaling-stroke;" width="1" x="-0.5" y="-0.5" /></g></g></g><g><g style="stroke: black;stroke-width: 0.75;" transform="matrix(1.0, 0.0, 0.0, 1.0, 2.0, 0.0)"><rect height="1" style="vector-effect: non-scaling-stroke;" width="1" x="-0.5" y="-0.5" /></g></g></g><g><g style="stroke: black;stroke-width: 0.75;" transform="matrix(1.0, 0.0, 0.0, 1.0, 2.0, 1.0)"><rect height="1" style="vector-effect: non-scaling-stroke;" width="1" x="-0.5" y="-0.5" /></g></g></g><g><g style="stroke: black;stroke-width: 0.75;" transform="matrix(1.0, 0.0, 0.0, 1.0, 2.0, 2.0)"><rect height="1" style="vector-effect: non-scaling-stroke;" width="1" x="-0.5" y="-0.5" /></g></g></g></g><g transform="matrix(1.0, 0.0, 0.0, 1.0, -0.0, -1.75)"><g><g style="fill: #000000;stroke: black;stroke-width: 0.0;" transform="matrix(1.0, 0.0, 0.0, 1.0, 0.0, 0.0)"><text style="text-align:center; text-anchor:middle; dominant-baseline:middle;font-family:sans-serif; font-weight: bold;font-size:0.5px;vector-effect: non-scaling-stroke;" transform="translate(-5e-05, 0)">S1'</text></g><g style="stroke: black;stroke-width: 1.5;" transform="matrix(1.0, 0.0, 0.0, 1.0, 0.0, 0.0)"><g /></g></g></g></g></g></g></g></g></g><g transform="matrix(1.0, 0.0, 0.0, 1.0, 7.0, 0.0)"><g style="stroke: black;stroke-width: 1.5;" transform="matrix(1.0, 0.0, 0.0, 1.0, 0.0, 0.0)"><g /></g></g></g><g transform="matrix(1.0, 0.0, 0.0, 1.0, 9.0, 0.0)"><g transform="matrix(1.0, 0.0, 0.0, 1.0, -0.0, 0.25)"><g><g transform="matrix(1.0, 0.0, 0.0, 1.0, -0.5, -0.5)"><g><g><g><g><g /><g><g style="stroke: black;stroke-width: 0.75;" transform="matrix(1.0, 0.0, 0.0, 1.0, 0.0, 0.0)"><rect height="1" style="vector-effect: non-scaling-stroke;" width="1" x="-0.5" y="-0.5" /></g></g></g><g><g style="stroke: black;stroke-width: 0.75;" transform="matrix(1.0, 0.0, 0.0, 1.0, 0.0, 1.0)"><rect height="1" style="vector-effect: non-scaling-stroke;" width="1" x="-0.5" y="-0.5" /></g></g></g><g><g style="stroke: black;stroke-width: 0.75;" transform="matrix(1.0, 0.0, 0.0, 1.0, 1.0, 0.0)"><rect height="1" style="vector-effect: non-scaling-stroke;" width="1" x="-0.5" y="-0.5" /></g></g></g><g><g style="stroke: black;stroke-width: 0.75;" transform="matrix(1.0, 0.0, 0.0, 1.0, 1.0, 1.0)"><rect height="1" style="vector-effect: non-scaling-stroke;" width="1" x="-0.5" y="-0.5" /></g></g></g></g><g transform="matrix(1.0, 0.0, 0.0, 1.0, -0.0, -1.25)"><g><g style="fill: #000000;stroke: black;stroke-width: 0.0;" transform="matrix(1.0, 0.0, 0.0, 1.0, 0.0, 0.0)"><text style="text-align:center; text-anchor:middle; dominant-baseline:middle;font-family:sans-serif; font-weight: bold;font-size:0.5px;vector-effect: non-scaling-stroke;" transform="translate(-5e-05, 0)">out</text></g><g style="stroke: black;stroke-width: 1.5;" transform="matrix(1.0, 0.0, 0.0, 1.0, 0.0, 0.0)"><g /></g></g></g></g></g></g></g><g><g><g><g><g><g /><g /></g><g /></g><g><g /><g><g><g><g /><g style="stroke: #ff0000;stroke-width: 0.6;" transform="matrix(-0.9983641693988463, 0.0571750405382603, -0.0571750405382603, -0.9983641693988463, 3.0, -3.0)"><polyline points="0.0,0.0 3.7895323663422578,0.0" style="vector-effect: non-scaling-stroke;" /></g></g><g><g /><g transform="matrix(1.0, 0.0, 0.0, 1.0, 3.5, -3.0)"><g style="stroke: #ff0000;stroke-width: 2.25;fill-opacity: 0;" transform="matrix(1.0, 0.0, 0.0, 1.0, 0.0, 0.0)"><rect height="0.95" style="vector-effect: non-scaling-stroke;" width="0.95" x="-0.475" y="-0.475" /></g></g></g></g><g><g /><g transform="matrix(1.0, 0.0, 0.0, 1.0, -0.7833333333333334, -2.783333333333333)"><g style="fill: #ff0000;stroke: black;stroke-width: 0.6;" transform="matrix(1.0, 0.0, 0.0, 1.0, 0.0, 0.0)"><circle cx="0.0" cy="0.0" r="0.1" style="vector-effect: non-scaling-stroke" /></g></g></g></g></g></g><g><g /><g><g><g><g /><g style="stroke: #ff0000;stroke-width: 0.6;" transform="matrix(-0.9983641693988463, 0.0571750405382603, -0.0571750405382603, -0.9983641693988463, 3.0, 1.5)"><polyline points="0.0,0.0 3.7895323663422578,0.0" style="vector-effect: non-scaling-stroke;" /></g></g><g><g /><g transform="matrix(1.0, 0.0, 0.0, 1.0, 3.5, 1.5)"><g style="stroke: #ff0000;stroke-width: 2.25;fill-opacity: 0;" transform="matrix(1.0, 0.0, 0.0, 1.0, 0.0, 0.0)"><rect height="0.95" style="vector-effect: non-scaling-stroke;" width="0.95" x="-0.475" y="-0.475" /></g></g></g></g><g><g /><g transform="matrix(1.0, 0.0, 0.0, 1.0, -0.7833333333333334, 1.7166666666666666)"><g style="fill: #ff0000;stroke: black;stroke-width: 0.6;" transform="matrix(1.0, 0.0, 0.0, 1.0, 0.0, 0.0)"><circle cx="0.0" cy="0.0" r="0.1" style="vector-effect: non-scaling-stroke" /></g></g></g></g></g></g><g><g><g><g><g /><g><g><g><g /><g style="stroke: #ff0000;stroke-width: 0.6;" transform="matrix(-0.8445085784496776, -0.5355420253583324, 0.5355420253583324, -0.8445085784496776, 8.0, -0.25)"><polyline points="0.0,0.0 5.664043510504566,0.0" style="vector-effect: non-scaling-stroke;" /></g></g><g><g /><g transform="matrix(1.0, 0.0, 0.0, 1.0, 8.5, -0.25)"><g style="stroke: #ff0000;stroke-width: 2.25;fill-opacity: 0;" transform="matrix(1.0, 0.0, 0.0, 1.0, 0.0, 0.0)"><rect height="0.95" style="vector-effect: non-scaling-stroke;" width="0.95" x="-0.475" y="-0.475" /></g></g></g></g><g><g /><g transform="matrix(1.0, 0.0, 0.0, 1.0, 3.216666666666667, -3.283333333333333)"><g style="fill: #ff0000;stroke: black;stroke-width: 0.6;" transform="matrix(1.0, 0.0, 0.0, 1.0, 0.0, 0.0)"><circle cx="0.0" cy="0.0" r="0.1" style="vector-effect: non-scaling-stroke" /></g></g></g></g></g><g><g><g><g /><g style="stroke: #ff0000;stroke-width: 0.6;" transform="matrix(-0.9560666575421054, 0.2931493584101228, -0.2931493584101228, -0.9560666575421054, 8.0, -0.25)"><polyline points="0.0,0.0 5.003137904244584,0.0" style="vector-effect: non-scaling-stroke;" /></g></g><g><g /><g transform="matrix(1.0, 0.0, 0.0, 1.0, 8.5, -0.25)"><g style="stroke: #ff0000;stroke-width: 2.25;fill-opacity: 0;" transform="matrix(1.0, 0.0, 0.0, 1.0, 0.0, 0.0)"><rect height="0.95" style="vector-effect: non-scaling-stroke;" width="0.95" x="-0.475" y="-0.475" /></g></g></g></g><g><g /><g transform="matrix(1.0, 0.0, 0.0, 1.0, 3.216666666666667, 1.2166666666666666)"><g style="fill: #ff0000;stroke: black;stroke-width: 0.6;" transform="matrix(1.0, 0.0, 0.0, 1.0, 0.0, 0.0)"><circle cx="0.0" cy="0.0" r="0.1" style="vector-effect: non-scaling-stroke" /></g></g></g></g></g><g><g><g><g /><g style="stroke: #ff0000;stroke-width: 0.6;" transform="matrix(-0.9203020580047482, -0.391208540336513, 0.391208540336513, -0.9203020580047482, 8.0, -0.25)"><polyline points="0.0,0.0 5.197568876140289,0.0" style="vector-effect: non-scaling-stroke;" /></g></g><g><g /><g transform="matrix(1.0, 0.0, 0.0, 1.0, 8.5, -0.25)"><g style="stroke: #ff0000;stroke-width: 2.25;fill-opacity: 0;" transform="matrix(1.0, 0.0, 0.0, 1.0, 0.0, 0.0)"><rect height="0.95" style="vector-effect: non-scaling-stroke;" width="0.95" x="-0.475" y="-0.475" /></g></g></g></g><g><g /><g transform="matrix(1.0, 0.0, 0.0, 1.0, 3.216666666666667, -2.283333333333333)"><g style="fill: #ff0000;stroke: black;stroke-width: 0.6;" transform="matrix(1.0, 0.0, 0.0, 1.0, 0.0, 0.0)"><circle cx="0.0" cy="0.0" r="0.1" style="vector-effect: non-scaling-stroke" /></g></g></g></g></g><g><g><g><g /><g style="stroke: #ff0000;stroke-width: 0.6;" transform="matrix(-0.9323895615033913, 0.36145498419514677, -0.36145498419514677, -0.9323895615033913, 8.0, -0.25)"><polyline points="0.0,0.0 4.057674484507379,0.0" style="vector-effect: non-scaling-stroke;" /></g></g><g><g /><g transform="matrix(1.0, 0.0, 0.0, 1.0, 8.5, -0.25)"><g style="stroke: #ff0000;stroke-width: 2.25;fill-opacity: 0;" transform="matrix(1.0, 0.0, 0.0, 1.0, 0.0, 0.0)"><rect height="0.95" style="vector-effect: non-scaling-stroke;" width="0.95" x="-0.475" y="-0.475" /></g></g></g></g><g><g /><g transform="matrix(1.0, 0.0, 0.0, 1.0, 4.216666666666667, 1.2166666666666666)"><g style="fill: #ff0000;stroke: black;stroke-width: 0.6;" transform="matrix(1.0, 0.0, 0.0, 1.0, 0.0, 0.0)"><circle cx="0.0" cy="0.0" r="0.1" style="vector-effect: non-scaling-stroke" /></g></g></g></g></g></g></g><g><g><g><g><g><g /><g /></g><g /></g><g><g /><g><g><g /><g><g /><g transform="matrix(1.0, 0.0, 0.0, 1.0, 4.5, -3.0)"><g style="stroke: #ff7100;stroke-width: 2.25;fill-opacity: 0;" transform="matrix(1.0, 0.0, 0.0, 1.0, 0.0, 0.0)"><rect height="0.95" style="vector-effect: non-scaling-stroke;" width="0.95" x="-0.475" y="-0.475" /></g></g></g></g><g><g /><g transform="matrix(1.0, 0.0, 0.0, 1.0, 0.5, -2.783333333333333)"><g style="fill: #ff7100;stroke: black;stroke-width: 0.6;" transform="matrix(1.0, 0.0, 0.0, 1.0, 0.0, 0.0)"><circle cx="0.0" cy="0.0" r="0.1" style="vector-effect: non-scaling-stroke" /></g></g></g></g></g></g><g><g /><g><g><g /><g><g /><g transform="matrix(1.0, 0.0, 0.0, 1.0, 4.5, 1.5)"><g style="stroke: #ff7100;stroke-width: 2.25;fill-opacity: 0;" transform="matrix(1.0, 0.0, 0.0, 1.0, 0.0, 0.0)"><rect height="0.95" style="vector-effect: non-scaling-stroke;" width="0.95" x="-0.475" y="-0.475" /></g></g></g></g><g><g /><g transform="matrix(1.0, 0.0, 0.0, 1.0, 0.5, 1.7166666666666666)"><g style="fill: #ff7100;stroke: black;stroke-width: 0.6;" transform="matrix(1.0, 0.0, 0.0, 1.0, 0.0, 0.0)"><circle cx="0.0" cy="0.0" r="0.1" style="vector-effect: non-scaling-stroke" /></g></g></g></g></g></g><g><g><g><g><g /><g><g><g /><g><g /><g transform="matrix(1.0, 0.0, 0.0, 1.0, 9.5, -0.25)"><g style="stroke: #ff7100;stroke-width: 2.25;fill-opacity: 0;" transform="matrix(1.0, 0.0, 0.0, 1.0, 0.0, 0.0)"><rect height="0.95" style="vector-effect: non-scaling-stroke;" width="0.95" x="-0.475" y="-0.475" /></g></g></g></g><g><g /><g transform="matrix(1.0, 0.0, 0.0, 1.0, 4.5, -3.283333333333333)"><g style="fill: #ff7100;stroke: black;stroke-width: 0.6;" transform="matrix(1.0, 0.0, 0.0, 1.0, 0.0, 0.0)"><circle cx="0.0" cy="0.0" r="0.1" style="vector-effect: non-scaling-stroke" /></g></g></g></g></g><g><g><g /><g><g /><g transform="matrix(1.0, 0.0, 0.0, 1.0, 9.5, -0.25)"><g style="stroke: #ff7100;stroke-width: 2.25;fill-opacity: 0;" transform="matrix(1.0, 0.0, 0.0, 1.0, 0.0, 0.0)"><rect height="0.95" style="vector-effect: non-scaling-stroke;" width="0.95" x="-0.475" y="-0.475" /></g></g></g></g><g><g /><g transform="matrix(1.0, 0.0, 0.0, 1.0, 3.5, 1.2166666666666666)"><g style="fill: #ff7100;stroke: black;stroke-width: 0.6;" transform="matrix(1.0, 0.0, 0.0, 1.0, 0.0, 0.0)"><circle cx="0.0" cy="0.0" r="0.1" style="vector-effect: non-scaling-stroke" /></g></g></g></g></g><g><g><g /><g><g /><g transform="matrix(1.0, 0.0, 0.0, 1.0, 9.5, -0.25)"><g style="stroke: #ff7100;stroke-width: 2.25;fill-opacity: 0;" transform="matrix(1.0, 0.0, 0.0, 1.0, 0.0, 0.0)"><rect height="0.95" style="vector-effect: non-scaling-stroke;" width="0.95" x="-0.475" y="-0.475" /></g></g></g></g><g><g /><g transform="matrix(1.0, 0.0, 0.0, 1.0, 4.5, -2.283333333333333)"><g style="fill: #ff7100;stroke: black;stroke-width: 0.6;" transform="matrix(1.0, 0.0, 0.0, 1.0, 0.0, 0.0)"><circle cx="0.0" cy="0.0" r="0.1" style="vector-effect: non-scaling-stroke" /></g></g></g></g></g><g><g><g /><g><g /><g transform="matrix(1.0, 0.0, 0.0, 1.0, 9.5, -0.25)"><g style="stroke: #ff7100;stroke-width: 2.25;fill-opacity: 0;" transform="matrix(1.0, 0.0, 0.0, 1.0, 0.0, 0.0)"><rect height="0.95" style="vector-effect: non-scaling-stroke;" width="0.95" x="-0.475" y="-0.475" /></g></g></g></g><g><g /><g transform="matrix(1.0, 0.0, 0.0, 1.0, 4.5, 1.2166666666666666)"><g style="fill: #ff7100;stroke: black;stroke-width: 0.6;" transform="matrix(1.0, 0.0, 0.0, 1.0, 0.0, 0.0)"><circle cx="0.0" cy="0.0" r="0.1" style="vector-effect: non-scaling-stroke" /></g></g></g></g></g></g></g><g><g><g><g><g><g /><g /></g><g /></g><g /></g><g /></g><g /></g></g><g><g><g><g><g><g /><g /></g><g /></g><g><g /><g><g><g /><g><g /><g transform="matrix(1.0, 0.0, 0.0, 1.0, 3.5, -2.0)"><g style="stroke: #aaff00;stroke-width: 2.25;fill-opacity: 0;" transform="matrix(1.0, 0.0, 0.0, 1.0, 0.0, 0.0)"><rect height="0.95" style="vector-effect: non-scaling-stroke;" width="0.95" x="-0.475" y="-0.475" /></g></g></g></g><g><g /><g transform="matrix(1.0, 0.0, 0.0, 1.0, -0.7833333333333334, -1.5)"><g style="fill: #aaff00;stroke: black;stroke-width: 0.6;" transform="matrix(1.0, 0.0, 0.0, 1.0, 0.0, 0.0)"><circle cx="0.0" cy="0.0" r="0.1" style="vector-effect: non-scaling-stroke" /></g></g></g></g></g></g><g><g /><g><g><g /><g><g /><g transform="matrix(1.0, 0.0, 0.0, 1.0, 3.5, 2.5)"><g style="stroke: #aaff00;stroke-width: 2.25;fill-opacity: 0;" transform="matrix(1.0, 0.0, 0.0, 1.0, 0.0, 0.0)"><rect height="0.95" style="vector-effect: non-scaling-stroke;" width="0.95" x="-0.475" y="-0.475" /></g></g></g></g><g><g /><g transform="matrix(1.0, 0.0, 0.0, 1.0, -0.7833333333333334, 3.0)"><g style="fill: #aaff00;stroke: black;stroke-width: 0.6;" transform="matrix(1.0, 0.0, 0.0, 1.0, 0.0, 0.0)"><circle cx="0.0" cy="0.0" r="0.1" style="vector-effect: non-scaling-stroke" /></g></g></g></g></g></g><g><g><g><g><g /><g><g><g /><g><g /><g transform="matrix(1.0, 0.0, 0.0, 1.0, 8.5, 0.75)"><g style="stroke: #aaff00;stroke-width: 2.25;fill-opacity: 0;" transform="matrix(1.0, 0.0, 0.0, 1.0, 0.0, 0.0)"><rect height="0.95" style="vector-effect: non-scaling-stroke;" width="0.95" x="-0.475" y="-0.475" /></g></g></g></g><g><g /><g transform="matrix(1.0, 0.0, 0.0, 1.0, 3.216666666666667, -3.0)"><g style="fill: #aaff00;stroke: black;stroke-width: 0.6;" transform="matrix(1.0, 0.0, 0.0, 1.0, 0.0, 0.0)"><circle cx="0.0" cy="0.0" r="0.1" style="vector-effect: non-scaling-stroke" /></g></g></g></g></g><g><g><g /><g><g /><g transform="matrix(1.0, 0.0, 0.0, 1.0, 8.5, 0.75)"><g style="stroke: #aaff00;stroke-width: 2.25;fill-opacity: 0;" transform="matrix(1.0, 0.0, 0.0, 1.0, 0.0, 0.0)"><rect height="0.95" style="vector-effect: non-scaling-stroke;" width="0.95" x="-0.475" y="-0.475" /></g></g></g></g><g><g /><g transform="matrix(1.0, 0.0, 0.0, 1.0, 3.216666666666667, 2.5)"><g style="fill: #aaff00;stroke: black;stroke-width: 0.6;" transform="matrix(1.0, 0.0, 0.0, 1.0, 0.0, 0.0)"><circle cx="0.0" cy="0.0" r="0.1" style="vector-effect: non-scaling-stroke" /></g></g></g></g></g><g><g><g /><g><g /><g transform="matrix(1.0, 0.0, 0.0, 1.0, 8.5, 0.75)"><g style="stroke: #aaff00;stroke-width: 2.25;fill-opacity: 0;" transform="matrix(1.0, 0.0, 0.0, 1.0, 0.0, 0.0)"><rect height="0.95" style="vector-effect: non-scaling-stroke;" width="0.95" x="-0.475" y="-0.475" /></g></g></g></g><g><g /><g transform="matrix(1.0, 0.0, 0.0, 1.0, 3.216666666666667, -2.0)"><g style="fill: #aaff00;stroke: black;stroke-width: 0.6;" transform="matrix(1.0, 0.0, 0.0, 1.0, 0.0, 0.0)"><circle cx="0.0" cy="0.0" r="0.1" style="vector-effect: non-scaling-stroke" /></g></g></g></g></g><g><g><g /><g><g /><g transform="matrix(1.0, 0.0, 0.0, 1.0, 8.5, 0.75)"><g style="stroke: #aaff00;stroke-width: 2.25;fill-opacity: 0;" transform="matrix(1.0, 0.0, 0.0, 1.0, 0.0, 0.0)"><rect height="0.95" style="vector-effect: non-scaling-stroke;" width="0.95" x="-0.475" y="-0.475" /></g></g></g></g><g><g /><g transform="matrix(1.0, 0.0, 0.0, 1.0, 4.216666666666667, 2.5)"><g style="fill: #aaff00;stroke: black;stroke-width: 0.6;" transform="matrix(1.0, 0.0, 0.0, 1.0, 0.0, 0.0)"><circle cx="0.0" cy="0.0" r="0.1" style="vector-effect: non-scaling-stroke" /></g></g></g></g></g></g></g><g><g><g><g><g><g /><g /></g><g /></g><g><g /><g><g><g /><g><g /><g transform="matrix(1.0, 0.0, 0.0, 1.0, 4.5, -2.0)"><g style="stroke: #39ff00;stroke-width: 2.25;fill-opacity: 0;" transform="matrix(1.0, 0.0, 0.0, 1.0, 0.0, 0.0)"><rect height="0.95" style="vector-effect: non-scaling-stroke;" width="0.95" x="-0.475" y="-0.475" /></g></g></g></g><g><g /><g transform="matrix(1.0, 0.0, 0.0, 1.0, 0.5, -1.5)"><g style="fill: #39ff00;stroke: black;stroke-width: 0.6;" transform="matrix(1.0, 0.0, 0.0, 1.0, 0.0, 0.0)"><circle cx="0.0" cy="0.0" r="0.1" style="vector-effect: non-scaling-stroke" /></g></g></g></g></g></g><g><g /><g><g><g /><g><g /><g transform="matrix(1.0, 0.0, 0.0, 1.0, 4.5, 2.5)"><g style="stroke: #39ff00;stroke-width: 2.25;fill-opacity: 0;" transform="matrix(1.0, 0.0, 0.0, 1.0, 0.0, 0.0)"><rect height="0.95" style="vector-effect: non-scaling-stroke;" width="0.95" x="-0.475" y="-0.475" /></g></g></g></g><g><g /><g transform="matrix(1.0, 0.0, 0.0, 1.0, 0.5, 3.0)"><g style="fill: #39ff00;stroke: black;stroke-width: 0.6;" transform="matrix(1.0, 0.0, 0.0, 1.0, 0.0, 0.0)"><circle cx="0.0" cy="0.0" r="0.1" style="vector-effect: non-scaling-stroke" /></g></g></g></g></g></g><g><g><g><g><g /><g><g><g /><g><g /><g transform="matrix(1.0, 0.0, 0.0, 1.0, 9.5, 0.75)"><g style="stroke: #39ff00;stroke-width: 2.25;fill-opacity: 0;" transform="matrix(1.0, 0.0, 0.0, 1.0, 0.0, 0.0)"><rect height="0.95" style="vector-effect: non-scaling-stroke;" width="0.95" x="-0.475" y="-0.475" /></g></g></g></g><g><g /><g transform="matrix(1.0, 0.0, 0.0, 1.0, 4.5, -3.0)"><g style="fill: #39ff00;stroke: black;stroke-width: 0.6;" transform="matrix(1.0, 0.0, 0.0, 1.0, 0.0, 0.0)"><circle cx="0.0" cy="0.0" r="0.1" style="vector-effect: non-scaling-stroke" /></g></g></g></g></g><g><g><g /><g><g /><g transform="matrix(1.0, 0.0, 0.0, 1.0, 9.5, 0.75)"><g style="stroke: #39ff00;stroke-width: 2.25;fill-opacity: 0;" transform="matrix(1.0, 0.0, 0.0, 1.0, 0.0, 0.0)"><rect height="0.95" style="vector-effect: non-scaling-stroke;" width="0.95" x="-0.475" y="-0.475" /></g></g></g></g><g><g /><g transform="matrix(1.0, 0.0, 0.0, 1.0, 3.5, 2.5)"><g style="fill: #39ff00;stroke: black;stroke-width: 0.6;" transform="matrix(1.0, 0.0, 0.0, 1.0, 0.0, 0.0)"><circle cx="0.0" cy="0.0" r="0.1" style="vector-effect: non-scaling-stroke" /></g></g></g></g></g><g><g><g /><g><g /><g transform="matrix(1.0, 0.0, 0.0, 1.0, 9.5, 0.75)"><g style="stroke: #39ff00;stroke-width: 2.25;fill-opacity: 0;" transform="matrix(1.0, 0.0, 0.0, 1.0, 0.0, 0.0)"><rect height="0.95" style="vector-effect: non-scaling-stroke;" width="0.95" x="-0.475" y="-0.475" /></g></g></g></g><g><g /><g transform="matrix(1.0, 0.0, 0.0, 1.0, 4.5, -2.0)"><g style="fill: #39ff00;stroke: black;stroke-width: 0.6;" transform="matrix(1.0, 0.0, 0.0, 1.0, 0.0, 0.0)"><circle cx="0.0" cy="0.0" r="0.1" style="vector-effect: non-scaling-stroke" /></g></g></g></g></g><g><g><g /><g><g /><g transform="matrix(1.0, 0.0, 0.0, 1.0, 9.5, 0.75)"><g style="stroke: #39ff00;stroke-width: 2.25;fill-opacity: 0;" transform="matrix(1.0, 0.0, 0.0, 1.0, 0.0, 0.0)"><rect height="0.95" style="vector-effect: non-scaling-stroke;" width="0.95" x="-0.475" y="-0.475" /></g></g></g></g><g><g /><g transform="matrix(1.0, 0.0, 0.0, 1.0, 4.5, 2.5)"><g style="fill: #39ff00;stroke: black;stroke-width: 0.6;" transform="matrix(1.0, 0.0, 0.0, 1.0, 0.0, 0.0)"><circle cx="0.0" cy="0.0" r="0.1" style="vector-effect: non-scaling-stroke" /></g></g></g></g></g></g></g><g><g><g><g><g><g /><g /></g><g /></g><g /></g><g /></g><g /></g></g><g><g><g><g><g><g /><g /></g><g /></g><g /></g><g /></g><g /></g></g><g><g><g><g><g><g /><g /></g><g /></g><g /></g><g /></g><g /></g></g><g><g><g><g><g><g /><g /></g><g /></g><g /></g><g /></g><g /></g></g></g><g transform="matrix(1.0, 0.0, 0.0, 1.0, -0.0, -4.7501)"><g><g><g style="stroke: black;stroke-width: 1.5;" transform="matrix(1.0, 0.0, 0.0, 1.0, 0.0, 0.0)"><g /></g><g transform="matrix(1.0, 0.0, 0.0, 1.0, 0.0, 0.25)"><g style="fill: #000000;stroke: black;stroke-width: 0.0;" transform="matrix(1.0, 0.0, 0.0, 1.0, 0.0, 0.0)"><text style="text-align:center; text-anchor:middle; dominant-baseline:middle;font-family:sans-serif; font-weight: bold;font-size:0.5px;vector-effect: non-scaling-stroke;" transform="translate(-5e-05, 0)">Block 0 0</text></g></g></g><g transform="matrix(1.0, 0.0, 0.0, 1.0, 0.0, 0.5001)"><g style="stroke: black;stroke-width: 1.5;" transform="matrix(1.0, 0.0, 0.0, 1.0, 0.0, 0.0)"><g /></g></g></g></g></g></g></g></g><g transform="matrix(1.0, 0.0, 0.0, 1.0, 12.0, 0.0)"><g style="stroke: black;stroke-width: 1.5;" transform="matrix(1.0, 0.0, 0.0, 1.0, 0.0, 0.0)"><g /></g></g></g></g><g /></g><g style="stroke: #808080;stroke-width: 1.5;fill-opacity: 0.0;" transform="matrix(1.0, 0.0, 0.0, 1.0, 0.0, 0.0)"><rect height="10.80012" rx="0.5" ry="0.5" style="vector-effect: non-scaling-stroke;" width="15.6" x="-7.8" y="-5.40006" /></g></g><g /></g></g></g></g></g></g><g /></g></g></g></g><g /></g></g></g></g></svg>