<?xml version="1.0" encoding="utf-8" ?>
<svg baseProfile="full" height="937.2127600000001" version="1.1" width="1089" xmlns="http://www.w3.org/2000/svg" xmlns:ev="http://www.w3.org/2001/xml-events" xmlns:xlink="http://www.w3.org/1999/xlink"><defs><marker id="arrow" markerHeight="3.5" markerWidth="5" orient="auto" refX="5.0" refY="1.7"><polygon points="0,0 5,1.75 0,3.5" /></marker></defs><g style="fill:white;"><g transform="matrix(1.0, 0.0, 0.0, 1.0, 544.5, 468.60638)"><g transform="matrix(47.61904761904762, 0.0, 0.0, 47.61904761904762, 0.0, 0.0)"><g><g transform="matrix(1.0, 0.0, 0.0, 1.0, -0.0, -0.0)"><g><g style="fill: #ffffff;stroke: black;stroke-width: 1.5;" transform="matrix(1.0, 0.0, 0.0, 1.0, 0.0, 0.0)"><rect height="18.7442552" style="vector-effect: non-scaling-stroke;" width="21.78" x="-10.89" y="-9.3721276" /></g><g transform="matrix(1.0, 0.0, 0.0, 1.0, -0.0, -8.547127600000001)"><g><g><g><g><g><g><g style="stroke: black;stroke-width: 1.5;" transform="matrix(1.0, 0.0, 0.0, 1.0, 0.0, 0.0)"><g /></g><g transform="matrix(1.0, 0.0, 0.0, 1.0, 0.0, 0.75)"><g style="stroke: black;stroke-width: 1.5;" transform="matrix(1.0, 0.0, 0.0, 1.0, 0.0, 0.0)"><text style="text-align:center; text-anchor:middle; dominant-baseline:middle;font-family:sans-serif; font-weight: bold;font-size:1px;vector-effect: non-scaling-stroke;" transform="translate(-5e-05, 0)">Sum (Simple)</text></g></g></g><g transform="matrix(1.0, 0.0, 0.0, 1.0, 0.0, 1.2501)"><g style="stroke: black;stroke-width: 1.5;" transform="matrix(1.0, 0.0, 0.0, 1.0, 0.0, 0.0)"><g /></g></g></g><g transform="matrix(1.0, 0.0, 0.0, 1.0, 0.0, 2.2500999999999998)"><g transform="matrix(1.0, 0.0, 0.0, 1.0, -3.8500000000000005, -0.0)"><g><g><g><g><g><g><g><g><g /><g transform="matrix(1.0, 0.0, 0.0, 1.0, 0.0, 0.0)"><g><g style="fill: #ff0000;stroke: black;stroke-width: 1.5;fill-opacity: 0.7;" transform="matrix(1.0, 0.0, 0.0, 1.0, 0.0, 0.0)"><circle cx="0.0" cy="0.0" r="0.5" style="vector-effect: non-scaling-stroke" /></g><g style="stroke: black;stroke-width: 1.5;" transform="matrix(0.0008333333333333334, 0.0, 0.0, 0.0008333333333333334, 0.0, 0.0)"><image transform="translate(-600.0, -600.0)" xlink:href="https://raw.githubusercontent.com/minitorch/diagrams/main/robot.png" /></g></g></g></g><g transform="matrix(1.0, 0.0, 0.0, 1.0, 1.1, 0.0)"><g><g style="fill: #ff7100;stroke: black;stroke-width: 1.5;fill-opacity: 0.7;" transform="matrix(1.0, 0.0, 0.0, 1.0, 0.0, 0.0)"><circle cx="0.0" cy="0.0" r="0.5" style="vector-effect: non-scaling-stroke" /></g><g style="stroke: black;stroke-width: 1.5;" transform="matrix(0.0008333333333333334, 0.0, 0.0, 0.0008333333333333334, 0.0, 0.0)"><image transform="translate(-600.0, -600.0)" xlink:href="https://raw.githubusercontent.com/minitorch/diagrams/main/robot.png" /></g></g></g></g><g transform="matrix(1.0, 0.0, 0.0, 1.0, 2.2, 0.0)"><g><g style="fill: #ffe300;stroke: black;stroke-width: 1.5;fill-opacity: 0.7;" transform="matrix(1.0, 0.0, 0.0, 1.0, 0.0, 0.0)"><circle cx="0.0" cy="0.0" r="0.5" style="vector-effect: non-scaling-stroke" /></g><g style="stroke: black;stroke-width: 1.5;" transform="matrix(0.0008333333333333334, 0.0, 0.0, 0.0008333333333333334, 0.0, 0.0)"><image transform="translate(-600.0, -600.0)" xlink:href="https://raw.githubusercontent.com/minitorch/diagrams/main/robot.png" /></g></g></g></g><g transform="matrix(1.0, 0.0, 0.0, 1.0, 3.3000000000000003, 0.0)"><g><g style="fill: #aaff00;stroke: black;stroke-width: 1.5;fill-opacity: 0.7;" transform="matrix(1.0, 0.0, 0.0, 1.0, 0.0, 0.0)"><circle cx="0.0" cy="0.0" r="0.5" style="vector-effect: non-scaling-stroke" /></g><g style="stroke: black;stroke-width: 1.5;" transform="matrix(0.0008333333333333334, 0.0, 0.0, 0.0008333333333333334, 0.0, 0.0)"><image transform="translate(-600.0, -600.0)" xlink:href="https://raw.githubusercontent.com/minitorch/diagrams/main/robot.png" /></g></g></g></g><g transform="matrix(1.0, 0.0, 0.0, 1.0, 4.4, 0.0)"><g><g style="fill: #39ff00;stroke: black;stroke-width: 1.5;fill-opacity: 0.7;" transform="matrix(1.0, 0.0, 0.0, 1.0, 0.0, 0.0)"><circle cx="0.0" cy="0.0" r="0.5" style="vector-effect: non-scaling-stroke" /></g><g style="stroke: black;stroke-width: 1.5;" transform="matrix(0.0008333333333333334, 0.0, 0.0, 0.0008333333333333334, 0.0, 0.0)"><image transform="translate(-600.0, -600.0)" xlink:href="https://raw.githubusercontent.com/minitorch/diagrams/main/robot.png" /></g></g></g></g><g transform="matrix(1.0, 0.0, 0.0, 1.0, 5.5, 0.0)"><g><g style="fill: #00ff39;stroke: black;stroke-width: 1.5;fill-opacity: 0.7;" transform="matrix(1.0, 0.0, 0.0, 1.0, 0.0, 0.0)"><circle cx="0.0" cy="0.0" r="0.5" style="vector-effect: non-scaling-stroke" /></g><g style="stroke: black;stroke-width: 1.5;" transform="matrix(0.0008333333333333334, 0.0, 0.0, 0.0008333333333333334, 0.0, 0.0)"><image transform="translate(-600.0, -600.0)" xlink:href="https://raw.githubusercontent.com/minitorch/diagrams/main/robot.png" /></g></g></g></g><g transform="matrix(1.0, 0.0, 0.0, 1.0, 6.6000000000000005, 0.0)"><g><g style="fill: #00ffaa;stroke: black;stroke-width: 1.5;fill-opacity: 0.7;" transform="matrix(1.0, 0.0, 0.0, 1.0, 0.0, 0.0)"><circle cx="0.0" cy="0.0" r="0.5" style="vector-effect: non-scaling-stroke" /></g><g style="stroke: black;stroke-width: 1.5;" transform="matrix(0.0008333333333333334, 0.0, 0.0, 0.0008333333333333334, 0.0, 0.0)"><image transform="translate(-600.0, -600.0)" xlink:href="https://raw.githubusercontent.com/minitorch/diagrams/main/robot.png" /></g></g></g></g><g transform="matrix(1.0, 0.0, 0.0, 1.0, 7.700000000000001, 0.0)"><g><g style="fill: #00e3ff;stroke: black;stroke-width: 1.5;fill-opacity: 0.7;" transform="matrix(1.0, 0.0, 0.0, 1.0, 0.0, 0.0)"><circle cx="0.0" cy="0.0" r="0.5" style="vector-effect: non-scaling-stroke" /></g><g style="stroke: black;stroke-width: 1.5;" transform="matrix(0.0008333333333333334, 0.0, 0.0, 0.0008333333333333334, 0.0, 0.0)"><image transform="translate(-600.0, -600.0)" xlink:href="https://raw.githubusercontent.com/minitorch/diagrams/main/robot.png" /></g></g></g></g></g></g></g><g transform="matrix(1.0, 0.0, 0.0, 1.0, 0.0, 3.2500999999999998)"><g style="stroke: black;stroke-width: 1.5;" transform="matrix(1.0, 0.0, 0.0, 1.0, 0.0, 0.0)"><g /></g></g></g><g transform="matrix(1.0, 0.0, 0.0, 1.0, 0.0, 10.020166)"><g transform="matrix(1.0, 0.0, 0.0, 1.0, -0.0, -0.0)"><g><g /><g transform="matrix(1.0, 0.0, 0.0, 1.0, 0.0, 0.0)"><g><g><g><g transform="matrix(1.0, 0.0, 0.0, 1.0, -7.0, -0.0)"><g><g><g style="stroke: black;stroke-width: 1.5;" transform="matrix(1.0, 0.0, 0.0, 1.0, 0.0, 0.0)"><g /></g><g transform="matrix(1.0, 0.0, 0.0, 1.0, 7.0, 0.0)"><g transform="matrix(1.0, 0.0, 0.0, 1.0, -0.0, 0.5000499999999999)"><g><g transform="matrix(1.0, 0.0, 0.0, 1.0, -6.0, -0.0)"><g><g><g><g><g><g><g><g><g><g><g><g><g transform="matrix(1.0, 0.0, 0.0, 1.0, -0.0, 0.25)"><g><g transform="matrix(1.0, 0.0, 0.0, 1.0, -0.0, -2.5)"><g><g><g><g><g><g><g /><g><g style="stroke: black;stroke-width: 0.75;" transform="matrix(1.0, 0.0, 0.0, 1.0, 0.0, 0.0)"><rect height="1" style="vector-effect: non-scaling-stroke;" width="1" x="-0.5" y="-0.5" /></g></g></g><g><g style="stroke: black;stroke-width: 0.75;" transform="matrix(1.0, 0.0, 0.0, 1.0, 0.0, 1.0)"><rect height="1" style="vector-effect: non-scaling-stroke;" width="1" x="-0.5" y="-0.5" /></g></g></g><g><g style="stroke: black;stroke-width: 0.75;" transform="matrix(1.0, 0.0, 0.0, 1.0, 0.0, 2.0)"><rect height="1" style="vector-effect: non-scaling-stroke;" width="1" x="-0.5" y="-0.5" /></g></g></g><g><g style="stroke: black;stroke-width: 0.75;" transform="matrix(1.0, 0.0, 0.0, 1.0, 0.0, 3.0)"><rect height="1" style="vector-effect: non-scaling-stroke;" width="1" x="-0.5" y="-0.5" /></g></g></g><g><g style="stroke: black;stroke-width: 0.75;" transform="matrix(1.0, 0.0, 0.0, 1.0, 0.0, 4.0)"><rect height="1" style="vector-effect: non-scaling-stroke;" width="1" x="-0.5" y="-0.5" /></g></g></g><g><g style="stroke: black;stroke-width: 0.75;" transform="matrix(1.0, 0.0, 0.0, 1.0, 0.0, 5.0)"><rect height="1" style="vector-effect: non-scaling-stroke;" width="1" x="-0.5" y="-0.5" /></g></g></g></g><g transform="matrix(1.0, 0.0, 0.0, 1.0, -0.0, -3.25)"><g><g style="fill: #000000;stroke: black;stroke-width: 0.0;" transform="matrix(1.0, 0.0, 0.0, 1.0, 0.0, 0.0)"><text style="text-align:center; text-anchor:middle; dominant-baseline:middle;font-family:sans-serif; font-weight: bold;font-size:0.5px;vector-effect: non-scaling-stroke;" transform="translate(-5e-05, 0)">a</text></g><g style="stroke: black;stroke-width: 1.5;" transform="matrix(1.0, 0.0, 0.0, 1.0, 0.0, 0.0)"><g /></g></g></g></g></g><g transform="matrix(1.0, 0.0, 0.0, 1.0, 1.5, 0.0)"><g style="stroke: black;stroke-width: 1.5;" transform="matrix(1.0, 0.0, 0.0, 1.0, 0.0, 0.0)"><g /></g></g></g><g transform="matrix(1.0, 0.0, 0.0, 1.0, 6.0, 0.0)"><g transform="matrix(1.0, 0.0, 0.0, 1.0, -3.0, 0.25)"><g><g><g><g><g><g><g><g transform="matrix(1.0, 0.0, 0.0, 1.0, -0.0, -3.5)"><g><g><g><g><g><g><g><g><g /><g><g style="stroke: black;stroke-width: 0.75;" transform="matrix(1.0, 0.0, 0.0, 1.0, 0.0, 0.0)"><rect height="1" style="vector-effect: non-scaling-stroke;" width="1" x="-0.5" y="-0.5" /></g></g></g><g><g style="stroke: black;stroke-width: 0.75;" transform="matrix(1.0, 0.0, 0.0, 1.0, 0.0, 1.0)"><rect height="1" style="vector-effect: non-scaling-stroke;" width="1" x="-0.5" y="-0.5" /></g></g></g><g><g style="stroke: black;stroke-width: 0.75;" transform="matrix(1.0, 0.0, 0.0, 1.0, 0.0, 2.0)"><rect height="1" style="vector-effect: non-scaling-stroke;" width="1" x="-0.5" y="-0.5" /></g></g></g><g><g style="stroke: black;stroke-width: 0.75;" transform="matrix(1.0, 0.0, 0.0, 1.0, 0.0, 3.0)"><rect height="1" style="vector-effect: non-scaling-stroke;" width="1" x="-0.5" y="-0.5" /></g></g></g><g><g style="stroke: black;stroke-width: 0.75;" transform="matrix(1.0, 0.0, 0.0, 1.0, 0.0, 4.0)"><rect height="1" style="vector-effect: non-scaling-stroke;" width="1" x="-0.5" y="-0.5" /></g></g></g><g><g style="stroke: black;stroke-width: 0.75;" transform="matrix(1.0, 0.0, 0.0, 1.0, 0.0, 5.0)"><rect height="1" style="vector-effect: non-scaling-stroke;" width="1" x="-0.5" y="-0.5" /></g></g></g><g><g style="stroke: black;stroke-width: 0.75;" transform="matrix(1.0, 0.0, 0.0, 1.0, 0.0, 6.0)"><rect height="1" style="vector-effect: non-scaling-stroke;" width="1" x="-0.5" y="-0.5" /></g></g></g><g><g style="stroke: black;stroke-width: 0.75;" transform="matrix(1.0, 0.0, 0.0, 1.0, 0.0, 7.0)"><rect height="1" style="vector-effect: non-scaling-stroke;" width="1" x="-0.5" y="-0.5" /></g></g></g></g><g transform="matrix(1.0, 0.0, 0.0, 1.0, -0.0, -4.25)"><g><g style="fill: #000000;stroke: black;stroke-width: 0.0;" transform="matrix(1.0, 0.0, 0.0, 1.0, 0.0, 0.0)"><text style="text-align:center; text-anchor:middle; dominant-baseline:middle;font-family:sans-serif; font-weight: bold;font-size:0.5px;vector-effect: non-scaling-stroke;" transform="translate(-5e-05, 0)">S0'</text></g><g style="stroke: black;stroke-width: 1.5;" transform="matrix(1.0, 0.0, 0.0, 1.0, 0.0, 0.0)"><g /></g></g></g></g><g transform="matrix(1.0, 0.0, 0.0, 1.0, 1.0, 0.0)"><g style="stroke: black;stroke-width: 1.5;" transform="matrix(1.0, 0.0, 0.0, 1.0, 0.0, 0.0)"><g /></g></g></g><g transform="matrix(1.0, 0.0, 0.0, 1.0, 2.0, 0.0)"><g><g transform="matrix(1.0, 0.0, 0.0, 1.0, -0.0, -3.5)"><g><g><g><g><g><g><g><g><g /><g><g style="stroke: black;stroke-width: 0.75;" transform="matrix(1.0, 0.0, 0.0, 1.0, 0.0, 0.0)"><rect height="1" style="vector-effect: non-scaling-stroke;" width="1" x="-0.5" y="-0.5" /></g></g></g><g><g style="stroke: black;stroke-width: 0.75;" transform="matrix(1.0, 0.0, 0.0, 1.0, 0.0, 1.0)"><rect height="1" style="vector-effect: non-scaling-stroke;" width="1" x="-0.5" y="-0.5" /></g></g></g><g><g style="stroke: black;stroke-width: 0.75;" transform="matrix(1.0, 0.0, 0.0, 1.0, 0.0, 2.0)"><rect height="1" style="vector-effect: non-scaling-stroke;" width="1" x="-0.5" y="-0.5" /></g></g></g><g><g style="stroke: black;stroke-width: 0.75;" transform="matrix(1.0, 0.0, 0.0, 1.0, 0.0, 3.0)"><rect height="1" style="vector-effect: non-scaling-stroke;" width="1" x="-0.5" y="-0.5" /></g></g></g><g><g style="stroke: black;stroke-width: 0.75;" transform="matrix(1.0, 0.0, 0.0, 1.0, 0.0, 4.0)"><rect height="1" style="vector-effect: non-scaling-stroke;" width="1" x="-0.5" y="-0.5" /></g></g></g><g><g style="stroke: black;stroke-width: 0.75;" transform="matrix(1.0, 0.0, 0.0, 1.0, 0.0, 5.0)"><rect height="1" style="vector-effect: non-scaling-stroke;" width="1" x="-0.5" y="-0.5" /></g></g></g><g><g style="stroke: black;stroke-width: 0.75;" transform="matrix(1.0, 0.0, 0.0, 1.0, 0.0, 6.0)"><rect height="1" style="vector-effect: non-scaling-stroke;" width="1" x="-0.5" y="-0.5" /></g></g></g><g><g style="stroke: black;stroke-width: 0.75;" transform="matrix(1.0, 0.0, 0.0, 1.0, 0.0, 7.0)"><rect height="1" style="vector-effect: non-scaling-stroke;" width="1" x="-0.5" y="-0.5" /></g></g></g></g><g transform="matrix(1.0, 0.0, 0.0, 1.0, -0.0, -4.25)"><g><g style="fill: #000000;stroke: black;stroke-width: 0.0;" transform="matrix(1.0, 0.0, 0.0, 1.0, 0.0, 0.0)"><text style="text-align:center; text-anchor:middle; dominant-baseline:middle;font-family:sans-serif; font-weight: bold;font-size:0.5px;vector-effect: non-scaling-stroke;" transform="translate(-5e-05, 0)">S0''</text></g><g style="stroke: black;stroke-width: 1.5;" transform="matrix(1.0, 0.0, 0.0, 1.0, 0.0, 0.0)"><g /></g></g></g></g></g></g><g transform="matrix(1.0, 0.0, 0.0, 1.0, 3.0, 0.0)"><g style="stroke: black;stroke-width: 1.5;" transform="matrix(1.0, 0.0, 0.0, 1.0, 0.0, 0.0)"><g /></g></g></g><g transform="matrix(1.0, 0.0, 0.0, 1.0, 4.0, 0.0)"><g><g transform="matrix(1.0, 0.0, 0.0, 1.0, -0.0, -3.5)"><g><g><g><g><g><g><g><g><g /><g><g style="stroke: black;stroke-width: 0.75;" transform="matrix(1.0, 0.0, 0.0, 1.0, 0.0, 0.0)"><rect height="1" style="vector-effect: non-scaling-stroke;" width="1" x="-0.5" y="-0.5" /></g></g></g><g><g style="stroke: black;stroke-width: 0.75;" transform="matrix(1.0, 0.0, 0.0, 1.0, 0.0, 1.0)"><rect height="1" style="vector-effect: non-scaling-stroke;" width="1" x="-0.5" y="-0.5" /></g></g></g><g><g style="stroke: black;stroke-width: 0.75;" transform="matrix(1.0, 0.0, 0.0, 1.0, 0.0, 2.0)"><rect height="1" style="vector-effect: non-scaling-stroke;" width="1" x="-0.5" y="-0.5" /></g></g></g><g><g style="stroke: black;stroke-width: 0.75;" transform="matrix(1.0, 0.0, 0.0, 1.0, 0.0, 3.0)"><rect height="1" style="vector-effect: non-scaling-stroke;" width="1" x="-0.5" y="-0.5" /></g></g></g><g><g style="stroke: black;stroke-width: 0.75;" transform="matrix(1.0, 0.0, 0.0, 1.0, 0.0, 4.0)"><rect height="1" style="vector-effect: non-scaling-stroke;" width="1" x="-0.5" y="-0.5" /></g></g></g><g><g style="stroke: black;stroke-width: 0.75;" transform="matrix(1.0, 0.0, 0.0, 1.0, 0.0, 5.0)"><rect height="1" style="vector-effect: non-scaling-stroke;" width="1" x="-0.5" y="-0.5" /></g></g></g><g><g style="stroke: black;stroke-width: 0.75;" transform="matrix(1.0, 0.0, 0.0, 1.0, 0.0, 6.0)"><rect height="1" style="vector-effect: non-scaling-stroke;" width="1" x="-0.5" y="-0.5" /></g></g></g><g><g style="stroke: black;stroke-width: 0.75;" transform="matrix(1.0, 0.0, 0.0, 1.0, 0.0, 7.0)"><rect height="1" style="vector-effect: non-scaling-stroke;" width="1" x="-0.5" y="-0.5" /></g></g></g></g><g transform="matrix(1.0, 0.0, 0.0, 1.0, -0.0, -4.25)"><g><g style="fill: #000000;stroke: black;stroke-width: 0.0;" transform="matrix(1.0, 0.0, 0.0, 1.0, 0.0, 0.0)"><text style="text-align:center; text-anchor:middle; dominant-baseline:middle;font-family:sans-serif; font-weight: bold;font-size:0.5px;vector-effect: non-scaling-stroke;" transform="translate(-5e-05, 0)">S0'''</text></g><g style="stroke: black;stroke-width: 1.5;" transform="matrix(1.0, 0.0, 0.0, 1.0, 0.0, 0.0)"><g /></g></g></g></g></g></g><g transform="matrix(1.0, 0.0, 0.0, 1.0, 5.0, 0.0)"><g style="stroke: black;stroke-width: 1.5;" transform="matrix(1.0, 0.0, 0.0, 1.0, 0.0, 0.0)"><g /></g></g></g><g transform="matrix(1.0, 0.0, 0.0, 1.0, 6.0, 0.0)"><g><g transform="matrix(1.0, 0.0, 0.0, 1.0, -0.0, -3.5)"><g><g><g><g><g><g><g><g><g /><g><g style="stroke: black;stroke-width: 0.75;" transform="matrix(1.0, 0.0, 0.0, 1.0, 0.0, 0.0)"><rect height="1" style="vector-effect: non-scaling-stroke;" width="1" x="-0.5" y="-0.5" /></g></g></g><g><g style="stroke: black;stroke-width: 0.75;" transform="matrix(1.0, 0.0, 0.0, 1.0, 0.0, 1.0)"><rect height="1" style="vector-effect: non-scaling-stroke;" width="1" x="-0.5" y="-0.5" /></g></g></g><g><g style="stroke: black;stroke-width: 0.75;" transform="matrix(1.0, 0.0, 0.0, 1.0, 0.0, 2.0)"><rect height="1" style="vector-effect: non-scaling-stroke;" width="1" x="-0.5" y="-0.5" /></g></g></g><g><g style="stroke: black;stroke-width: 0.75;" transform="matrix(1.0, 0.0, 0.0, 1.0, 0.0, 3.0)"><rect height="1" style="vector-effect: non-scaling-stroke;" width="1" x="-0.5" y="-0.5" /></g></g></g><g><g style="stroke: black;stroke-width: 0.75;" transform="matrix(1.0, 0.0, 0.0, 1.0, 0.0, 4.0)"><rect height="1" style="vector-effect: non-scaling-stroke;" width="1" x="-0.5" y="-0.5" /></g></g></g><g><g style="stroke: black;stroke-width: 0.75;" transform="matrix(1.0, 0.0, 0.0, 1.0, 0.0, 5.0)"><rect height="1" style="vector-effect: non-scaling-stroke;" width="1" x="-0.5" y="-0.5" /></g></g></g><g><g style="stroke: black;stroke-width: 0.75;" transform="matrix(1.0, 0.0, 0.0, 1.0, 0.0, 6.0)"><rect height="1" style="vector-effect: non-scaling-stroke;" width="1" x="-0.5" y="-0.5" /></g></g></g><g><g style="stroke: black;stroke-width: 0.75;" transform="matrix(1.0, 0.0, 0.0, 1.0, 0.0, 7.0)"><rect height="1" style="vector-effect: non-scaling-stroke;" width="1" x="-0.5" y="-0.5" /></g></g></g></g><g transform="matrix(1.0, 0.0, 0.0, 1.0, -0.0, -4.25)"><g><g style="fill: #000000;stroke: black;stroke-width: 0.0;" transform="matrix(1.0, 0.0, 0.0, 1.0, 0.0, 0.0)"><text style="text-align:center; text-anchor:middle; dominant-baseline:middle;font-family:sans-serif; font-weight: bold;font-size:0.5px;vector-effect: non-scaling-stroke;" transform="translate(-5e-05, 0)">S0''''</text></g><g style="stroke: black;stroke-width: 1.5;" transform="matrix(1.0, 0.0, 0.0, 1.0, 0.0, 0.0)"><g /></g></g></g></g></g></g></g></g></g><g transform="matrix(1.0, 0.0, 0.0, 1.0, 10.5, 0.0)"><g style="stroke: black;stroke-width: 1.5;" transform="matrix(1.0, 0.0, 0.0, 1.0, 0.0, 0.0)"><g /></g></g></g><g transform="matrix(1.0, 0.0, 0.0, 1.0, 12.0, 0.0)"><g transform="matrix(1.0, 0.0, 0.0, 1.0, -0.0, 0.25)"><g><g transform="matrix(1.0, 0.0, 0.0, 1.0, -0.0, -0.0)"><g><g /><g><g style="stroke: black;stroke-width: 0.75;" transform="matrix(1.0, 0.0, 0.0, 1.0, 0.0, 0.0)"><rect height="1" style="vector-effect: non-scaling-stroke;" width="1" x="-0.5" y="-0.5" /></g></g></g></g><g transform="matrix(1.0, 0.0, 0.0, 1.0, -0.0, -0.75)"><g><g style="fill: #000000;stroke: black;stroke-width: 0.0;" transform="matrix(1.0, 0.0, 0.0, 1.0, 0.0, 0.0)"><text style="text-align:center; text-anchor:middle; dominant-baseline:middle;font-family:sans-serif; font-weight: bold;font-size:0.5px;vector-effect: non-scaling-stroke;" transform="translate(-5e-05, 0)">out</text></g><g style="stroke: black;stroke-width: 1.5;" transform="matrix(1.0, 0.0, 0.0, 1.0, 0.0, 0.0)"><g /></g></g></g></g></g></g></g><g><g><g><g><g><g><g /><g /></g><g><g /><g><g><g><g /><g style="stroke: #ff0000;stroke-width: 0.6;" transform="matrix(-0.9443858358131753, 0.32883946404811315, -0.32883946404811315, -0.9443858358131753, 2.5, -3.25)"><polyline points="0.0,0.0 3.040997536274076,0.0" style="vector-effect: non-scaling-stroke;" /></g></g><g><g /><g transform="matrix(1.0, 0.0, 0.0, 1.0, 3.0, -3.25)"><g style="stroke: #ff0000;stroke-width: 2.25;fill-opacity: 0;" transform="matrix(1.0, 0.0, 0.0, 1.0, 0.0, 0.0)"><rect height="0.95" style="vector-effect: non-scaling-stroke;" width="0.95" x="-0.475" y="-0.475" /></g></g></g></g><g><g /><g transform="matrix(1.0, 0.0, 0.0, 1.0, -0.371875, -2.25)"><g style="fill: #ff0000;stroke: black;stroke-width: 0.6;" transform="matrix(1.0, 0.0, 0.0, 1.0, 0.0, 0.0)"><circle cx="0.0" cy="0.0" r="0.1" style="vector-effect: non-scaling-stroke" /></g></g></g></g></g></g><g><g><g /><g><g><g><g /><g style="stroke: #ff0000;stroke-width: 0.6;" transform="matrix(-1.0, 0.0, 0.0, -1.0, 4.5, -3.25)"><polyline points="0.0,0.0 1.8718750000000002,0.0" style="vector-effect: non-scaling-stroke;" /></g></g><g><g /><g transform="matrix(1.0, 0.0, 0.0, 1.0, 5.0, -3.25)"><g style="stroke: #ff0000;stroke-width: 2.25;fill-opacity: 0;" transform="matrix(1.0, 0.0, 0.0, 1.0, 0.0, 0.0)"><rect height="0.95" style="vector-effect: non-scaling-stroke;" width="0.95" x="-0.475" y="-0.475" /></g></g></g></g><g><g /><g transform="matrix(1.0, 0.0, 0.0, 1.0, 2.628125, -3.25)"><g style="fill: #ff0000;stroke: black;stroke-width: 0.6;" transform="matrix(1.0, 0.0, 0.0, 1.0, 0.0, 0.0)"><circle cx="0.0" cy="0.0" r="0.1" style="vector-effect: non-scaling-stroke" /></g></g></g></g></g><g><g><g><g /><g style="stroke: #ff0000;stroke-width: 0.6;" transform="matrix(-0.8820266396909295, 0.47119954040249984, -0.47119954040249984, -0.8820266396909295, 4.5, -3.25)"><polyline points="0.0,0.0 2.122243156573959,0.0" style="vector-effect: non-scaling-stroke;" /></g></g><g><g /><g transform="matrix(1.0, 0.0, 0.0, 1.0, 5.0, -3.25)"><g style="stroke: #ff0000;stroke-width: 2.25;fill-opacity: 0;" transform="matrix(1.0, 0.0, 0.0, 1.0, 0.0, 0.0)"><rect height="0.95" style="vector-effect: non-scaling-stroke;" width="0.95" x="-0.475" y="-0.475" /></g></g></g></g><g><g /><g transform="matrix(1.0, 0.0, 0.0, 1.0, 2.628125, -2.25)"><g style="fill: #ff0000;stroke: black;stroke-width: 0.6;" transform="matrix(1.0, 0.0, 0.0, 1.0, 0.0, 0.0)"><circle cx="0.0" cy="0.0" r="0.1" style="vector-effect: non-scaling-stroke" /></g></g></g></g></g></g><g><g><g /><g><g><g><g /><g style="stroke: #ff0000;stroke-width: 0.6;" transform="matrix(-1.0, 0.0, 0.0, -1.0, 6.5, -3.25)"><polyline points="0.0,0.0 1.8718750000000002,0.0" style="vector-effect: non-scaling-stroke;" /></g></g><g><g /><g transform="matrix(1.0, 0.0, 0.0, 1.0, 7.0, -3.25)"><g style="stroke: #ff0000;stroke-width: 2.25;fill-opacity: 0;" transform="matrix(1.0, 0.0, 0.0, 1.0, 0.0, 0.0)"><rect height="0.95" style="vector-effect: non-scaling-stroke;" width="0.95" x="-0.475" y="-0.475" /></g></g></g></g><g><g /><g transform="matrix(1.0, 0.0, 0.0, 1.0, 4.628125, -3.25)"><g style="fill: #ff0000;stroke: black;stroke-width: 0.6;" transform="matrix(1.0, 0.0, 0.0, 1.0, 0.0, 0.0)"><circle cx="0.0" cy="0.0" r="0.1" style="vector-effect: non-scaling-stroke" /></g></g></g></g></g><g><g><g><g /><g style="stroke: #ff0000;stroke-width: 0.6;" transform="matrix(-0.6833337351284202, 0.7301061610721019, -0.7301061610721019, -0.6833337351284202, 6.5, -3.25)"><polyline points="0.0,0.0 2.7393276575877157,0.0" style="vector-effect: non-scaling-stroke;" /></g></g><g><g /><g transform="matrix(1.0, 0.0, 0.0, 1.0, 7.0, -3.25)"><g style="stroke: #ff0000;stroke-width: 2.25;fill-opacity: 0;" transform="matrix(1.0, 0.0, 0.0, 1.0, 0.0, 0.0)"><rect height="0.95" style="vector-effect: non-scaling-stroke;" width="0.95" x="-0.475" y="-0.475" /></g></g></g></g><g><g /><g transform="matrix(1.0, 0.0, 0.0, 1.0, 4.628125, -1.25)"><g style="fill: #ff0000;stroke: black;stroke-width: 0.6;" transform="matrix(1.0, 0.0, 0.0, 1.0, 0.0, 0.0)"><circle cx="0.0" cy="0.0" r="0.1" style="vector-effect: non-scaling-stroke" /></g></g></g></g></g></g><g><g><g /><g><g><g><g /><g style="stroke: #ff0000;stroke-width: 0.6;" transform="matrix(-1.0, 0.0, 0.0, -1.0, 8.5, -3.25)"><polyline points="0.0,0.0 1.8718750000000002,0.0" style="vector-effect: non-scaling-stroke;" /></g></g><g><g /><g transform="matrix(1.0, 0.0, 0.0, 1.0, 9.0, -3.25)"><g style="stroke: #ff0000;stroke-width: 2.25;fill-opacity: 0;" transform="matrix(1.0, 0.0, 0.0, 1.0, 0.0, 0.0)"><rect height="0.95" style="vector-effect: non-scaling-stroke;" width="0.95" x="-0.475" y="-0.475" /></g></g></g></g><g><g /><g transform="matrix(1.0, 0.0, 0.0, 1.0, 6.628125, -3.25)"><g style="fill: #ff0000;stroke: black;stroke-width: 0.6;" transform="matrix(1.0, 0.0, 0.0, 1.0, 0.0, 0.0)"><circle cx="0.0" cy="0.0" r="0.1" style="vector-effect: non-scaling-stroke" /></g></g></g></g></g><g><g><g><g /><g style="stroke: #ff0000;stroke-width: 0.6;" transform="matrix(-0.42385365737014824, 0.9057306868677626, -0.9057306868677626, -0.42385365737014824, 8.5, -3.25)"><polyline points="0.0,0.0 4.416323812360797,0.0" style="vector-effect: non-scaling-stroke;" /></g></g><g><g /><g transform="matrix(1.0, 0.0, 0.0, 1.0, 9.0, -3.25)"><g style="stroke: #ff0000;stroke-width: 2.25;fill-opacity: 0;" transform="matrix(1.0, 0.0, 0.0, 1.0, 0.0, 0.0)"><rect height="0.95" style="vector-effect: non-scaling-stroke;" width="0.95" x="-0.475" y="-0.475" /></g></g></g></g><g><g /><g transform="matrix(1.0, 0.0, 0.0, 1.0, 6.628125, 0.75)"><g style="fill: #ff0000;stroke: black;stroke-width: 0.6;" transform="matrix(1.0, 0.0, 0.0, 1.0, 0.0, 0.0)"><circle cx="0.0" cy="0.0" r="0.1" style="vector-effect: non-scaling-stroke" /></g></g></g></g></g></g><g><g /><g><g><g><g /><g style="stroke: #ff0000;stroke-width: 0.6;" transform="matrix(-0.6343271889141084, -0.7730646916037007, 0.7730646916037007, -0.6343271889141084, 11.5, 0.25)"><polyline points="0.0,0.0 4.527434816275657,0.0" style="vector-effect: non-scaling-stroke;" /></g></g><g><g /><g transform="matrix(1.0, 0.0, 0.0, 1.0, 12.0, 0.25)"><g style="stroke: #ff0000;stroke-width: 2.25;fill-opacity: 0;" transform="matrix(1.0, 0.0, 0.0, 1.0, 0.0, 0.0)"><rect height="0.95" style="vector-effect: non-scaling-stroke;" width="0.95" x="-0.475" y="-0.475" /></g></g></g></g><g><g /><g transform="matrix(1.0, 0.0, 0.0, 1.0, 8.628125, -3.25)"><g style="fill: #ff0000;stroke: black;stroke-width: 0.6;" transform="matrix(1.0, 0.0, 0.0, 1.0, 0.0, 0.0)"><circle cx="0.0" cy="0.0" r="0.1" style="vector-effect: non-scaling-stroke" /></g></g></g></g></g></g></g><g><g><g><g><g><g><g /><g /></g><g><g /><g><g><g><g /><g style="stroke: #ff7100;stroke-width: 0.6;" transform="matrix(-0.9404123782004834, 0.3400361141515868, -0.3400361141515868, -0.9404123782004834, 2.5, -2.25)"><polyline points="0.0,0.0 2.9408640976122986,0.0" style="vector-effect: non-scaling-stroke;" /></g></g><g><g /><g transform="matrix(1.0, 0.0, 0.0, 1.0, 3.0, -2.25)"><g style="stroke: #ff7100;stroke-width: 2.25;fill-opacity: 0;" transform="matrix(1.0, 0.0, 0.0, 1.0, 0.0, 0.0)"><rect height="0.95" style="vector-effect: non-scaling-stroke;" width="0.95" x="-0.475" y="-0.475" /></g></g></g></g><g><g /><g transform="matrix(1.0, 0.0, 0.0, 1.0, -0.265625, -1.25)"><g style="fill: #ff7100;stroke: black;stroke-width: 0.6;" transform="matrix(1.0, 0.0, 0.0, 1.0, 0.0, 0.0)"><circle cx="0.0" cy="0.0" r="0.1" style="vector-effect: non-scaling-stroke" /></g></g></g></g></g></g><g /></g><g /></g><g /></g><g /></g></g><g><g><g><g><g><g><g /><g /></g><g><g /><g><g><g><g /><g style="stroke: #ffe300;stroke-width: 0.6;" transform="matrix(-0.9360123886605972, 0.3519670556655597, -0.3519670556655597, -0.9360123886605972, 2.5, -1.25)"><polyline points="0.0,0.0 2.841175001759835,0.0" style="vector-effect: non-scaling-stroke;" /></g></g><g><g /><g transform="matrix(1.0, 0.0, 0.0, 1.0, 3.0, -1.25)"><g style="stroke: #ffe300;stroke-width: 2.25;fill-opacity: 0;" transform="matrix(1.0, 0.0, 0.0, 1.0, 0.0, 0.0)"><rect height="0.95" style="vector-effect: non-scaling-stroke;" width="0.95" x="-0.475" y="-0.475" /></g></g></g></g><g><g /><g transform="matrix(1.0, 0.0, 0.0, 1.0, -0.159375, -0.25)"><g style="fill: #ffe300;stroke: black;stroke-width: 0.6;" transform="matrix(1.0, 0.0, 0.0, 1.0, 0.0, 0.0)"><circle cx="0.0" cy="0.0" r="0.1" style="vector-effect: non-scaling-stroke" /></g></g></g></g></g></g><g><g><g /><g><g><g><g /><g style="stroke: #ffe300;stroke-width: 0.6;" transform="matrix(-1.0, 0.0, 0.0, -1.0, 4.5, -1.25)"><polyline points="0.0,0.0 1.6593749999999998,0.0" style="vector-effect: non-scaling-stroke;" /></g></g><g><g /><g transform="matrix(1.0, 0.0, 0.0, 1.0, 5.0, -1.25)"><g style="stroke: #ffe300;stroke-width: 2.25;fill-opacity: 0;" transform="matrix(1.0, 0.0, 0.0, 1.0, 0.0, 0.0)"><rect height="0.95" style="vector-effect: non-scaling-stroke;" width="0.95" x="-0.475" y="-0.475" /></g></g></g></g><g><g /><g transform="matrix(1.0, 0.0, 0.0, 1.0, 2.840625, -1.25)"><g style="fill: #ffe300;stroke: black;stroke-width: 0.6;" transform="matrix(1.0, 0.0, 0.0, 1.0, 0.0, 0.0)"><circle cx="0.0" cy="0.0" r="0.1" style="vector-effect: non-scaling-stroke" /></g></g></g></g></g><g><g><g><g /><g style="stroke: #ffe300;stroke-width: 0.6;" transform="matrix(-0.8564950626362304, 0.5161552166546025, -0.5161552166546025, -0.8564950626362304, 4.5, -1.25)"><polyline points="0.0,0.0 1.9374017112165973,0.0" style="vector-effect: non-scaling-stroke;" /></g></g><g><g /><g transform="matrix(1.0, 0.0, 0.0, 1.0, 5.0, -1.25)"><g style="stroke: #ffe300;stroke-width: 2.25;fill-opacity: 0;" transform="matrix(1.0, 0.0, 0.0, 1.0, 0.0, 0.0)"><rect height="0.95" style="vector-effect: non-scaling-stroke;" width="0.95" x="-0.475" y="-0.475" /></g></g></g></g><g><g /><g transform="matrix(1.0, 0.0, 0.0, 1.0, 2.840625, -0.25)"><g style="fill: #ffe300;stroke: black;stroke-width: 0.6;" transform="matrix(1.0, 0.0, 0.0, 1.0, 0.0, 0.0)"><circle cx="0.0" cy="0.0" r="0.1" style="vector-effect: non-scaling-stroke" /></g></g></g></g></g></g><g /></g><g /></g><g /></g></g><g><g><g><g><g><g><g /><g /></g><g><g /><g><g><g><g /><g style="stroke: #aaff00;stroke-width: 0.6;" transform="matrix(-0.9311250256511631, 0.3647001324459876, -0.3647001324459876, -0.9311250256511631, 2.5, -0.25)"><polyline points="0.0,0.0 2.7419787135616134,0.0" style="vector-effect: non-scaling-stroke;" /></g></g><g><g /><g transform="matrix(1.0, 0.0, 0.0, 1.0, 3.0, -0.25)"><g style="stroke: #aaff00;stroke-width: 2.25;fill-opacity: 0;" transform="matrix(1.0, 0.0, 0.0, 1.0, 0.0, 0.0)"><rect height="0.95" style="vector-effect: non-scaling-stroke;" width="0.95" x="-0.475" y="-0.475" /></g></g></g></g><g><g /><g transform="matrix(1.0, 0.0, 0.0, 1.0, -0.053125, 0.75)"><g style="fill: #aaff00;stroke: black;stroke-width: 0.6;" transform="matrix(1.0, 0.0, 0.0, 1.0, 0.0, 0.0)"><circle cx="0.0" cy="0.0" r="0.1" style="vector-effect: non-scaling-stroke" /></g></g></g></g></g></g><g /></g><g /></g><g /></g><g /></g></g><g><g><g><g><g><g><g /><g /></g><g><g /><g><g><g><g /><g style="stroke: #39ff00;stroke-width: 0.6;" transform="matrix(-0.9256787229390862, 0.3783105891960502, -0.3783105891960502, -0.9256787229390862, 2.5, 0.75)"><polyline points="0.0,0.0 2.6433307143876266,0.0" style="vector-effect: non-scaling-stroke;" /></g></g><g><g /><g transform="matrix(1.0, 0.0, 0.0, 1.0, 3.0, 0.75)"><g style="stroke: #39ff00;stroke-width: 2.25;fill-opacity: 0;" transform="matrix(1.0, 0.0, 0.0, 1.0, 0.0, 0.0)"><rect height="0.95" style="vector-effect: non-scaling-stroke;" width="0.95" x="-0.475" y="-0.475" /></g></g></g></g><g><g /><g transform="matrix(1.0, 0.0, 0.0, 1.0, 0.053125, 1.75)"><g style="fill: #39ff00;stroke: black;stroke-width: 0.6;" transform="matrix(1.0, 0.0, 0.0, 1.0, 0.0, 0.0)"><circle cx="0.0" cy="0.0" r="0.1" style="vector-effect: non-scaling-stroke" /></g></g></g></g></g></g><g><g><g /><g><g><g><g /><g style="stroke: #39ff00;stroke-width: 0.6;" transform="matrix(-1.0, 0.0, 0.0, -1.0, 4.5, 0.75)"><polyline points="0.0,0.0 1.446875,0.0" style="vector-effect: non-scaling-stroke;" /></g></g><g><g /><g transform="matrix(1.0, 0.0, 0.0, 1.0, 5.0, 0.75)"><g style="stroke: #39ff00;stroke-width: 2.25;fill-opacity: 0;" transform="matrix(1.0, 0.0, 0.0, 1.0, 0.0, 0.0)"><rect height="0.95" style="vector-effect: non-scaling-stroke;" width="0.95" x="-0.475" y="-0.475" /></g></g></g></g><g><g /><g transform="matrix(1.0, 0.0, 0.0, 1.0, 3.053125, 0.75)"><g style="fill: #39ff00;stroke: black;stroke-width: 0.6;" transform="matrix(1.0, 0.0, 0.0, 1.0, 0.0, 0.0)"><circle cx="0.0" cy="0.0" r="0.1" style="vector-effect: non-scaling-stroke" /></g></g></g></g></g><g><g><g><g /><g style="stroke: #39ff00;stroke-width: 0.6;" transform="matrix(-0.8226396806906129, 0.5685630622483723, -0.5685630622483723, -0.8226396806906129, 4.5, 0.75)"><polyline points="0.0,0.0 1.7588198502476027,0.0" style="vector-effect: non-scaling-stroke;" /></g></g><g><g /><g transform="matrix(1.0, 0.0, 0.0, 1.0, 5.0, 0.75)"><g style="stroke: #39ff00;stroke-width: 2.25;fill-opacity: 0;" transform="matrix(1.0, 0.0, 0.0, 1.0, 0.0, 0.0)"><rect height="0.95" style="vector-effect: non-scaling-stroke;" width="0.95" x="-0.475" y="-0.475" /></g></g></g></g><g><g /><g transform="matrix(1.0, 0.0, 0.0, 1.0, 3.053125, 1.75)"><g style="fill: #39ff00;stroke: black;stroke-width: 0.6;" transform="matrix(1.0, 0.0, 0.0, 1.0, 0.0, 0.0)"><circle cx="0.0" cy="0.0" r="0.1" style="vector-effect: non-scaling-stroke" /></g></g></g></g></g></g><g /></g><g /></g><g /></g></g><g><g><g><g><g><g><g /><g /></g><g><g /><g><g><g><g /><g style="stroke: #00ff39;stroke-width: 0.6;" transform="matrix(-0.9195889769774345, 0.3928818059182627, -0.3928818059182627, -0.9195889769774345, 2.5, 1.75)"><polyline points="0.0,0.0 2.5452947551560707,0.0" style="vector-effect: non-scaling-stroke;" /></g></g><g><g /><g transform="matrix(1.0, 0.0, 0.0, 1.0, 3.0, 1.75)"><g style="stroke: #00ff39;stroke-width: 2.25;fill-opacity: 0;" transform="matrix(1.0, 0.0, 0.0, 1.0, 0.0, 0.0)"><rect height="0.95" style="vector-effect: non-scaling-stroke;" width="0.95" x="-0.475" y="-0.475" /></g></g></g></g><g><g /><g transform="matrix(1.0, 0.0, 0.0, 1.0, 0.159375, 2.75)"><g style="fill: #00ff39;stroke: black;stroke-width: 0.6;" transform="matrix(1.0, 0.0, 0.0, 1.0, 0.0, 0.0)"><circle cx="0.0" cy="0.0" r="0.1" style="vector-effect: non-scaling-stroke" /></g></g></g></g></g></g><g /></g><g /></g><g /></g><g /></g></g><g><g><g><g><g><g><g /><g /></g><g /></g><g /></g><g /></g><g /></g><g /></g></g><g><g><g><g><g><g><g /><g /></g><g /></g><g /></g><g /></g><g /></g><g /></g></g></g><g transform="matrix(1.0, 0.0, 0.0, 1.0, -0.0, -5.0001)"><g><g><g style="stroke: black;stroke-width: 1.5;" transform="matrix(1.0, 0.0, 0.0, 1.0, 0.0, 0.0)"><g /></g><g transform="matrix(1.0, 0.0, 0.0, 1.0, 0.0, 0.25)"><g style="fill: #000000;stroke: black;stroke-width: 0.0;" transform="matrix(1.0, 0.0, 0.0, 1.0, 0.0, 0.0)"><text style="text-align:center; text-anchor:middle; dominant-baseline:middle;font-family:sans-serif; font-weight: bold;font-size:0.5px;vector-effect: non-scaling-stroke;" transform="translate(-5e-05, 0)">Block 0 0</text></g></g></g><g transform="matrix(1.0, 0.0, 0.0, 1.0, 0.0, 0.5001)"><g style="stroke: black;stroke-width: 1.5;" transform="matrix(1.0, 0.0, 0.0, 1.0, 0.0, 0.0)"><g /></g></g></g></g></g></g></g></g><g transform="matrix(1.0, 0.0, 0.0, 1.0, 14.0, 0.0)"><g style="stroke: black;stroke-width: 1.5;" transform="matrix(1.0, 0.0, 0.0, 1.0, 0.0, 0.0)"><g /></g></g></g></g><g /></g><g style="stroke: #808080;stroke-width: 1.5;fill-opacity: 0.0;" transform="matrix(1.0, 0.0, 0.0, 1.0, 0.0, 0.0)"><rect height="11.40012" rx="0.5" ry="0.5" style="vector-effect: non-scaling-stroke;" width="18.0" x="-9.0" y="-5.70006" /></g></g><g /></g></g></g></g></g></g><g /></g></g></g></g><g /></g></g></g></g></svg>