<?xml version="1.0" encoding="utf-8" ?>
<svg baseProfile="full" height="1699.5127600000003" version="1.1" width="1089" xmlns="http://www.w3.org/2000/svg" xmlns:ev="http://www.w3.org/2001/xml-events" xmlns:xlink="http://www.w3.org/1999/xlink"><defs><marker id="arrow" markerHeight="3.5" markerWidth="5" orient="auto" refX="5.0" refY="1.7"><polygon points="0,0 5,1.75 0,3.5" /></marker></defs><g style="fill:white;"><g transform="matrix(1.0, 0.0, 0.0, 1.0, 544.4999999999999, 849.75638)"><g transform="matrix(47.61904761904761, 0.0, 0.0, 47.61904761904761, 0.0, 0.0)"><g><g transform="matrix(1.0, 0.0, 0.0, 1.0, -0.0, -0.0)"><g><g style="fill: #ffffff;stroke: black;stroke-width: 1.5;" transform="matrix(1.0, 0.0, 0.0, 1.0, 0.0, 0.0)"><rect height="33.99025520000001" style="vector-effect: non-scaling-stroke;" width="21.78" x="-10.89" y="-16.995127600000004" /></g><g transform="matrix(1.0, 0.0, 0.0, 1.0, -0.0, -16.1701276)"><g><g><g><g><g><g><g style="stroke: black;stroke-width: 1.5;" transform="matrix(1.0, 0.0, 0.0, 1.0, 0.0, 0.0)"><g /></g><g transform="matrix(1.0, 0.0, 0.0, 1.0, 0.0, 0.75)"><g style="stroke: black;stroke-width: 1.5;" transform="matrix(1.0, 0.0, 0.0, 1.0, 0.0, 0.0)"><text style="text-align:center; text-anchor:middle; dominant-baseline:middle;font-family:sans-serif; font-weight: bold;font-size:1px;vector-effect: non-scaling-stroke;" transform="translate(-5e-05, 0)">Dot</text></g></g></g><g transform="matrix(1.0, 0.0, 0.0, 1.0, 0.0, 1.2501)"><g style="stroke: black;stroke-width: 1.5;" transform="matrix(1.0, 0.0, 0.0, 1.0, 0.0, 0.0)"><g /></g></g></g><g transform="matrix(1.0, 0.0, 0.0, 1.0, 0.0, 2.2500999999999998)"><g transform="matrix(1.0, 0.0, 0.0, 1.0, -3.8500000000000005, -0.0)"><g><g><g><g><g><g><g><g><g /><g transform="matrix(1.0, 0.0, 0.0, 1.0, 0.0, 0.0)"><g><g style="fill: #ff0000;stroke: black;stroke-width: 1.5;fill-opacity: 0.7;" transform="matrix(1.0, 0.0, 0.0, 1.0, 0.0, 0.0)"><circle cx="0.0" cy="0.0" r="0.5" style="vector-effect: non-scaling-stroke" /></g><g style="stroke: black;stroke-width: 1.5;" transform="matrix(0.0008333333333333334, 0.0, 0.0, 0.0008333333333333334, 0.0, 0.0)"><image transform="translate(-600.0, -600.0)" xlink:href="https://raw.githubusercontent.com/minitorch/diagrams/main/robot.png" /></g></g></g></g><g transform="matrix(1.0, 0.0, 0.0, 1.0, 1.1, 0.0)"><g><g style="fill: #ff7100;stroke: black;stroke-width: 1.5;fill-opacity: 0.7;" transform="matrix(1.0, 0.0, 0.0, 1.0, 0.0, 0.0)"><circle cx="0.0" cy="0.0" r="0.5" style="vector-effect: non-scaling-stroke" /></g><g style="stroke: black;stroke-width: 1.5;" transform="matrix(0.0008333333333333334, 0.0, 0.0, 0.0008333333333333334, 0.0, 0.0)"><image transform="translate(-600.0, -600.0)" xlink:href="https://raw.githubusercontent.com/minitorch/diagrams/main/robot.png" /></g></g></g></g><g transform="matrix(1.0, 0.0, 0.0, 1.0, 2.2, 0.0)"><g><g style="fill: #ffe300;stroke: black;stroke-width: 1.5;fill-opacity: 0.7;" transform="matrix(1.0, 0.0, 0.0, 1.0, 0.0, 0.0)"><circle cx="0.0" cy="0.0" r="0.5" style="vector-effect: non-scaling-stroke" /></g><g style="stroke: black;stroke-width: 1.5;" transform="matrix(0.0008333333333333334, 0.0, 0.0, 0.0008333333333333334, 0.0, 0.0)"><image transform="translate(-600.0, -600.0)" xlink:href="https://raw.githubusercontent.com/minitorch/diagrams/main/robot.png" /></g></g></g></g><g transform="matrix(1.0, 0.0, 0.0, 1.0, 3.3000000000000003, 0.0)"><g><g style="fill: #aaff00;stroke: black;stroke-width: 1.5;fill-opacity: 0.7;" transform="matrix(1.0, 0.0, 0.0, 1.0, 0.0, 0.0)"><circle cx="0.0" cy="0.0" r="0.5" style="vector-effect: non-scaling-stroke" /></g><g style="stroke: black;stroke-width: 1.5;" transform="matrix(0.0008333333333333334, 0.0, 0.0, 0.0008333333333333334, 0.0, 0.0)"><image transform="translate(-600.0, -600.0)" xlink:href="https://raw.githubusercontent.com/minitorch/diagrams/main/robot.png" /></g></g></g></g><g transform="matrix(1.0, 0.0, 0.0, 1.0, 4.4, 0.0)"><g><g style="fill: #39ff00;stroke: black;stroke-width: 1.5;fill-opacity: 0.7;" transform="matrix(1.0, 0.0, 0.0, 1.0, 0.0, 0.0)"><circle cx="0.0" cy="0.0" r="0.5" style="vector-effect: non-scaling-stroke" /></g><g style="stroke: black;stroke-width: 1.5;" transform="matrix(0.0008333333333333334, 0.0, 0.0, 0.0008333333333333334, 0.0, 0.0)"><image transform="translate(-600.0, -600.0)" xlink:href="https://raw.githubusercontent.com/minitorch/diagrams/main/robot.png" /></g></g></g></g><g transform="matrix(1.0, 0.0, 0.0, 1.0, 5.5, 0.0)"><g><g style="fill: #00ff39;stroke: black;stroke-width: 1.5;fill-opacity: 0.7;" transform="matrix(1.0, 0.0, 0.0, 1.0, 0.0, 0.0)"><circle cx="0.0" cy="0.0" r="0.5" style="vector-effect: non-scaling-stroke" /></g><g style="stroke: black;stroke-width: 1.5;" transform="matrix(0.0008333333333333334, 0.0, 0.0, 0.0008333333333333334, 0.0, 0.0)"><image transform="translate(-600.0, -600.0)" xlink:href="https://raw.githubusercontent.com/minitorch/diagrams/main/robot.png" /></g></g></g></g><g transform="matrix(1.0, 0.0, 0.0, 1.0, 6.6000000000000005, 0.0)"><g><g style="fill: #00ffaa;stroke: black;stroke-width: 1.5;fill-opacity: 0.7;" transform="matrix(1.0, 0.0, 0.0, 1.0, 0.0, 0.0)"><circle cx="0.0" cy="0.0" r="0.5" style="vector-effect: non-scaling-stroke" /></g><g style="stroke: black;stroke-width: 1.5;" transform="matrix(0.0008333333333333334, 0.0, 0.0, 0.0008333333333333334, 0.0, 0.0)"><image transform="translate(-600.0, -600.0)" xlink:href="https://raw.githubusercontent.com/minitorch/diagrams/main/robot.png" /></g></g></g></g><g transform="matrix(1.0, 0.0, 0.0, 1.0, 7.700000000000001, 0.0)"><g><g style="fill: #00e3ff;stroke: black;stroke-width: 1.5;fill-opacity: 0.7;" transform="matrix(1.0, 0.0, 0.0, 1.0, 0.0, 0.0)"><circle cx="0.0" cy="0.0" r="0.5" style="vector-effect: non-scaling-stroke" /></g><g style="stroke: black;stroke-width: 1.5;" transform="matrix(0.0008333333333333334, 0.0, 0.0, 0.0008333333333333334, 0.0, 0.0)"><image transform="translate(-600.0, -600.0)" xlink:href="https://raw.githubusercontent.com/minitorch/diagrams/main/robot.png" /></g></g></g></g></g></g></g><g transform="matrix(1.0, 0.0, 0.0, 1.0, 0.0, 3.2500999999999998)"><g style="stroke: black;stroke-width: 1.5;" transform="matrix(1.0, 0.0, 0.0, 1.0, 0.0, 0.0)"><g /></g></g></g><g transform="matrix(1.0, 0.0, 0.0, 1.0, 0.0, 16.950166000000003)"><g transform="matrix(1.0, 0.0, 0.0, 1.0, -0.0, -0.0)"><g><g /><g transform="matrix(1.0, 0.0, 0.0, 1.0, 0.0, 0.0)"><g><g><g><g transform="matrix(1.0, 0.0, 0.0, 1.0, -7.0, -0.0)"><g><g><g style="stroke: black;stroke-width: 1.5;" transform="matrix(1.0, 0.0, 0.0, 1.0, 0.0, 0.0)"><g /></g><g transform="matrix(1.0, 0.0, 0.0, 1.0, 7.0, 0.0)"><g transform="matrix(1.0, 0.0, 0.0, 1.0, -0.0, 0.5000499999999999)"><g><g transform="matrix(1.0, 0.0, 0.0, 1.0, -6.0, -0.0)"><g><g><g><g><g><g><g><g><g><g><g><g><g transform="matrix(1.0, 0.0, 0.0, 1.0, -0.0, -5.0)"><g><g><g><g transform="matrix(1.0, 0.0, 0.0, 1.0, -0.0, -3.5)"><g><g><g><g><g><g><g><g><g /><g><g style="stroke: black;stroke-width: 0.75;" transform="matrix(1.0, 0.0, 0.0, 1.0, 0.0, 0.0)"><rect height="1" style="vector-effect: non-scaling-stroke;" width="1" x="-0.5" y="-0.5" /></g></g></g><g><g style="stroke: black;stroke-width: 0.75;" transform="matrix(1.0, 0.0, 0.0, 1.0, 0.0, 1.0)"><rect height="1" style="vector-effect: non-scaling-stroke;" width="1" x="-0.5" y="-0.5" /></g></g></g><g><g style="stroke: black;stroke-width: 0.75;" transform="matrix(1.0, 0.0, 0.0, 1.0, 0.0, 2.0)"><rect height="1" style="vector-effect: non-scaling-stroke;" width="1" x="-0.5" y="-0.5" /></g></g></g><g><g style="stroke: black;stroke-width: 0.75;" transform="matrix(1.0, 0.0, 0.0, 1.0, 0.0, 3.0)"><rect height="1" style="vector-effect: non-scaling-stroke;" width="1" x="-0.5" y="-0.5" /></g></g></g><g><g style="stroke: black;stroke-width: 0.75;" transform="matrix(1.0, 0.0, 0.0, 1.0, 0.0, 4.0)"><rect height="1" style="vector-effect: non-scaling-stroke;" width="1" x="-0.5" y="-0.5" /></g></g></g><g><g style="stroke: black;stroke-width: 0.75;" transform="matrix(1.0, 0.0, 0.0, 1.0, 0.0, 5.0)"><rect height="1" style="vector-effect: non-scaling-stroke;" width="1" x="-0.5" y="-0.5" /></g></g></g><g><g style="stroke: black;stroke-width: 0.75;" transform="matrix(1.0, 0.0, 0.0, 1.0, 0.0, 6.0)"><rect height="1" style="vector-effect: non-scaling-stroke;" width="1" x="-0.5" y="-0.5" /></g></g></g><g><g style="stroke: black;stroke-width: 0.75;" transform="matrix(1.0, 0.0, 0.0, 1.0, 0.0, 7.0)"><rect height="1" style="vector-effect: non-scaling-stroke;" width="1" x="-0.5" y="-0.5" /></g></g></g></g><g transform="matrix(1.0, 0.0, 0.0, 1.0, -0.0, -4.25)"><g><g style="fill: #000000;stroke: black;stroke-width: 0.0;" transform="matrix(1.0, 0.0, 0.0, 1.0, 0.0, 0.0)"><text style="text-align:center; text-anchor:middle; dominant-baseline:middle;font-family:sans-serif; font-weight: bold;font-size:0.5px;vector-effect: non-scaling-stroke;" transform="translate(-5e-05, 0)">a</text></g><g style="stroke: black;stroke-width: 1.5;" transform="matrix(1.0, 0.0, 0.0, 1.0, 0.0, 0.0)"><g /></g></g></g></g><g transform="matrix(1.0, 0.0, 0.0, 1.0, 0.0, 5.0)"><g style="stroke: black;stroke-width: 1.5;" transform="matrix(0.0, -1.0, 1.0, 0.0, 0.0, 0.0)"><g /></g></g></g><g transform="matrix(1.0, 0.0, 0.0, 1.0, 0.0, 10.5)"><g><g transform="matrix(1.0, 0.0, 0.0, 1.0, -0.0, -3.5)"><g><g><g><g><g><g><g><g><g /><g><g style="stroke: black;stroke-width: 0.75;" transform="matrix(1.0, 0.0, 0.0, 1.0, 0.0, 0.0)"><rect height="1" style="vector-effect: non-scaling-stroke;" width="1" x="-0.5" y="-0.5" /></g></g></g><g><g style="stroke: black;stroke-width: 0.75;" transform="matrix(1.0, 0.0, 0.0, 1.0, 0.0, 1.0)"><rect height="1" style="vector-effect: non-scaling-stroke;" width="1" x="-0.5" y="-0.5" /></g></g></g><g><g style="stroke: black;stroke-width: 0.75;" transform="matrix(1.0, 0.0, 0.0, 1.0, 0.0, 2.0)"><rect height="1" style="vector-effect: non-scaling-stroke;" width="1" x="-0.5" y="-0.5" /></g></g></g><g><g style="stroke: black;stroke-width: 0.75;" transform="matrix(1.0, 0.0, 0.0, 1.0, 0.0, 3.0)"><rect height="1" style="vector-effect: non-scaling-stroke;" width="1" x="-0.5" y="-0.5" /></g></g></g><g><g style="stroke: black;stroke-width: 0.75;" transform="matrix(1.0, 0.0, 0.0, 1.0, 0.0, 4.0)"><rect height="1" style="vector-effect: non-scaling-stroke;" width="1" x="-0.5" y="-0.5" /></g></g></g><g><g style="stroke: black;stroke-width: 0.75;" transform="matrix(1.0, 0.0, 0.0, 1.0, 0.0, 5.0)"><rect height="1" style="vector-effect: non-scaling-stroke;" width="1" x="-0.5" y="-0.5" /></g></g></g><g><g style="stroke: black;stroke-width: 0.75;" transform="matrix(1.0, 0.0, 0.0, 1.0, 0.0, 6.0)"><rect height="1" style="vector-effect: non-scaling-stroke;" width="1" x="-0.5" y="-0.5" /></g></g></g><g><g style="stroke: black;stroke-width: 0.75;" transform="matrix(1.0, 0.0, 0.0, 1.0, 0.0, 7.0)"><rect height="1" style="vector-effect: non-scaling-stroke;" width="1" x="-0.5" y="-0.5" /></g></g></g></g><g transform="matrix(1.0, 0.0, 0.0, 1.0, -0.0, -4.25)"><g><g style="fill: #000000;stroke: black;stroke-width: 0.0;" transform="matrix(1.0, 0.0, 0.0, 1.0, 0.0, 0.0)"><text style="text-align:center; text-anchor:middle; dominant-baseline:middle;font-family:sans-serif; font-weight: bold;font-size:0.5px;vector-effect: non-scaling-stroke;" transform="translate(-5e-05, 0)">b</text></g><g style="stroke: black;stroke-width: 1.5;" transform="matrix(1.0, 0.0, 0.0, 1.0, 0.0, 0.0)"><g /></g></g></g></g></g></g></g><g transform="matrix(1.0, 0.0, 0.0, 1.0, 1.5, 0.0)"><g style="stroke: black;stroke-width: 1.5;" transform="matrix(1.0, 0.0, 0.0, 1.0, 0.0, 0.0)"><g /></g></g></g><g transform="matrix(1.0, 0.0, 0.0, 1.0, 6.0, 0.0)"><g transform="matrix(1.0, 0.0, 0.0, 1.0, -3.0, 0.25)"><g><g><g><g><g><g><g><g transform="matrix(1.0, 0.0, 0.0, 1.0, -0.0, -3.5)"><g><g><g><g><g><g><g><g><g /><g><g style="stroke: black;stroke-width: 0.75;" transform="matrix(1.0, 0.0, 0.0, 1.0, 0.0, 0.0)"><rect height="1" style="vector-effect: non-scaling-stroke;" width="1" x="-0.5" y="-0.5" /></g></g></g><g><g style="stroke: black;stroke-width: 0.75;" transform="matrix(1.0, 0.0, 0.0, 1.0, 0.0, 1.0)"><rect height="1" style="vector-effect: non-scaling-stroke;" width="1" x="-0.5" y="-0.5" /></g></g></g><g><g style="stroke: black;stroke-width: 0.75;" transform="matrix(1.0, 0.0, 0.0, 1.0, 0.0, 2.0)"><rect height="1" style="vector-effect: non-scaling-stroke;" width="1" x="-0.5" y="-0.5" /></g></g></g><g><g style="stroke: black;stroke-width: 0.75;" transform="matrix(1.0, 0.0, 0.0, 1.0, 0.0, 3.0)"><rect height="1" style="vector-effect: non-scaling-stroke;" width="1" x="-0.5" y="-0.5" /></g></g></g><g><g style="stroke: black;stroke-width: 0.75;" transform="matrix(1.0, 0.0, 0.0, 1.0, 0.0, 4.0)"><rect height="1" style="vector-effect: non-scaling-stroke;" width="1" x="-0.5" y="-0.5" /></g></g></g><g><g style="stroke: black;stroke-width: 0.75;" transform="matrix(1.0, 0.0, 0.0, 1.0, 0.0, 5.0)"><rect height="1" style="vector-effect: non-scaling-stroke;" width="1" x="-0.5" y="-0.5" /></g></g></g><g><g style="stroke: black;stroke-width: 0.75;" transform="matrix(1.0, 0.0, 0.0, 1.0, 0.0, 6.0)"><rect height="1" style="vector-effect: non-scaling-stroke;" width="1" x="-0.5" y="-0.5" /></g></g></g><g><g style="stroke: black;stroke-width: 0.75;" transform="matrix(1.0, 0.0, 0.0, 1.0, 0.0, 7.0)"><rect height="1" style="vector-effect: non-scaling-stroke;" width="1" x="-0.5" y="-0.5" /></g></g></g></g><g transform="matrix(1.0, 0.0, 0.0, 1.0, -0.0, -4.25)"><g><g style="fill: #000000;stroke: black;stroke-width: 0.0;" transform="matrix(1.0, 0.0, 0.0, 1.0, 0.0, 0.0)"><text style="text-align:center; text-anchor:middle; dominant-baseline:middle;font-family:sans-serif; font-weight: bold;font-size:0.5px;vector-effect: non-scaling-stroke;" transform="translate(-5e-05, 0)">S0'</text></g><g style="stroke: black;stroke-width: 1.5;" transform="matrix(1.0, 0.0, 0.0, 1.0, 0.0, 0.0)"><g /></g></g></g></g><g transform="matrix(1.0, 0.0, 0.0, 1.0, 1.0, 0.0)"><g style="stroke: black;stroke-width: 1.5;" transform="matrix(1.0, 0.0, 0.0, 1.0, 0.0, 0.0)"><g /></g></g></g><g transform="matrix(1.0, 0.0, 0.0, 1.0, 2.0, 0.0)"><g><g transform="matrix(1.0, 0.0, 0.0, 1.0, -0.0, -3.5)"><g><g><g><g><g><g><g><g><g /><g><g style="stroke: black;stroke-width: 0.75;" transform="matrix(1.0, 0.0, 0.0, 1.0, 0.0, 0.0)"><rect height="1" style="vector-effect: non-scaling-stroke;" width="1" x="-0.5" y="-0.5" /></g></g></g><g><g style="stroke: black;stroke-width: 0.75;" transform="matrix(1.0, 0.0, 0.0, 1.0, 0.0, 1.0)"><rect height="1" style="vector-effect: non-scaling-stroke;" width="1" x="-0.5" y="-0.5" /></g></g></g><g><g style="stroke: black;stroke-width: 0.75;" transform="matrix(1.0, 0.0, 0.0, 1.0, 0.0, 2.0)"><rect height="1" style="vector-effect: non-scaling-stroke;" width="1" x="-0.5" y="-0.5" /></g></g></g><g><g style="stroke: black;stroke-width: 0.75;" transform="matrix(1.0, 0.0, 0.0, 1.0, 0.0, 3.0)"><rect height="1" style="vector-effect: non-scaling-stroke;" width="1" x="-0.5" y="-0.5" /></g></g></g><g><g style="stroke: black;stroke-width: 0.75;" transform="matrix(1.0, 0.0, 0.0, 1.0, 0.0, 4.0)"><rect height="1" style="vector-effect: non-scaling-stroke;" width="1" x="-0.5" y="-0.5" /></g></g></g><g><g style="stroke: black;stroke-width: 0.75;" transform="matrix(1.0, 0.0, 0.0, 1.0, 0.0, 5.0)"><rect height="1" style="vector-effect: non-scaling-stroke;" width="1" x="-0.5" y="-0.5" /></g></g></g><g><g style="stroke: black;stroke-width: 0.75;" transform="matrix(1.0, 0.0, 0.0, 1.0, 0.0, 6.0)"><rect height="1" style="vector-effect: non-scaling-stroke;" width="1" x="-0.5" y="-0.5" /></g></g></g><g><g style="stroke: black;stroke-width: 0.75;" transform="matrix(1.0, 0.0, 0.0, 1.0, 0.0, 7.0)"><rect height="1" style="vector-effect: non-scaling-stroke;" width="1" x="-0.5" y="-0.5" /></g></g></g></g><g transform="matrix(1.0, 0.0, 0.0, 1.0, -0.0, -4.25)"><g><g style="fill: #000000;stroke: black;stroke-width: 0.0;" transform="matrix(1.0, 0.0, 0.0, 1.0, 0.0, 0.0)"><text style="text-align:center; text-anchor:middle; dominant-baseline:middle;font-family:sans-serif; font-weight: bold;font-size:0.5px;vector-effect: non-scaling-stroke;" transform="translate(-5e-05, 0)">S0''</text></g><g style="stroke: black;stroke-width: 1.5;" transform="matrix(1.0, 0.0, 0.0, 1.0, 0.0, 0.0)"><g /></g></g></g></g></g></g><g transform="matrix(1.0, 0.0, 0.0, 1.0, 3.0, 0.0)"><g style="stroke: black;stroke-width: 1.5;" transform="matrix(1.0, 0.0, 0.0, 1.0, 0.0, 0.0)"><g /></g></g></g><g transform="matrix(1.0, 0.0, 0.0, 1.0, 4.0, 0.0)"><g><g transform="matrix(1.0, 0.0, 0.0, 1.0, -0.0, -3.5)"><g><g><g><g><g><g><g><g><g /><g><g style="stroke: black;stroke-width: 0.75;" transform="matrix(1.0, 0.0, 0.0, 1.0, 0.0, 0.0)"><rect height="1" style="vector-effect: non-scaling-stroke;" width="1" x="-0.5" y="-0.5" /></g></g></g><g><g style="stroke: black;stroke-width: 0.75;" transform="matrix(1.0, 0.0, 0.0, 1.0, 0.0, 1.0)"><rect height="1" style="vector-effect: non-scaling-stroke;" width="1" x="-0.5" y="-0.5" /></g></g></g><g><g style="stroke: black;stroke-width: 0.75;" transform="matrix(1.0, 0.0, 0.0, 1.0, 0.0, 2.0)"><rect height="1" style="vector-effect: non-scaling-stroke;" width="1" x="-0.5" y="-0.5" /></g></g></g><g><g style="stroke: black;stroke-width: 0.75;" transform="matrix(1.0, 0.0, 0.0, 1.0, 0.0, 3.0)"><rect height="1" style="vector-effect: non-scaling-stroke;" width="1" x="-0.5" y="-0.5" /></g></g></g><g><g style="stroke: black;stroke-width: 0.75;" transform="matrix(1.0, 0.0, 0.0, 1.0, 0.0, 4.0)"><rect height="1" style="vector-effect: non-scaling-stroke;" width="1" x="-0.5" y="-0.5" /></g></g></g><g><g style="stroke: black;stroke-width: 0.75;" transform="matrix(1.0, 0.0, 0.0, 1.0, 0.0, 5.0)"><rect height="1" style="vector-effect: non-scaling-stroke;" width="1" x="-0.5" y="-0.5" /></g></g></g><g><g style="stroke: black;stroke-width: 0.75;" transform="matrix(1.0, 0.0, 0.0, 1.0, 0.0, 6.0)"><rect height="1" style="vector-effect: non-scaling-stroke;" width="1" x="-0.5" y="-0.5" /></g></g></g><g><g style="stroke: black;stroke-width: 0.75;" transform="matrix(1.0, 0.0, 0.0, 1.0, 0.0, 7.0)"><rect height="1" style="vector-effect: non-scaling-stroke;" width="1" x="-0.5" y="-0.5" /></g></g></g></g><g transform="matrix(1.0, 0.0, 0.0, 1.0, -0.0, -4.25)"><g><g style="fill: #000000;stroke: black;stroke-width: 0.0;" transform="matrix(1.0, 0.0, 0.0, 1.0, 0.0, 0.0)"><text style="text-align:center; text-anchor:middle; dominant-baseline:middle;font-family:sans-serif; font-weight: bold;font-size:0.5px;vector-effect: non-scaling-stroke;" transform="translate(-5e-05, 0)">S0'''</text></g><g style="stroke: black;stroke-width: 1.5;" transform="matrix(1.0, 0.0, 0.0, 1.0, 0.0, 0.0)"><g /></g></g></g></g></g></g><g transform="matrix(1.0, 0.0, 0.0, 1.0, 5.0, 0.0)"><g style="stroke: black;stroke-width: 1.5;" transform="matrix(1.0, 0.0, 0.0, 1.0, 0.0, 0.0)"><g /></g></g></g><g transform="matrix(1.0, 0.0, 0.0, 1.0, 6.0, 0.0)"><g><g transform="matrix(1.0, 0.0, 0.0, 1.0, -0.0, -3.5)"><g><g><g><g><g><g><g><g><g /><g><g style="stroke: black;stroke-width: 0.75;" transform="matrix(1.0, 0.0, 0.0, 1.0, 0.0, 0.0)"><rect height="1" style="vector-effect: non-scaling-stroke;" width="1" x="-0.5" y="-0.5" /></g></g></g><g><g style="stroke: black;stroke-width: 0.75;" transform="matrix(1.0, 0.0, 0.0, 1.0, 0.0, 1.0)"><rect height="1" style="vector-effect: non-scaling-stroke;" width="1" x="-0.5" y="-0.5" /></g></g></g><g><g style="stroke: black;stroke-width: 0.75;" transform="matrix(1.0, 0.0, 0.0, 1.0, 0.0, 2.0)"><rect height="1" style="vector-effect: non-scaling-stroke;" width="1" x="-0.5" y="-0.5" /></g></g></g><g><g style="stroke: black;stroke-width: 0.75;" transform="matrix(1.0, 0.0, 0.0, 1.0, 0.0, 3.0)"><rect height="1" style="vector-effect: non-scaling-stroke;" width="1" x="-0.5" y="-0.5" /></g></g></g><g><g style="stroke: black;stroke-width: 0.75;" transform="matrix(1.0, 0.0, 0.0, 1.0, 0.0, 4.0)"><rect height="1" style="vector-effect: non-scaling-stroke;" width="1" x="-0.5" y="-0.5" /></g></g></g><g><g style="stroke: black;stroke-width: 0.75;" transform="matrix(1.0, 0.0, 0.0, 1.0, 0.0, 5.0)"><rect height="1" style="vector-effect: non-scaling-stroke;" width="1" x="-0.5" y="-0.5" /></g></g></g><g><g style="stroke: black;stroke-width: 0.75;" transform="matrix(1.0, 0.0, 0.0, 1.0, 0.0, 6.0)"><rect height="1" style="vector-effect: non-scaling-stroke;" width="1" x="-0.5" y="-0.5" /></g></g></g><g><g style="stroke: black;stroke-width: 0.75;" transform="matrix(1.0, 0.0, 0.0, 1.0, 0.0, 7.0)"><rect height="1" style="vector-effect: non-scaling-stroke;" width="1" x="-0.5" y="-0.5" /></g></g></g></g><g transform="matrix(1.0, 0.0, 0.0, 1.0, -0.0, -4.25)"><g><g style="fill: #000000;stroke: black;stroke-width: 0.0;" transform="matrix(1.0, 0.0, 0.0, 1.0, 0.0, 0.0)"><text style="text-align:center; text-anchor:middle; dominant-baseline:middle;font-family:sans-serif; font-weight: bold;font-size:0.5px;vector-effect: non-scaling-stroke;" transform="translate(-5e-05, 0)">S0''''</text></g><g style="stroke: black;stroke-width: 1.5;" transform="matrix(1.0, 0.0, 0.0, 1.0, 0.0, 0.0)"><g /></g></g></g></g></g></g></g></g></g><g transform="matrix(1.0, 0.0, 0.0, 1.0, 10.5, 0.0)"><g style="stroke: black;stroke-width: 1.5;" transform="matrix(1.0, 0.0, 0.0, 1.0, 0.0, 0.0)"><g /></g></g></g><g transform="matrix(1.0, 0.0, 0.0, 1.0, 12.0, 0.0)"><g transform="matrix(1.0, 0.0, 0.0, 1.0, -0.0, 0.25)"><g><g transform="matrix(1.0, 0.0, 0.0, 1.0, -0.0, -0.0)"><g><g /><g><g style="stroke: black;stroke-width: 0.75;" transform="matrix(1.0, 0.0, 0.0, 1.0, 0.0, 0.0)"><rect height="1" style="vector-effect: non-scaling-stroke;" width="1" x="-0.5" y="-0.5" /></g></g></g></g><g transform="matrix(1.0, 0.0, 0.0, 1.0, -0.0, -0.75)"><g><g style="fill: #000000;stroke: black;stroke-width: 0.0;" transform="matrix(1.0, 0.0, 0.0, 1.0, 0.0, 0.0)"><text style="text-align:center; text-anchor:middle; dominant-baseline:middle;font-family:sans-serif; font-weight: bold;font-size:0.5px;vector-effect: non-scaling-stroke;" transform="translate(-5e-05, 0)">out</text></g><g style="stroke: black;stroke-width: 1.5;" transform="matrix(1.0, 0.0, 0.0, 1.0, 0.0, 0.0)"><g /></g></g></g></g></g></g></g><g><g><g><g><g><g><g><g /><g /></g><g /></g><g><g><g /><g><g><g><g /><g style="stroke: #ff0000;stroke-width: 0.6;" transform="matrix(-0.4799128359003003, -0.8773161744423338, 0.8773161744423338, -0.4799128359003003, 2.5, -3.25)"><polyline points="0.0,0.0 5.984159591423428,0.0" style="vector-effect: non-scaling-stroke;" /></g></g><g><g /><g transform="matrix(1.0, 0.0, 0.0, 1.0, 3.0, -3.25)"><g style="stroke: #ff0000;stroke-width: 2.25;fill-opacity: 0;" transform="matrix(1.0, 0.0, 0.0, 1.0, 0.0, 0.0)"><rect height="0.95" style="vector-effect: non-scaling-stroke;" width="0.95" x="-0.475" y="-0.475" /></g></g></g></g><g><g /><g transform="matrix(1.0, 0.0, 0.0, 1.0, -0.371875, -8.5)"><g style="fill: #ff0000;stroke: black;stroke-width: 0.6;" transform="matrix(1.0, 0.0, 0.0, 1.0, 0.0, 0.0)"><circle cx="0.0" cy="0.0" r="0.1" style="vector-effect: non-scaling-stroke" /></g></g></g></g></g><g><g><g><g /><g style="stroke: #ff0000;stroke-width: 0.6;" transform="matrix(-0.47991283590030015, 0.8773161744423339, -0.8773161744423339, -0.47991283590030015, 2.5, -3.25)"><polyline points="0.0,0.0 5.984159591423428,0.0" style="vector-effect: non-scaling-stroke;" /></g></g><g><g /><g transform="matrix(1.0, 0.0, 0.0, 1.0, 3.0, -3.25)"><g style="stroke: #ff0000;stroke-width: 2.25;fill-opacity: 0;" transform="matrix(1.0, 0.0, 0.0, 1.0, 0.0, 0.0)"><rect height="0.95" style="vector-effect: non-scaling-stroke;" width="0.95" x="-0.475" y="-0.475" /></g></g></g></g><g><g /><g transform="matrix(1.0, 0.0, 0.0, 1.0, -0.371875, 2.0)"><g style="fill: #ff0000;stroke: black;stroke-width: 0.6;" transform="matrix(1.0, 0.0, 0.0, 1.0, 0.0, 0.0)"><circle cx="0.0" cy="0.0" r="0.1" style="vector-effect: non-scaling-stroke" /></g></g></g></g></g></g><g><g><g /><g><g><g><g /><g style="stroke: #ff0000;stroke-width: 0.6;" transform="matrix(-1.0, 0.0, 0.0, -1.0, 4.5, -3.25)"><polyline points="0.0,0.0 1.8718750000000002,0.0" style="vector-effect: non-scaling-stroke;" /></g></g><g><g /><g transform="matrix(1.0, 0.0, 0.0, 1.0, 5.0, -3.25)"><g style="stroke: #ff0000;stroke-width: 2.25;fill-opacity: 0;" transform="matrix(1.0, 0.0, 0.0, 1.0, 0.0, 0.0)"><rect height="0.95" style="vector-effect: non-scaling-stroke;" width="0.95" x="-0.475" y="-0.475" /></g></g></g></g><g><g /><g transform="matrix(1.0, 0.0, 0.0, 1.0, 2.628125, -3.25)"><g style="fill: #ff0000;stroke: black;stroke-width: 0.6;" transform="matrix(1.0, 0.0, 0.0, 1.0, 0.0, 0.0)"><circle cx="0.0" cy="0.0" r="0.1" style="vector-effect: non-scaling-stroke" /></g></g></g></g></g><g><g><g><g /><g style="stroke: #ff0000;stroke-width: 0.6;" transform="matrix(-0.42385365737014824, 0.9057306868677626, -0.9057306868677626, -0.42385365737014824, 4.5, -3.25)"><polyline points="0.0,0.0 4.416323812360797,0.0" style="vector-effect: non-scaling-stroke;" /></g></g><g><g /><g transform="matrix(1.0, 0.0, 0.0, 1.0, 5.0, -3.25)"><g style="stroke: #ff0000;stroke-width: 2.25;fill-opacity: 0;" transform="matrix(1.0, 0.0, 0.0, 1.0, 0.0, 0.0)"><rect height="0.95" style="vector-effect: non-scaling-stroke;" width="0.95" x="-0.475" y="-0.475" /></g></g></g></g><g><g /><g transform="matrix(1.0, 0.0, 0.0, 1.0, 2.628125, 0.75)"><g style="fill: #ff0000;stroke: black;stroke-width: 0.6;" transform="matrix(1.0, 0.0, 0.0, 1.0, 0.0, 0.0)"><circle cx="0.0" cy="0.0" r="0.1" style="vector-effect: non-scaling-stroke" /></g></g></g></g></g></g><g><g><g /><g><g><g><g /><g style="stroke: #ff0000;stroke-width: 0.6;" transform="matrix(-1.0, 0.0, 0.0, -1.0, 6.5, -3.25)"><polyline points="0.0,0.0 1.8718750000000002,0.0" style="vector-effect: non-scaling-stroke;" /></g></g><g><g /><g transform="matrix(1.0, 0.0, 0.0, 1.0, 7.0, -3.25)"><g style="stroke: #ff0000;stroke-width: 2.25;fill-opacity: 0;" transform="matrix(1.0, 0.0, 0.0, 1.0, 0.0, 0.0)"><rect height="0.95" style="vector-effect: non-scaling-stroke;" width="0.95" x="-0.475" y="-0.475" /></g></g></g></g><g><g /><g transform="matrix(1.0, 0.0, 0.0, 1.0, 4.628125, -3.25)"><g style="fill: #ff0000;stroke: black;stroke-width: 0.6;" transform="matrix(1.0, 0.0, 0.0, 1.0, 0.0, 0.0)"><circle cx="0.0" cy="0.0" r="0.1" style="vector-effect: non-scaling-stroke" /></g></g></g></g></g><g><g><g><g /><g style="stroke: #ff0000;stroke-width: 0.6;" transform="matrix(-0.6833337351284202, 0.7301061610721019, -0.7301061610721019, -0.6833337351284202, 6.5, -3.25)"><polyline points="0.0,0.0 2.7393276575877157,0.0" style="vector-effect: non-scaling-stroke;" /></g></g><g><g /><g transform="matrix(1.0, 0.0, 0.0, 1.0, 7.0, -3.25)"><g style="stroke: #ff0000;stroke-width: 2.25;fill-opacity: 0;" transform="matrix(1.0, 0.0, 0.0, 1.0, 0.0, 0.0)"><rect height="0.95" style="vector-effect: non-scaling-stroke;" width="0.95" x="-0.475" y="-0.475" /></g></g></g></g><g><g /><g transform="matrix(1.0, 0.0, 0.0, 1.0, 4.628125, -1.25)"><g style="fill: #ff0000;stroke: black;stroke-width: 0.6;" transform="matrix(1.0, 0.0, 0.0, 1.0, 0.0, 0.0)"><circle cx="0.0" cy="0.0" r="0.1" style="vector-effect: non-scaling-stroke" /></g></g></g></g></g></g><g><g><g /><g><g><g><g /><g style="stroke: #ff0000;stroke-width: 0.6;" transform="matrix(-1.0, 0.0, 0.0, -1.0, 8.5, -3.25)"><polyline points="0.0,0.0 1.8718750000000002,0.0" style="vector-effect: non-scaling-stroke;" /></g></g><g><g /><g transform="matrix(1.0, 0.0, 0.0, 1.0, 9.0, -3.25)"><g style="stroke: #ff0000;stroke-width: 2.25;fill-opacity: 0;" transform="matrix(1.0, 0.0, 0.0, 1.0, 0.0, 0.0)"><rect height="0.95" style="vector-effect: non-scaling-stroke;" width="0.95" x="-0.475" y="-0.475" /></g></g></g></g><g><g /><g transform="matrix(1.0, 0.0, 0.0, 1.0, 6.628125, -3.25)"><g style="fill: #ff0000;stroke: black;stroke-width: 0.6;" transform="matrix(1.0, 0.0, 0.0, 1.0, 0.0, 0.0)"><circle cx="0.0" cy="0.0" r="0.1" style="vector-effect: non-scaling-stroke" /></g></g></g></g></g><g><g><g><g /><g style="stroke: #ff0000;stroke-width: 0.6;" transform="matrix(-0.8820266396909295, 0.47119954040249984, -0.47119954040249984, -0.8820266396909295, 8.5, -3.25)"><polyline points="0.0,0.0 2.122243156573959,0.0" style="vector-effect: non-scaling-stroke;" /></g></g><g><g /><g transform="matrix(1.0, 0.0, 0.0, 1.0, 9.0, -3.25)"><g style="stroke: #ff0000;stroke-width: 2.25;fill-opacity: 0;" transform="matrix(1.0, 0.0, 0.0, 1.0, 0.0, 0.0)"><rect height="0.95" style="vector-effect: non-scaling-stroke;" width="0.95" x="-0.475" y="-0.475" /></g></g></g></g><g><g /><g transform="matrix(1.0, 0.0, 0.0, 1.0, 6.628125, -2.25)"><g style="fill: #ff0000;stroke: black;stroke-width: 0.6;" transform="matrix(1.0, 0.0, 0.0, 1.0, 0.0, 0.0)"><circle cx="0.0" cy="0.0" r="0.1" style="vector-effect: non-scaling-stroke" /></g></g></g></g></g></g><g><g /><g><g><g><g /><g style="stroke: #ff0000;stroke-width: 0.6;" transform="matrix(-0.6343271889141084, -0.7730646916037007, 0.7730646916037007, -0.6343271889141084, 11.5, 0.25)"><polyline points="0.0,0.0 4.527434816275657,0.0" style="vector-effect: non-scaling-stroke;" /></g></g><g><g /><g transform="matrix(1.0, 0.0, 0.0, 1.0, 12.0, 0.25)"><g style="stroke: #ff0000;stroke-width: 2.25;fill-opacity: 0;" transform="matrix(1.0, 0.0, 0.0, 1.0, 0.0, 0.0)"><rect height="0.95" style="vector-effect: non-scaling-stroke;" width="0.95" x="-0.475" y="-0.475" /></g></g></g></g><g><g /><g transform="matrix(1.0, 0.0, 0.0, 1.0, 8.628125, -3.25)"><g style="fill: #ff0000;stroke: black;stroke-width: 0.6;" transform="matrix(1.0, 0.0, 0.0, 1.0, 0.0, 0.0)"><circle cx="0.0" cy="0.0" r="0.1" style="vector-effect: non-scaling-stroke" /></g></g></g></g></g></g></g><g><g><g><g><g><g><g><g /><g /></g><g /></g><g><g><g /><g><g><g><g /><g style="stroke: #ff7100;stroke-width: 0.6;" transform="matrix(-0.4660719782646851, -0.8847468061973679, 0.8847468061973679, -0.4660719782646851, 2.5, -2.25)"><polyline points="0.0,0.0 5.933901047424452,0.0" style="vector-effect: non-scaling-stroke;" /></g></g><g><g /><g transform="matrix(1.0, 0.0, 0.0, 1.0, 3.0, -2.25)"><g style="stroke: #ff7100;stroke-width: 2.25;fill-opacity: 0;" transform="matrix(1.0, 0.0, 0.0, 1.0, 0.0, 0.0)"><rect height="0.95" style="vector-effect: non-scaling-stroke;" width="0.95" x="-0.475" y="-0.475" /></g></g></g></g><g><g /><g transform="matrix(1.0, 0.0, 0.0, 1.0, -0.265625, -7.5)"><g style="fill: #ff7100;stroke: black;stroke-width: 0.6;" transform="matrix(1.0, 0.0, 0.0, 1.0, 0.0, 0.0)"><circle cx="0.0" cy="0.0" r="0.1" style="vector-effect: non-scaling-stroke" /></g></g></g></g></g><g><g><g><g /><g style="stroke: #ff7100;stroke-width: 0.6;" transform="matrix(-0.4660719782646853, 0.8847468061973678, -0.8847468061973678, -0.4660719782646853, 2.5, -2.25)"><polyline points="0.0,0.0 5.933901047424452,0.0" style="vector-effect: non-scaling-stroke;" /></g></g><g><g /><g transform="matrix(1.0, 0.0, 0.0, 1.0, 3.0, -2.25)"><g style="stroke: #ff7100;stroke-width: 2.25;fill-opacity: 0;" transform="matrix(1.0, 0.0, 0.0, 1.0, 0.0, 0.0)"><rect height="0.95" style="vector-effect: non-scaling-stroke;" width="0.95" x="-0.475" y="-0.475" /></g></g></g></g><g><g /><g transform="matrix(1.0, 0.0, 0.0, 1.0, -0.265625, 3.0)"><g style="fill: #ff7100;stroke: black;stroke-width: 0.6;" transform="matrix(1.0, 0.0, 0.0, 1.0, 0.0, 0.0)"><circle cx="0.0" cy="0.0" r="0.1" style="vector-effect: non-scaling-stroke" /></g></g></g></g></g></g><g><g><g /><g><g><g><g /><g style="stroke: #ff7100;stroke-width: 0.6;" transform="matrix(-1.0, 0.0, 0.0, -1.0, 4.5, -2.25)"><polyline points="0.0,0.0 1.765625,0.0" style="vector-effect: non-scaling-stroke;" /></g></g><g><g /><g transform="matrix(1.0, 0.0, 0.0, 1.0, 5.0, -2.25)"><g style="stroke: #ff7100;stroke-width: 2.25;fill-opacity: 0;" transform="matrix(1.0, 0.0, 0.0, 1.0, 0.0, 0.0)"><rect height="0.95" style="vector-effect: non-scaling-stroke;" width="0.95" x="-0.475" y="-0.475" /></g></g></g></g><g><g /><g transform="matrix(1.0, 0.0, 0.0, 1.0, 2.734375, -2.25)"><g style="fill: #ff7100;stroke: black;stroke-width: 0.6;" transform="matrix(1.0, 0.0, 0.0, 1.0, 0.0, 0.0)"><circle cx="0.0" cy="0.0" r="0.1" style="vector-effect: non-scaling-stroke" /></g></g></g></g></g><g><g><g><g /><g style="stroke: #ff7100;stroke-width: 0.6;" transform="matrix(-0.4038161617584002, 0.9148401540721273, -0.9148401540721273, -0.4038161617584002, 4.5, -2.25)"><polyline points="0.0,0.0 4.372348526893185,0.0" style="vector-effect: non-scaling-stroke;" /></g></g><g><g /><g transform="matrix(1.0, 0.0, 0.0, 1.0, 5.0, -2.25)"><g style="stroke: #ff7100;stroke-width: 2.25;fill-opacity: 0;" transform="matrix(1.0, 0.0, 0.0, 1.0, 0.0, 0.0)"><rect height="0.95" style="vector-effect: non-scaling-stroke;" width="0.95" x="-0.475" y="-0.475" /></g></g></g></g><g><g /><g transform="matrix(1.0, 0.0, 0.0, 1.0, 2.734375, 1.75)"><g style="fill: #ff7100;stroke: black;stroke-width: 0.6;" transform="matrix(1.0, 0.0, 0.0, 1.0, 0.0, 0.0)"><circle cx="0.0" cy="0.0" r="0.1" style="vector-effect: non-scaling-stroke" /></g></g></g></g></g></g><g><g><g /><g><g><g><g /><g style="stroke: #ff7100;stroke-width: 0.6;" transform="matrix(-1.0, 0.0, 0.0, -1.0, 6.5, -2.25)"><polyline points="0.0,0.0 1.765625,0.0" style="vector-effect: non-scaling-stroke;" /></g></g><g><g /><g transform="matrix(1.0, 0.0, 0.0, 1.0, 7.0, -2.25)"><g style="stroke: #ff7100;stroke-width: 2.25;fill-opacity: 0;" transform="matrix(1.0, 0.0, 0.0, 1.0, 0.0, 0.0)"><rect height="0.95" style="vector-effect: non-scaling-stroke;" width="0.95" x="-0.475" y="-0.475" /></g></g></g></g><g><g /><g transform="matrix(1.0, 0.0, 0.0, 1.0, 4.734375, -2.25)"><g style="fill: #ff7100;stroke: black;stroke-width: 0.6;" transform="matrix(1.0, 0.0, 0.0, 1.0, 0.0, 0.0)"><circle cx="0.0" cy="0.0" r="0.1" style="vector-effect: non-scaling-stroke" /></g></g></g></g></g><g><g><g><g /><g style="stroke: #ff7100;stroke-width: 0.6;" transform="matrix(-0.6618153215021397, 0.7496669128519808, -0.7496669128519808, -0.6618153215021397, 6.5, -2.25)"><polyline points="0.0,0.0 2.6678515027311773,0.0" style="vector-effect: non-scaling-stroke;" /></g></g><g><g /><g transform="matrix(1.0, 0.0, 0.0, 1.0, 7.0, -2.25)"><g style="stroke: #ff7100;stroke-width: 2.25;fill-opacity: 0;" transform="matrix(1.0, 0.0, 0.0, 1.0, 0.0, 0.0)"><rect height="0.95" style="vector-effect: non-scaling-stroke;" width="0.95" x="-0.475" y="-0.475" /></g></g></g></g><g><g /><g transform="matrix(1.0, 0.0, 0.0, 1.0, 4.734375, -0.25)"><g style="fill: #ff7100;stroke: black;stroke-width: 0.6;" transform="matrix(1.0, 0.0, 0.0, 1.0, 0.0, 0.0)"><circle cx="0.0" cy="0.0" r="0.1" style="vector-effect: non-scaling-stroke" /></g></g></g></g></g></g><g /></g><g /></g></g><g><g><g><g><g><g><g><g /><g /></g><g /></g><g><g><g /><g><g><g><g /><g style="stroke: #ffe300;stroke-width: 0.6;" transform="matrix(-0.45188028499920246, -0.8920785884825616, 0.8920785884825616, -0.45188028499920246, 2.5, -1.25)"><polyline points="0.0,0.0 5.8851317224532025,0.0" style="vector-effect: non-scaling-stroke;" /></g></g><g><g /><g transform="matrix(1.0, 0.0, 0.0, 1.0, 3.0, -1.25)"><g style="stroke: #ffe300;stroke-width: 2.25;fill-opacity: 0;" transform="matrix(1.0, 0.0, 0.0, 1.0, 0.0, 0.0)"><rect height="0.95" style="vector-effect: non-scaling-stroke;" width="0.95" x="-0.475" y="-0.475" /></g></g></g></g><g><g /><g transform="matrix(1.0, 0.0, 0.0, 1.0, -0.159375, -6.5)"><g style="fill: #ffe300;stroke: black;stroke-width: 0.6;" transform="matrix(1.0, 0.0, 0.0, 1.0, 0.0, 0.0)"><circle cx="0.0" cy="0.0" r="0.1" style="vector-effect: non-scaling-stroke" /></g></g></g></g></g><g><g><g><g /><g style="stroke: #ffe300;stroke-width: 0.6;" transform="matrix(-0.4518802849992027, 0.8920785884825615, -0.8920785884825615, -0.4518802849992027, 2.5, -1.25)"><polyline points="0.0,0.0 5.8851317224532025,0.0" style="vector-effect: non-scaling-stroke;" /></g></g><g><g /><g transform="matrix(1.0, 0.0, 0.0, 1.0, 3.0, -1.25)"><g style="stroke: #ffe300;stroke-width: 2.25;fill-opacity: 0;" transform="matrix(1.0, 0.0, 0.0, 1.0, 0.0, 0.0)"><rect height="0.95" style="vector-effect: non-scaling-stroke;" width="0.95" x="-0.475" y="-0.475" /></g></g></g></g><g><g /><g transform="matrix(1.0, 0.0, 0.0, 1.0, -0.159375, 4.0)"><g style="fill: #ffe300;stroke: black;stroke-width: 0.6;" transform="matrix(1.0, 0.0, 0.0, 1.0, 0.0, 0.0)"><circle cx="0.0" cy="0.0" r="0.1" style="vector-effect: non-scaling-stroke" /></g></g></g></g></g></g><g><g><g /><g><g><g><g /><g style="stroke: #ffe300;stroke-width: 0.6;" transform="matrix(-1.0, 0.0, 0.0, -1.0, 4.5, -1.25)"><polyline points="0.0,0.0 1.6593749999999998,0.0" style="vector-effect: non-scaling-stroke;" /></g></g><g><g /><g transform="matrix(1.0, 0.0, 0.0, 1.0, 5.0, -1.25)"><g style="stroke: #ffe300;stroke-width: 2.25;fill-opacity: 0;" transform="matrix(1.0, 0.0, 0.0, 1.0, 0.0, 0.0)"><rect height="0.95" style="vector-effect: non-scaling-stroke;" width="0.95" x="-0.475" y="-0.475" /></g></g></g></g><g><g /><g transform="matrix(1.0, 0.0, 0.0, 1.0, 2.840625, -1.25)"><g style="fill: #ffe300;stroke: black;stroke-width: 0.6;" transform="matrix(1.0, 0.0, 0.0, 1.0, 0.0, 0.0)"><circle cx="0.0" cy="0.0" r="0.1" style="vector-effect: non-scaling-stroke" /></g></g></g></g></g><g><g><g><g /><g style="stroke: #ffe300;stroke-width: 0.6;" transform="matrix(-0.3831802199355858, 0.9236735998447265, -0.9236735998447265, -0.3831802199355858, 4.5, -1.25)"><polyline points="0.0,0.0 4.330534076834519,0.0" style="vector-effect: non-scaling-stroke;" /></g></g><g><g /><g transform="matrix(1.0, 0.0, 0.0, 1.0, 5.0, -1.25)"><g style="stroke: #ffe300;stroke-width: 2.25;fill-opacity: 0;" transform="matrix(1.0, 0.0, 0.0, 1.0, 0.0, 0.0)"><rect height="0.95" style="vector-effect: non-scaling-stroke;" width="0.95" x="-0.475" y="-0.475" /></g></g></g></g><g><g /><g transform="matrix(1.0, 0.0, 0.0, 1.0, 2.840625, 2.75)"><g style="fill: #ffe300;stroke: black;stroke-width: 0.6;" transform="matrix(1.0, 0.0, 0.0, 1.0, 0.0, 0.0)"><circle cx="0.0" cy="0.0" r="0.1" style="vector-effect: non-scaling-stroke" /></g></g></g></g></g></g><g /></g><g /></g><g /></g></g><g><g><g><g><g><g><g><g /><g /></g><g /></g><g><g><g /><g><g><g><g /><g style="stroke: #aaff00;stroke-width: 0.6;" transform="matrix(-0.43733702826833165, -0.8992976835872671, 0.8992976835872671, -0.43733702826833165, 2.5, -0.25)"><polyline points="0.0,0.0 5.837888939130737,0.0" style="vector-effect: non-scaling-stroke;" /></g></g><g><g /><g transform="matrix(1.0, 0.0, 0.0, 1.0, 3.0, -0.25)"><g style="stroke: #aaff00;stroke-width: 2.25;fill-opacity: 0;" transform="matrix(1.0, 0.0, 0.0, 1.0, 0.0, 0.0)"><rect height="0.95" style="vector-effect: non-scaling-stroke;" width="0.95" x="-0.475" y="-0.475" /></g></g></g></g><g><g /><g transform="matrix(1.0, 0.0, 0.0, 1.0, -0.053125, -5.5)"><g style="fill: #aaff00;stroke: black;stroke-width: 0.6;" transform="matrix(1.0, 0.0, 0.0, 1.0, 0.0, 0.0)"><circle cx="0.0" cy="0.0" r="0.1" style="vector-effect: non-scaling-stroke" /></g></g></g></g></g><g><g><g><g /><g style="stroke: #aaff00;stroke-width: 0.6;" transform="matrix(-0.4373370282683319, 0.899297683587267, -0.899297683587267, -0.4373370282683319, 2.5, -0.25)"><polyline points="0.0,0.0 5.837888939130737,0.0" style="vector-effect: non-scaling-stroke;" /></g></g><g><g /><g transform="matrix(1.0, 0.0, 0.0, 1.0, 3.0, -0.25)"><g style="stroke: #aaff00;stroke-width: 2.25;fill-opacity: 0;" transform="matrix(1.0, 0.0, 0.0, 1.0, 0.0, 0.0)"><rect height="0.95" style="vector-effect: non-scaling-stroke;" width="0.95" x="-0.475" y="-0.475" /></g></g></g></g><g><g /><g transform="matrix(1.0, 0.0, 0.0, 1.0, -0.053125, 5.0)"><g style="fill: #aaff00;stroke: black;stroke-width: 0.6;" transform="matrix(1.0, 0.0, 0.0, 1.0, 0.0, 0.0)"><circle cx="0.0" cy="0.0" r="0.1" style="vector-effect: non-scaling-stroke" /></g></g></g></g></g></g><g><g><g /><g><g><g><g /><g style="stroke: #aaff00;stroke-width: 0.6;" transform="matrix(-1.0, 0.0, 0.0, -1.0, 4.5, -0.25)"><polyline points="0.0,0.0 1.553125,0.0" style="vector-effect: non-scaling-stroke;" /></g></g><g><g /><g transform="matrix(1.0, 0.0, 0.0, 1.0, 5.0, -0.25)"><g style="stroke: #aaff00;stroke-width: 2.25;fill-opacity: 0;" transform="matrix(1.0, 0.0, 0.0, 1.0, 0.0, 0.0)"><rect height="0.95" style="vector-effect: non-scaling-stroke;" width="0.95" x="-0.475" y="-0.475" /></g></g></g></g><g><g /><g transform="matrix(1.0, 0.0, 0.0, 1.0, 2.946875, -0.25)"><g style="fill: #aaff00;stroke: black;stroke-width: 0.6;" transform="matrix(1.0, 0.0, 0.0, 1.0, 0.0, 0.0)"><circle cx="0.0" cy="0.0" r="0.1" style="vector-effect: non-scaling-stroke" /></g></g></g></g></g><g><g><g><g /><g style="stroke: #aaff00;stroke-width: 0.6;" transform="matrix(-0.3619541836637157, 0.9321958854920639, -0.9321958854920639, -0.3619541836637157, 4.5, -0.25)"><polyline points="0.0,0.0 4.290943633470964,0.0" style="vector-effect: non-scaling-stroke;" /></g></g><g><g /><g transform="matrix(1.0, 0.0, 0.0, 1.0, 5.0, -0.25)"><g style="stroke: #aaff00;stroke-width: 2.25;fill-opacity: 0;" transform="matrix(1.0, 0.0, 0.0, 1.0, 0.0, 0.0)"><rect height="0.95" style="vector-effect: non-scaling-stroke;" width="0.95" x="-0.475" y="-0.475" /></g></g></g></g><g><g /><g transform="matrix(1.0, 0.0, 0.0, 1.0, 2.946875, 3.75)"><g style="fill: #aaff00;stroke: black;stroke-width: 0.6;" transform="matrix(1.0, 0.0, 0.0, 1.0, 0.0, 0.0)"><circle cx="0.0" cy="0.0" r="0.1" style="vector-effect: non-scaling-stroke" /></g></g></g></g></g></g><g /></g><g /></g><g /></g></g><g><g><g><g><g><g><g><g /><g /></g><g /></g><g><g><g /><g><g><g><g /><g style="stroke: #39ff00;stroke-width: 0.6;" transform="matrix(-0.42244238016126173, -0.9063897811889143, 0.9063897811889143, -0.42244238016126173, 2.5, 0.75)"><polyline points="0.0,0.0 5.792210050198888,0.0" style="vector-effect: non-scaling-stroke;" /></g></g><g><g /><g transform="matrix(1.0, 0.0, 0.0, 1.0, 3.0, 0.75)"><g style="stroke: #39ff00;stroke-width: 2.25;fill-opacity: 0;" transform="matrix(1.0, 0.0, 0.0, 1.0, 0.0, 0.0)"><rect height="0.95" style="vector-effect: non-scaling-stroke;" width="0.95" x="-0.475" y="-0.475" /></g></g></g></g><g><g /><g transform="matrix(1.0, 0.0, 0.0, 1.0, 0.053125, -4.5)"><g style="fill: #39ff00;stroke: black;stroke-width: 0.6;" transform="matrix(1.0, 0.0, 0.0, 1.0, 0.0, 0.0)"><circle cx="0.0" cy="0.0" r="0.1" style="vector-effect: non-scaling-stroke" /></g></g></g></g></g><g><g><g><g /><g style="stroke: #39ff00;stroke-width: 0.6;" transform="matrix(-0.42244238016126234, 0.906389781188914, -0.906389781188914, -0.42244238016126234, 2.5, 0.75)"><polyline points="0.0,0.0 5.792210050198888,0.0" style="vector-effect: non-scaling-stroke;" /></g></g><g><g /><g transform="matrix(1.0, 0.0, 0.0, 1.0, 3.0, 0.75)"><g style="stroke: #39ff00;stroke-width: 2.25;fill-opacity: 0;" transform="matrix(1.0, 0.0, 0.0, 1.0, 0.0, 0.0)"><rect height="0.95" style="vector-effect: non-scaling-stroke;" width="0.95" x="-0.475" y="-0.475" /></g></g></g></g><g><g /><g transform="matrix(1.0, 0.0, 0.0, 1.0, 0.053125, 6.0)"><g style="fill: #39ff00;stroke: black;stroke-width: 0.6;" transform="matrix(1.0, 0.0, 0.0, 1.0, 0.0, 0.0)"><circle cx="0.0" cy="0.0" r="0.1" style="vector-effect: non-scaling-stroke" /></g></g></g></g></g></g><g /></g><g /></g><g /></g><g /></g></g><g><g><g><g><g><g><g><g /><g /></g><g /></g><g><g><g /><g><g><g><g /><g style="stroke: #00ff39;stroke-width: 0.6;" transform="matrix(-0.40719747942801765, -0.9133401407731235, 0.9133401407731235, -0.40719747942801765, 2.5, 1.75)"><polyline points="0.0,0.0 5.748132339345102,0.0" style="vector-effect: non-scaling-stroke;" /></g></g><g><g /><g transform="matrix(1.0, 0.0, 0.0, 1.0, 3.0, 1.75)"><g style="stroke: #00ff39;stroke-width: 2.25;fill-opacity: 0;" transform="matrix(1.0, 0.0, 0.0, 1.0, 0.0, 0.0)"><rect height="0.95" style="vector-effect: non-scaling-stroke;" width="0.95" x="-0.475" y="-0.475" /></g></g></g></g><g><g /><g transform="matrix(1.0, 0.0, 0.0, 1.0, 0.159375, -3.5)"><g style="fill: #00ff39;stroke: black;stroke-width: 0.6;" transform="matrix(1.0, 0.0, 0.0, 1.0, 0.0, 0.0)"><circle cx="0.0" cy="0.0" r="0.1" style="vector-effect: non-scaling-stroke" /></g></g></g></g></g><g><g><g><g /><g style="stroke: #00ff39;stroke-width: 0.6;" transform="matrix(-0.40719747942801765, 0.9133401407731235, -0.9133401407731235, -0.40719747942801765, 2.5, 1.75)"><polyline points="0.0,0.0 5.748132339345102,0.0" style="vector-effect: non-scaling-stroke;" /></g></g><g><g /><g transform="matrix(1.0, 0.0, 0.0, 1.0, 3.0, 1.75)"><g style="stroke: #00ff39;stroke-width: 2.25;fill-opacity: 0;" transform="matrix(1.0, 0.0, 0.0, 1.0, 0.0, 0.0)"><rect height="0.95" style="vector-effect: non-scaling-stroke;" width="0.95" x="-0.475" y="-0.475" /></g></g></g></g><g><g /><g transform="matrix(1.0, 0.0, 0.0, 1.0, 0.159375, 7.0)"><g style="fill: #00ff39;stroke: black;stroke-width: 0.6;" transform="matrix(1.0, 0.0, 0.0, 1.0, 0.0, 0.0)"><circle cx="0.0" cy="0.0" r="0.1" style="vector-effect: non-scaling-stroke" /></g></g></g></g></g></g><g /></g><g /></g><g /></g><g /></g></g><g><g><g><g><g><g><g><g /><g /></g><g /></g><g><g><g /><g><g><g><g /><g style="stroke: #00ffaa;stroke-width: 0.6;" transform="matrix(-0.39160449629424215, -0.9201336416424154, 0.9201336416424154, -0.39160449629424215, 2.5, 2.75)"><polyline points="0.0,0.0 5.705692915030128,0.0" style="vector-effect: non-scaling-stroke;" /></g></g><g><g /><g transform="matrix(1.0, 0.0, 0.0, 1.0, 3.0, 2.75)"><g style="stroke: #00ffaa;stroke-width: 2.25;fill-opacity: 0;" transform="matrix(1.0, 0.0, 0.0, 1.0, 0.0, 0.0)"><rect height="0.95" style="vector-effect: non-scaling-stroke;" width="0.95" x="-0.475" y="-0.475" /></g></g></g></g><g><g /><g transform="matrix(1.0, 0.0, 0.0, 1.0, 0.265625, -2.5)"><g style="fill: #00ffaa;stroke: black;stroke-width: 0.6;" transform="matrix(1.0, 0.0, 0.0, 1.0, 0.0, 0.0)"><circle cx="0.0" cy="0.0" r="0.1" style="vector-effect: non-scaling-stroke" /></g></g></g></g></g><g><g><g><g /><g style="stroke: #00ffaa;stroke-width: 0.6;" transform="matrix(-0.3916044962942426, 0.9201336416424152, -0.9201336416424152, -0.3916044962942426, 2.5, 2.75)"><polyline points="0.0,0.0 5.705692915030128,0.0" style="vector-effect: non-scaling-stroke;" /></g></g><g><g /><g transform="matrix(1.0, 0.0, 0.0, 1.0, 3.0, 2.75)"><g style="stroke: #00ffaa;stroke-width: 2.25;fill-opacity: 0;" transform="matrix(1.0, 0.0, 0.0, 1.0, 0.0, 0.0)"><rect height="0.95" style="vector-effect: non-scaling-stroke;" width="0.95" x="-0.475" y="-0.475" /></g></g></g></g><g><g /><g transform="matrix(1.0, 0.0, 0.0, 1.0, 0.265625, 8.0)"><g style="fill: #00ffaa;stroke: black;stroke-width: 0.6;" transform="matrix(1.0, 0.0, 0.0, 1.0, 0.0, 0.0)"><circle cx="0.0" cy="0.0" r="0.1" style="vector-effect: non-scaling-stroke" /></g></g></g></g></g></g><g /></g><g /></g><g /></g><g /></g></g><g><g><g><g><g><g><g><g /><g /></g><g /></g><g><g><g /><g><g><g><g /><g style="stroke: #00e3ff;stroke-width: 0.6;" transform="matrix(-0.37566669435355776, -0.9267548406960012, 0.9267548406960012, -0.37566669435355776, 2.5, 3.75)"><polyline points="0.0,0.0 5.664928597575171,0.0" style="vector-effect: non-scaling-stroke;" /></g></g><g><g /><g transform="matrix(1.0, 0.0, 0.0, 1.0, 3.0, 3.75)"><g style="stroke: #00e3ff;stroke-width: 2.25;fill-opacity: 0;" transform="matrix(1.0, 0.0, 0.0, 1.0, 0.0, 0.0)"><rect height="0.95" style="vector-effect: non-scaling-stroke;" width="0.95" x="-0.475" y="-0.475" /></g></g></g></g><g><g /><g transform="matrix(1.0, 0.0, 0.0, 1.0, 0.371875, -1.5)"><g style="fill: #00e3ff;stroke: black;stroke-width: 0.6;" transform="matrix(1.0, 0.0, 0.0, 1.0, 0.0, 0.0)"><circle cx="0.0" cy="0.0" r="0.1" style="vector-effect: non-scaling-stroke" /></g></g></g></g></g><g><g><g><g /><g style="stroke: #00e3ff;stroke-width: 0.6;" transform="matrix(-0.3756666943535576, 0.9267548406960013, -0.9267548406960013, -0.3756666943535576, 2.5, 3.75)"><polyline points="0.0,0.0 5.664928597575171,0.0" style="vector-effect: non-scaling-stroke;" /></g></g><g><g /><g transform="matrix(1.0, 0.0, 0.0, 1.0, 3.0, 3.75)"><g style="stroke: #00e3ff;stroke-width: 2.25;fill-opacity: 0;" transform="matrix(1.0, 0.0, 0.0, 1.0, 0.0, 0.0)"><rect height="0.95" style="vector-effect: non-scaling-stroke;" width="0.95" x="-0.475" y="-0.475" /></g></g></g></g><g><g /><g transform="matrix(1.0, 0.0, 0.0, 1.0, 0.371875, 9.0)"><g style="fill: #00e3ff;stroke: black;stroke-width: 0.6;" transform="matrix(1.0, 0.0, 0.0, 1.0, 0.0, 0.0)"><circle cx="0.0" cy="0.0" r="0.1" style="vector-effect: non-scaling-stroke" /></g></g></g></g></g></g><g /></g><g /></g><g /></g><g /></g></g></g><g transform="matrix(1.0, 0.0, 0.0, 1.0, -0.0, -10.2501)"><g><g><g style="stroke: black;stroke-width: 1.5;" transform="matrix(1.0, 0.0, 0.0, 1.0, 0.0, 0.0)"><g /></g><g transform="matrix(1.0, 0.0, 0.0, 1.0, 0.0, 0.25)"><g style="fill: #000000;stroke: black;stroke-width: 0.0;" transform="matrix(1.0, 0.0, 0.0, 1.0, 0.0, 0.0)"><text style="text-align:center; text-anchor:middle; dominant-baseline:middle;font-family:sans-serif; font-weight: bold;font-size:0.5px;vector-effect: non-scaling-stroke;" transform="translate(-5e-05, 0)">Block 0 0</text></g></g></g><g transform="matrix(1.0, 0.0, 0.0, 1.0, 0.0, 0.5001)"><g style="stroke: black;stroke-width: 1.5;" transform="matrix(1.0, 0.0, 0.0, 1.0, 0.0, 0.0)"><g /></g></g></g></g></g></g></g></g><g transform="matrix(1.0, 0.0, 0.0, 1.0, 14.0, 0.0)"><g style="stroke: black;stroke-width: 1.5;" transform="matrix(1.0, 0.0, 0.0, 1.0, 0.0, 0.0)"><g /></g></g></g></g><g /></g><g style="stroke: #808080;stroke-width: 1.5;fill-opacity: 0.0;" transform="matrix(1.0, 0.0, 0.0, 1.0, 0.0, 0.0)"><rect height="24.00012" rx="0.5" ry="0.5" style="vector-effect: non-scaling-stroke;" width="18.0" x="-9.0" y="-12.00006" /></g></g><g /></g></g></g></g></g></g><g /></g></g></g></g><g /></g></g></g></g></svg>