<?xml version="1.0" encoding="utf-8" ?>
<svg baseProfile="full" height="937.2127600000001" version="1.1" width="653" xmlns="http://www.w3.org/2000/svg" xmlns:ev="http://www.w3.org/2001/xml-events" xmlns:xlink="http://www.w3.org/1999/xlink"><defs><marker id="arrow" markerHeight="3.5" markerWidth="5" orient="auto" refX="5.0" refY="1.7"><polygon points="0,0 5,1.75 0,3.5" /></marker></defs><g style="fill:white;"><g transform="matrix(1.0, 0.0, 0.0, 1.0, 326.5, 468.31950740740746)"><g transform="matrix(47.58989607474456, 0.0, 0.0, 47.58989607474456, 0.0, 0.0)"><g><g transform="matrix(1.0, 0.0, 0.0, 1.0, -0.0, -0.0)"><g><g style="fill: #ffffff;stroke: black;stroke-width: 1.5;" transform="matrix(1.0, 0.0, 0.0, 1.0, 0.0, 0.0)"><rect height="18.7442552" style="vector-effect: non-scaling-stroke;" width="13.068" x="-6.534" y="-9.3721276" /></g><g transform="matrix(1.0, 0.0, 0.0, 1.0, -0.0, -8.547127600000001)"><g><g><g><g><g><g><g style="stroke: black;stroke-width: 1.5;" transform="matrix(1.0, 0.0, 0.0, 1.0, 0.0, 0.0)"><g /></g><g transform="matrix(1.0, 0.0, 0.0, 1.0, 0.0, 0.75)"><g style="stroke: black;stroke-width: 1.5;" transform="matrix(1.0, 0.0, 0.0, 1.0, 0.0, 0.0)"><text style="text-align:center; text-anchor:middle; dominant-baseline:middle;font-family:sans-serif; font-weight: bold;font-size:1px;vector-effect: non-scaling-stroke;" transform="translate(-5e-05, 0)">Pooling</text></g></g></g><g transform="matrix(1.0, 0.0, 0.0, 1.0, 0.0, 1.2501)"><g style="stroke: black;stroke-width: 1.5;" transform="matrix(1.0, 0.0, 0.0, 1.0, 0.0, 0.0)"><g /></g></g></g><g transform="matrix(1.0, 0.0, 0.0, 1.0, 0.0, 2.2500999999999998)"><g transform="matrix(1.0, 0.0, 0.0, 1.0, -3.8500000000000005, -0.0)"><g><g><g><g><g><g><g><g><g /><g transform="matrix(1.0, 0.0, 0.0, 1.0, 0.0, 0.0)"><g><g style="fill: #ff0000;stroke: black;stroke-width: 1.5;fill-opacity: 0.7;" transform="matrix(1.0, 0.0, 0.0, 1.0, 0.0, 0.0)"><circle cx="0.0" cy="0.0" r="0.5" style="vector-effect: non-scaling-stroke" /></g><g style="stroke: black;stroke-width: 1.5;" transform="matrix(0.0008333333333333334, 0.0, 0.0, 0.0008333333333333334, 0.0, 0.0)"><image transform="translate(-600.0, -600.0)" xlink:href="https://raw.githubusercontent.com/minitorch/diagrams/main/robot.png" /></g></g></g></g><g transform="matrix(1.0, 0.0, 0.0, 1.0, 1.1, 0.0)"><g><g style="fill: #ff7100;stroke: black;stroke-width: 1.5;fill-opacity: 0.7;" transform="matrix(1.0, 0.0, 0.0, 1.0, 0.0, 0.0)"><circle cx="0.0" cy="0.0" r="0.5" style="vector-effect: non-scaling-stroke" /></g><g style="stroke: black;stroke-width: 1.5;" transform="matrix(0.0008333333333333334, 0.0, 0.0, 0.0008333333333333334, 0.0, 0.0)"><image transform="translate(-600.0, -600.0)" xlink:href="https://raw.githubusercontent.com/minitorch/diagrams/main/robot.png" /></g></g></g></g><g transform="matrix(1.0, 0.0, 0.0, 1.0, 2.2, 0.0)"><g><g style="fill: #ffe300;stroke: black;stroke-width: 1.5;fill-opacity: 0.7;" transform="matrix(1.0, 0.0, 0.0, 1.0, 0.0, 0.0)"><circle cx="0.0" cy="0.0" r="0.5" style="vector-effect: non-scaling-stroke" /></g><g style="stroke: black;stroke-width: 1.5;" transform="matrix(0.0008333333333333334, 0.0, 0.0, 0.0008333333333333334, 0.0, 0.0)"><image transform="translate(-600.0, -600.0)" xlink:href="https://raw.githubusercontent.com/minitorch/diagrams/main/robot.png" /></g></g></g></g><g transform="matrix(1.0, 0.0, 0.0, 1.0, 3.3000000000000003, 0.0)"><g><g style="fill: #aaff00;stroke: black;stroke-width: 1.5;fill-opacity: 0.7;" transform="matrix(1.0, 0.0, 0.0, 1.0, 0.0, 0.0)"><circle cx="0.0" cy="0.0" r="0.5" style="vector-effect: non-scaling-stroke" /></g><g style="stroke: black;stroke-width: 1.5;" transform="matrix(0.0008333333333333334, 0.0, 0.0, 0.0008333333333333334, 0.0, 0.0)"><image transform="translate(-600.0, -600.0)" xlink:href="https://raw.githubusercontent.com/minitorch/diagrams/main/robot.png" /></g></g></g></g><g transform="matrix(1.0, 0.0, 0.0, 1.0, 4.4, 0.0)"><g><g style="fill: #39ff00;stroke: black;stroke-width: 1.5;fill-opacity: 0.7;" transform="matrix(1.0, 0.0, 0.0, 1.0, 0.0, 0.0)"><circle cx="0.0" cy="0.0" r="0.5" style="vector-effect: non-scaling-stroke" /></g><g style="stroke: black;stroke-width: 1.5;" transform="matrix(0.0008333333333333334, 0.0, 0.0, 0.0008333333333333334, 0.0, 0.0)"><image transform="translate(-600.0, -600.0)" xlink:href="https://raw.githubusercontent.com/minitorch/diagrams/main/robot.png" /></g></g></g></g><g transform="matrix(1.0, 0.0, 0.0, 1.0, 5.5, 0.0)"><g><g style="fill: #00ff39;stroke: black;stroke-width: 1.5;fill-opacity: 0.7;" transform="matrix(1.0, 0.0, 0.0, 1.0, 0.0, 0.0)"><circle cx="0.0" cy="0.0" r="0.5" style="vector-effect: non-scaling-stroke" /></g><g style="stroke: black;stroke-width: 1.5;" transform="matrix(0.0008333333333333334, 0.0, 0.0, 0.0008333333333333334, 0.0, 0.0)"><image transform="translate(-600.0, -600.0)" xlink:href="https://raw.githubusercontent.com/minitorch/diagrams/main/robot.png" /></g></g></g></g><g transform="matrix(1.0, 0.0, 0.0, 1.0, 6.6000000000000005, 0.0)"><g><g style="fill: #00ffaa;stroke: black;stroke-width: 1.5;fill-opacity: 0.7;" transform="matrix(1.0, 0.0, 0.0, 1.0, 0.0, 0.0)"><circle cx="0.0" cy="0.0" r="0.5" style="vector-effect: non-scaling-stroke" /></g><g style="stroke: black;stroke-width: 1.5;" transform="matrix(0.0008333333333333334, 0.0, 0.0, 0.0008333333333333334, 0.0, 0.0)"><image transform="translate(-600.0, -600.0)" xlink:href="https://raw.githubusercontent.com/minitorch/diagrams/main/robot.png" /></g></g></g></g><g transform="matrix(1.0, 0.0, 0.0, 1.0, 7.700000000000001, 0.0)"><g><g style="fill: #00e3ff;stroke: black;stroke-width: 1.5;fill-opacity: 0.7;" transform="matrix(1.0, 0.0, 0.0, 1.0, 0.0, 0.0)"><circle cx="0.0" cy="0.0" r="0.5" style="vector-effect: non-scaling-stroke" /></g><g style="stroke: black;stroke-width: 1.5;" transform="matrix(0.0008333333333333334, 0.0, 0.0, 0.0008333333333333334, 0.0, 0.0)"><image transform="translate(-600.0, -600.0)" xlink:href="https://raw.githubusercontent.com/minitorch/diagrams/main/robot.png" /></g></g></g></g></g></g></g><g transform="matrix(1.0, 0.0, 0.0, 1.0, 0.0, 3.2500999999999998)"><g style="stroke: black;stroke-width: 1.5;" transform="matrix(1.0, 0.0, 0.0, 1.0, 0.0, 0.0)"><g /></g></g></g><g transform="matrix(1.0, 0.0, 0.0, 1.0, 0.0, 10.020166)"><g transform="matrix(1.0, 0.0, 0.0, 1.0, -0.0, -0.0)"><g><g /><g transform="matrix(1.0, 0.0, 0.0, 1.0, 0.0, 0.0)"><g><g><g><g transform="matrix(1.0, 0.0, 0.0, 1.0, -4.0, -0.0)"><g><g><g style="stroke: black;stroke-width: 1.5;" transform="matrix(1.0, 0.0, 0.0, 1.0, 0.0, 0.0)"><g /></g><g transform="matrix(1.0, 0.0, 0.0, 1.0, 4.0, 0.0)"><g transform="matrix(1.0, 0.0, 0.0, 1.0, -0.0, 0.5000499999999999)"><g><g transform="matrix(1.0, 0.0, 0.0, 1.0, -3.0, -0.0)"><g><g><g><g><g><g><g><g><g><g><g><g><g transform="matrix(1.0, 0.0, 0.0, 1.0, -0.0, 0.25)"><g><g transform="matrix(1.0, 0.0, 0.0, 1.0, -0.0, -3.5)"><g><g><g><g><g><g><g><g><g /><g><g style="stroke: black;stroke-width: 0.75;" transform="matrix(1.0, 0.0, 0.0, 1.0, 0.0, 0.0)"><rect height="1" style="vector-effect: non-scaling-stroke;" width="1" x="-0.5" y="-0.5" /></g></g></g><g><g style="stroke: black;stroke-width: 0.75;" transform="matrix(1.0, 0.0, 0.0, 1.0, 0.0, 1.0)"><rect height="1" style="vector-effect: non-scaling-stroke;" width="1" x="-0.5" y="-0.5" /></g></g></g><g><g style="stroke: black;stroke-width: 0.75;" transform="matrix(1.0, 0.0, 0.0, 1.0, 0.0, 2.0)"><rect height="1" style="vector-effect: non-scaling-stroke;" width="1" x="-0.5" y="-0.5" /></g></g></g><g><g style="stroke: black;stroke-width: 0.75;" transform="matrix(1.0, 0.0, 0.0, 1.0, 0.0, 3.0)"><rect height="1" style="vector-effect: non-scaling-stroke;" width="1" x="-0.5" y="-0.5" /></g></g></g><g><g style="stroke: black;stroke-width: 0.75;" transform="matrix(1.0, 0.0, 0.0, 1.0, 0.0, 4.0)"><rect height="1" style="vector-effect: non-scaling-stroke;" width="1" x="-0.5" y="-0.5" /></g></g></g><g><g style="stroke: black;stroke-width: 0.75;" transform="matrix(1.0, 0.0, 0.0, 1.0, 0.0, 5.0)"><rect height="1" style="vector-effect: non-scaling-stroke;" width="1" x="-0.5" y="-0.5" /></g></g></g><g><g style="stroke: black;stroke-width: 0.75;" transform="matrix(1.0, 0.0, 0.0, 1.0, 0.0, 6.0)"><rect height="1" style="vector-effect: non-scaling-stroke;" width="1" x="-0.5" y="-0.5" /></g></g></g><g><g style="stroke: black;stroke-width: 0.75;" transform="matrix(1.0, 0.0, 0.0, 1.0, 0.0, 7.0)"><rect height="1" style="vector-effect: non-scaling-stroke;" width="1" x="-0.5" y="-0.5" /></g></g></g></g><g transform="matrix(1.0, 0.0, 0.0, 1.0, -0.0, -4.25)"><g><g style="fill: #000000;stroke: black;stroke-width: 0.0;" transform="matrix(1.0, 0.0, 0.0, 1.0, 0.0, 0.0)"><text style="text-align:center; text-anchor:middle; dominant-baseline:middle;font-family:sans-serif; font-weight: bold;font-size:0.5px;vector-effect: non-scaling-stroke;" transform="translate(-5e-05, 0)">a</text></g><g style="stroke: black;stroke-width: 1.5;" transform="matrix(1.0, 0.0, 0.0, 1.0, 0.0, 0.0)"><g /></g></g></g></g></g><g transform="matrix(1.0, 0.0, 0.0, 1.0, 1.5, 0.0)"><g style="stroke: black;stroke-width: 1.5;" transform="matrix(1.0, 0.0, 0.0, 1.0, 0.0, 0.0)"><g /></g></g></g><g transform="matrix(1.0, 0.0, 0.0, 1.0, 3.0, 0.0)"><g transform="matrix(1.0, 0.0, 0.0, 1.0, -0.0, 0.25)"><g><g transform="matrix(1.0, 0.0, 0.0, 1.0, -0.0, -3.5)"><g><g><g><g><g><g><g><g><g /><g><g style="stroke: black;stroke-width: 0.75;" transform="matrix(1.0, 0.0, 0.0, 1.0, 0.0, 0.0)"><rect height="1" style="vector-effect: non-scaling-stroke;" width="1" x="-0.5" y="-0.5" /></g></g></g><g><g style="stroke: black;stroke-width: 0.75;" transform="matrix(1.0, 0.0, 0.0, 1.0, 0.0, 1.0)"><rect height="1" style="vector-effect: non-scaling-stroke;" width="1" x="-0.5" y="-0.5" /></g></g></g><g><g style="stroke: black;stroke-width: 0.75;" transform="matrix(1.0, 0.0, 0.0, 1.0, 0.0, 2.0)"><rect height="1" style="vector-effect: non-scaling-stroke;" width="1" x="-0.5" y="-0.5" /></g></g></g><g><g style="stroke: black;stroke-width: 0.75;" transform="matrix(1.0, 0.0, 0.0, 1.0, 0.0, 3.0)"><rect height="1" style="vector-effect: non-scaling-stroke;" width="1" x="-0.5" y="-0.5" /></g></g></g><g><g style="stroke: black;stroke-width: 0.75;" transform="matrix(1.0, 0.0, 0.0, 1.0, 0.0, 4.0)"><rect height="1" style="vector-effect: non-scaling-stroke;" width="1" x="-0.5" y="-0.5" /></g></g></g><g><g style="stroke: black;stroke-width: 0.75;" transform="matrix(1.0, 0.0, 0.0, 1.0, 0.0, 5.0)"><rect height="1" style="vector-effect: non-scaling-stroke;" width="1" x="-0.5" y="-0.5" /></g></g></g><g><g style="stroke: black;stroke-width: 0.75;" transform="matrix(1.0, 0.0, 0.0, 1.0, 0.0, 6.0)"><rect height="1" style="vector-effect: non-scaling-stroke;" width="1" x="-0.5" y="-0.5" /></g></g></g><g><g style="stroke: black;stroke-width: 0.75;" transform="matrix(1.0, 0.0, 0.0, 1.0, 0.0, 7.0)"><rect height="1" style="vector-effect: non-scaling-stroke;" width="1" x="-0.5" y="-0.5" /></g></g></g></g><g transform="matrix(1.0, 0.0, 0.0, 1.0, -0.0, -4.25)"><g><g style="fill: #000000;stroke: black;stroke-width: 0.0;" transform="matrix(1.0, 0.0, 0.0, 1.0, 0.0, 0.0)"><text style="text-align:center; text-anchor:middle; dominant-baseline:middle;font-family:sans-serif; font-weight: bold;font-size:0.5px;vector-effect: non-scaling-stroke;" transform="translate(-5e-05, 0)">S0'</text></g><g style="stroke: black;stroke-width: 1.5;" transform="matrix(1.0, 0.0, 0.0, 1.0, 0.0, 0.0)"><g /></g></g></g></g></g></g></g><g transform="matrix(1.0, 0.0, 0.0, 1.0, 4.5, 0.0)"><g style="stroke: black;stroke-width: 1.5;" transform="matrix(1.0, 0.0, 0.0, 1.0, 0.0, 0.0)"><g /></g></g></g><g transform="matrix(1.0, 0.0, 0.0, 1.0, 6.0, 0.0)"><g transform="matrix(1.0, 0.0, 0.0, 1.0, -0.0, 0.25)"><g><g transform="matrix(1.0, 0.0, 0.0, 1.0, -0.0, -3.5)"><g><g><g><g><g><g><g><g><g /><g><g style="stroke: black;stroke-width: 0.75;" transform="matrix(1.0, 0.0, 0.0, 1.0, 0.0, 0.0)"><rect height="1" style="vector-effect: non-scaling-stroke;" width="1" x="-0.5" y="-0.5" /></g></g></g><g><g style="stroke: black;stroke-width: 0.75;" transform="matrix(1.0, 0.0, 0.0, 1.0, 0.0, 1.0)"><rect height="1" style="vector-effect: non-scaling-stroke;" width="1" x="-0.5" y="-0.5" /></g></g></g><g><g style="stroke: black;stroke-width: 0.75;" transform="matrix(1.0, 0.0, 0.0, 1.0, 0.0, 2.0)"><rect height="1" style="vector-effect: non-scaling-stroke;" width="1" x="-0.5" y="-0.5" /></g></g></g><g><g style="stroke: black;stroke-width: 0.75;" transform="matrix(1.0, 0.0, 0.0, 1.0, 0.0, 3.0)"><rect height="1" style="vector-effect: non-scaling-stroke;" width="1" x="-0.5" y="-0.5" /></g></g></g><g><g style="stroke: black;stroke-width: 0.75;" transform="matrix(1.0, 0.0, 0.0, 1.0, 0.0, 4.0)"><rect height="1" style="vector-effect: non-scaling-stroke;" width="1" x="-0.5" y="-0.5" /></g></g></g><g><g style="stroke: black;stroke-width: 0.75;" transform="matrix(1.0, 0.0, 0.0, 1.0, 0.0, 5.0)"><rect height="1" style="vector-effect: non-scaling-stroke;" width="1" x="-0.5" y="-0.5" /></g></g></g><g><g style="stroke: black;stroke-width: 0.75;" transform="matrix(1.0, 0.0, 0.0, 1.0, 0.0, 6.0)"><rect height="1" style="vector-effect: non-scaling-stroke;" width="1" x="-0.5" y="-0.5" /></g></g></g><g><g style="stroke: black;stroke-width: 0.75;" transform="matrix(1.0, 0.0, 0.0, 1.0, 0.0, 7.0)"><rect height="1" style="vector-effect: non-scaling-stroke;" width="1" x="-0.5" y="-0.5" /></g></g></g></g><g transform="matrix(1.0, 0.0, 0.0, 1.0, -0.0, -4.25)"><g><g style="fill: #000000;stroke: black;stroke-width: 0.0;" transform="matrix(1.0, 0.0, 0.0, 1.0, 0.0, 0.0)"><text style="text-align:center; text-anchor:middle; dominant-baseline:middle;font-family:sans-serif; font-weight: bold;font-size:0.5px;vector-effect: non-scaling-stroke;" transform="translate(-5e-05, 0)">out</text></g><g style="stroke: black;stroke-width: 1.5;" transform="matrix(1.0, 0.0, 0.0, 1.0, 0.0, 0.0)"><g /></g></g></g></g></g></g></g><g><g><g><g /><g /></g><g><g /><g><g><g><g /><g style="stroke: #ff0000;stroke-width: 0.6;" transform="matrix(-1.0, 0.0, 0.0, -1.0, 2.5, -3.25)"><polyline points="0.0,0.0 2.871875,0.0" style="vector-effect: non-scaling-stroke;" /></g></g><g><g /><g transform="matrix(1.0, 0.0, 0.0, 1.0, 3.0, -3.25)"><g style="stroke: #ff0000;stroke-width: 2.25;fill-opacity: 0;" transform="matrix(1.0, 0.0, 0.0, 1.0, 0.0, 0.0)"><rect height="0.95" style="vector-effect: non-scaling-stroke;" width="0.95" x="-0.475" y="-0.475" /></g></g></g></g><g><g /><g transform="matrix(1.0, 0.0, 0.0, 1.0, -0.371875, -3.25)"><g style="fill: #ff0000;stroke: black;stroke-width: 0.6;" transform="matrix(1.0, 0.0, 0.0, 1.0, 0.0, 0.0)"><circle cx="0.0" cy="0.0" r="0.1" style="vector-effect: non-scaling-stroke" /></g></g></g></g></g></g><g><g /><g><g><g><g /><g style="stroke: #ff0000;stroke-width: 0.6;" transform="matrix(-1.0, 0.0, 0.0, -1.0, 5.5, -3.25)"><polyline points="0.0,0.0 2.871875,0.0" style="vector-effect: non-scaling-stroke;" /></g></g><g><g /><g transform="matrix(1.0, 0.0, 0.0, 1.0, 6.0, -3.25)"><g style="stroke: #ff0000;stroke-width: 2.25;fill-opacity: 0;" transform="matrix(1.0, 0.0, 0.0, 1.0, 0.0, 0.0)"><rect height="0.95" style="vector-effect: non-scaling-stroke;" width="0.95" x="-0.475" y="-0.475" /></g></g></g></g><g><g /><g transform="matrix(1.0, 0.0, 0.0, 1.0, 2.628125, -3.25)"><g style="fill: #ff0000;stroke: black;stroke-width: 0.6;" transform="matrix(1.0, 0.0, 0.0, 1.0, 0.0, 0.0)"><circle cx="0.0" cy="0.0" r="0.1" style="vector-effect: non-scaling-stroke" /></g></g></g></g></g></g></g><g><g><g><g /><g /></g><g><g /><g><g><g><g /><g style="stroke: #ff7100;stroke-width: 0.6;" transform="matrix(-1.0, 0.0, 0.0, -1.0, 2.5, -2.25)"><polyline points="0.0,0.0 2.765625,0.0" style="vector-effect: non-scaling-stroke;" /></g></g><g><g /><g transform="matrix(1.0, 0.0, 0.0, 1.0, 3.0, -2.25)"><g style="stroke: #ff7100;stroke-width: 2.25;fill-opacity: 0;" transform="matrix(1.0, 0.0, 0.0, 1.0, 0.0, 0.0)"><rect height="0.95" style="vector-effect: non-scaling-stroke;" width="0.95" x="-0.475" y="-0.475" /></g></g></g></g><g><g /><g transform="matrix(1.0, 0.0, 0.0, 1.0, -0.265625, -2.25)"><g style="fill: #ff7100;stroke: black;stroke-width: 0.6;" transform="matrix(1.0, 0.0, 0.0, 1.0, 0.0, 0.0)"><circle cx="0.0" cy="0.0" r="0.1" style="vector-effect: non-scaling-stroke" /></g></g></g></g></g></g><g><g><g /><g><g><g><g /><g style="stroke: #ff7100;stroke-width: 0.6;" transform="matrix(-1.0, 0.0, 0.0, -1.0, 5.5, -2.25)"><polyline points="0.0,0.0 2.765625,0.0" style="vector-effect: non-scaling-stroke;" /></g></g><g><g /><g transform="matrix(1.0, 0.0, 0.0, 1.0, 6.0, -2.25)"><g style="stroke: #ff7100;stroke-width: 2.25;fill-opacity: 0;" transform="matrix(1.0, 0.0, 0.0, 1.0, 0.0, 0.0)"><rect height="0.95" style="vector-effect: non-scaling-stroke;" width="0.95" x="-0.475" y="-0.475" /></g></g></g></g><g><g /><g transform="matrix(1.0, 0.0, 0.0, 1.0, 2.734375, -2.25)"><g style="fill: #ff7100;stroke: black;stroke-width: 0.6;" transform="matrix(1.0, 0.0, 0.0, 1.0, 0.0, 0.0)"><circle cx="0.0" cy="0.0" r="0.1" style="vector-effect: non-scaling-stroke" /></g></g></g></g></g><g><g><g><g /><g style="stroke: #ff7100;stroke-width: 0.6;" transform="matrix(-0.9404123782004833, -0.340036114151587, 0.340036114151587, -0.9404123782004833, 5.5, -2.25)"><polyline points="0.0,0.0 2.9408640976122986,0.0" style="vector-effect: non-scaling-stroke;" /></g></g><g><g /><g transform="matrix(1.0, 0.0, 0.0, 1.0, 6.0, -2.25)"><g style="stroke: #ff7100;stroke-width: 2.25;fill-opacity: 0;" transform="matrix(1.0, 0.0, 0.0, 1.0, 0.0, 0.0)"><rect height="0.95" style="vector-effect: non-scaling-stroke;" width="0.95" x="-0.475" y="-0.475" /></g></g></g></g><g><g /><g transform="matrix(1.0, 0.0, 0.0, 1.0, 2.734375, -3.25)"><g style="fill: #ff7100;stroke: black;stroke-width: 0.6;" transform="matrix(1.0, 0.0, 0.0, 1.0, 0.0, 0.0)"><circle cx="0.0" cy="0.0" r="0.1" style="vector-effect: non-scaling-stroke" /></g></g></g></g></g></g></g><g><g><g><g /><g /></g><g><g /><g><g><g><g /><g style="stroke: #ffe300;stroke-width: 0.6;" transform="matrix(-1.0, 0.0, 0.0, -1.0, 2.5, -1.25)"><polyline points="0.0,0.0 2.659375,0.0" style="vector-effect: non-scaling-stroke;" /></g></g><g><g /><g transform="matrix(1.0, 0.0, 0.0, 1.0, 3.0, -1.25)"><g style="stroke: #ffe300;stroke-width: 2.25;fill-opacity: 0;" transform="matrix(1.0, 0.0, 0.0, 1.0, 0.0, 0.0)"><rect height="0.95" style="vector-effect: non-scaling-stroke;" width="0.95" x="-0.475" y="-0.475" /></g></g></g></g><g><g /><g transform="matrix(1.0, 0.0, 0.0, 1.0, -0.159375, -1.25)"><g style="fill: #ffe300;stroke: black;stroke-width: 0.6;" transform="matrix(1.0, 0.0, 0.0, 1.0, 0.0, 0.0)"><circle cx="0.0" cy="0.0" r="0.1" style="vector-effect: non-scaling-stroke" /></g></g></g></g></g></g><g><g><g><g /><g><g><g><g /><g style="stroke: #ffe300;stroke-width: 0.6;" transform="matrix(-0.799210428661254, -0.6010513212023534, 0.6010513212023534, -0.799210428661254, 5.5, -1.25)"><polyline points="0.0,0.0 3.327502876125729,0.0" style="vector-effect: non-scaling-stroke;" /></g></g><g><g /><g transform="matrix(1.0, 0.0, 0.0, 1.0, 6.0, -1.25)"><g style="stroke: #ffe300;stroke-width: 2.25;fill-opacity: 0;" transform="matrix(1.0, 0.0, 0.0, 1.0, 0.0, 0.0)"><rect height="0.95" style="vector-effect: non-scaling-stroke;" width="0.95" x="-0.475" y="-0.475" /></g></g></g></g><g><g /><g transform="matrix(1.0, 0.0, 0.0, 1.0, 2.840625, -3.25)"><g style="fill: #ffe300;stroke: black;stroke-width: 0.6;" transform="matrix(1.0, 0.0, 0.0, 1.0, 0.0, 0.0)"><circle cx="0.0" cy="0.0" r="0.1" style="vector-effect: non-scaling-stroke" /></g></g></g></g></g><g><g><g><g /><g style="stroke: #ffe300;stroke-width: 0.6;" transform="matrix(-0.9360123886605972, -0.35196705566555947, 0.35196705566555947, -0.9360123886605972, 5.5, -1.25)"><polyline points="0.0,0.0 2.841175001759835,0.0" style="vector-effect: non-scaling-stroke;" /></g></g><g><g /><g transform="matrix(1.0, 0.0, 0.0, 1.0, 6.0, -1.25)"><g style="stroke: #ffe300;stroke-width: 2.25;fill-opacity: 0;" transform="matrix(1.0, 0.0, 0.0, 1.0, 0.0, 0.0)"><rect height="0.95" style="vector-effect: non-scaling-stroke;" width="0.95" x="-0.475" y="-0.475" /></g></g></g></g><g><g /><g transform="matrix(1.0, 0.0, 0.0, 1.0, 2.840625, -2.25)"><g style="fill: #ffe300;stroke: black;stroke-width: 0.6;" transform="matrix(1.0, 0.0, 0.0, 1.0, 0.0, 0.0)"><circle cx="0.0" cy="0.0" r="0.1" style="vector-effect: non-scaling-stroke" /></g></g></g></g></g><g><g><g><g /><g style="stroke: #ffe300;stroke-width: 0.6;" transform="matrix(-1.0, 0.0, 0.0, -1.0, 5.5, -1.25)"><polyline points="0.0,0.0 2.659375,0.0" style="vector-effect: non-scaling-stroke;" /></g></g><g><g /><g transform="matrix(1.0, 0.0, 0.0, 1.0, 6.0, -1.25)"><g style="stroke: #ffe300;stroke-width: 2.25;fill-opacity: 0;" transform="matrix(1.0, 0.0, 0.0, 1.0, 0.0, 0.0)"><rect height="0.95" style="vector-effect: non-scaling-stroke;" width="0.95" x="-0.475" y="-0.475" /></g></g></g></g><g><g /><g transform="matrix(1.0, 0.0, 0.0, 1.0, 2.840625, -1.25)"><g style="fill: #ffe300;stroke: black;stroke-width: 0.6;" transform="matrix(1.0, 0.0, 0.0, 1.0, 0.0, 0.0)"><circle cx="0.0" cy="0.0" r="0.1" style="vector-effect: non-scaling-stroke" /></g></g></g></g></g></g></g><g><g><g><g /><g /></g><g><g /><g><g><g><g /><g style="stroke: #aaff00;stroke-width: 0.6;" transform="matrix(-1.0, 0.0, 0.0, -1.0, 2.5, -0.25)"><polyline points="0.0,0.0 2.553125,0.0" style="vector-effect: non-scaling-stroke;" /></g></g><g><g /><g transform="matrix(1.0, 0.0, 0.0, 1.0, 3.0, -0.25)"><g style="stroke: #aaff00;stroke-width: 2.25;fill-opacity: 0;" transform="matrix(1.0, 0.0, 0.0, 1.0, 0.0, 0.0)"><rect height="0.95" style="vector-effect: non-scaling-stroke;" width="0.95" x="-0.475" y="-0.475" /></g></g></g></g><g><g /><g transform="matrix(1.0, 0.0, 0.0, 1.0, -0.053125, -0.25)"><g style="fill: #aaff00;stroke: black;stroke-width: 0.6;" transform="matrix(1.0, 0.0, 0.0, 1.0, 0.0, 0.0)"><circle cx="0.0" cy="0.0" r="0.1" style="vector-effect: non-scaling-stroke" /></g></g></g></g></g></g><g><g><g><g /><g><g><g><g /><g style="stroke: #aaff00;stroke-width: 0.6;" transform="matrix(-0.7872202574866198, -0.6166719275292982, 0.6166719275292982, -0.7872202574866198, 5.5, -0.25)"><polyline points="0.0,0.0 3.2432155749541227,0.0" style="vector-effect: non-scaling-stroke;" /></g></g><g><g /><g transform="matrix(1.0, 0.0, 0.0, 1.0, 6.0, -0.25)"><g style="stroke: #aaff00;stroke-width: 2.25;fill-opacity: 0;" transform="matrix(1.0, 0.0, 0.0, 1.0, 0.0, 0.0)"><rect height="0.95" style="vector-effect: non-scaling-stroke;" width="0.95" x="-0.475" y="-0.475" /></g></g></g></g><g><g /><g transform="matrix(1.0, 0.0, 0.0, 1.0, 2.946875, -2.25)"><g style="fill: #aaff00;stroke: black;stroke-width: 0.6;" transform="matrix(1.0, 0.0, 0.0, 1.0, 0.0, 0.0)"><circle cx="0.0" cy="0.0" r="0.1" style="vector-effect: non-scaling-stroke" /></g></g></g></g></g><g><g><g><g /><g style="stroke: #aaff00;stroke-width: 0.6;" transform="matrix(-0.9311250256511632, -0.36470013244598737, 0.36470013244598737, -0.9311250256511632, 5.5, -0.25)"><polyline points="0.0,0.0 2.7419787135616134,0.0" style="vector-effect: non-scaling-stroke;" /></g></g><g><g /><g transform="matrix(1.0, 0.0, 0.0, 1.0, 6.0, -0.25)"><g style="stroke: #aaff00;stroke-width: 2.25;fill-opacity: 0;" transform="matrix(1.0, 0.0, 0.0, 1.0, 0.0, 0.0)"><rect height="0.95" style="vector-effect: non-scaling-stroke;" width="0.95" x="-0.475" y="-0.475" /></g></g></g></g><g><g /><g transform="matrix(1.0, 0.0, 0.0, 1.0, 2.946875, -1.25)"><g style="fill: #aaff00;stroke: black;stroke-width: 0.6;" transform="matrix(1.0, 0.0, 0.0, 1.0, 0.0, 0.0)"><circle cx="0.0" cy="0.0" r="0.1" style="vector-effect: non-scaling-stroke" /></g></g></g></g></g><g><g><g><g /><g style="stroke: #aaff00;stroke-width: 0.6;" transform="matrix(-1.0, 0.0, 0.0, -1.0, 5.5, -0.25)"><polyline points="0.0,0.0 2.553125,0.0" style="vector-effect: non-scaling-stroke;" /></g></g><g><g /><g transform="matrix(1.0, 0.0, 0.0, 1.0, 6.0, -0.25)"><g style="stroke: #aaff00;stroke-width: 2.25;fill-opacity: 0;" transform="matrix(1.0, 0.0, 0.0, 1.0, 0.0, 0.0)"><rect height="0.95" style="vector-effect: non-scaling-stroke;" width="0.95" x="-0.475" y="-0.475" /></g></g></g></g><g><g /><g transform="matrix(1.0, 0.0, 0.0, 1.0, 2.946875, -0.25)"><g style="fill: #aaff00;stroke: black;stroke-width: 0.6;" transform="matrix(1.0, 0.0, 0.0, 1.0, 0.0, 0.0)"><circle cx="0.0" cy="0.0" r="0.1" style="vector-effect: non-scaling-stroke" /></g></g></g></g></g></g></g><g><g><g><g /><g /></g><g><g /><g><g><g><g /><g style="stroke: #39ff00;stroke-width: 0.6;" transform="matrix(-1.0, 0.0, 0.0, -1.0, 2.5, 0.75)"><polyline points="0.0,0.0 2.446875,0.0" style="vector-effect: non-scaling-stroke;" /></g></g><g><g /><g transform="matrix(1.0, 0.0, 0.0, 1.0, 3.0, 0.75)"><g style="stroke: #39ff00;stroke-width: 2.25;fill-opacity: 0;" transform="matrix(1.0, 0.0, 0.0, 1.0, 0.0, 0.0)"><rect height="0.95" style="vector-effect: non-scaling-stroke;" width="0.95" x="-0.475" y="-0.475" /></g></g></g></g><g><g /><g transform="matrix(1.0, 0.0, 0.0, 1.0, 0.053125, 0.75)"><g style="fill: #39ff00;stroke: black;stroke-width: 0.6;" transform="matrix(1.0, 0.0, 0.0, 1.0, 0.0, 0.0)"><circle cx="0.0" cy="0.0" r="0.1" style="vector-effect: non-scaling-stroke" /></g></g></g></g></g></g><g><g><g><g /><g><g><g><g /><g style="stroke: #39ff00;stroke-width: 0.6;" transform="matrix(-0.7742656095581771, -0.6328607792046401, 0.6328607792046401, -0.7742656095581771, 5.5, 0.75)"><polyline points="0.0,0.0 3.160252721796945,0.0" style="vector-effect: non-scaling-stroke;" /></g></g><g><g /><g transform="matrix(1.0, 0.0, 0.0, 1.0, 6.0, 0.75)"><g style="stroke: #39ff00;stroke-width: 2.25;fill-opacity: 0;" transform="matrix(1.0, 0.0, 0.0, 1.0, 0.0, 0.0)"><rect height="0.95" style="vector-effect: non-scaling-stroke;" width="0.95" x="-0.475" y="-0.475" /></g></g></g></g><g><g /><g transform="matrix(1.0, 0.0, 0.0, 1.0, 3.053125, -1.25)"><g style="fill: #39ff00;stroke: black;stroke-width: 0.6;" transform="matrix(1.0, 0.0, 0.0, 1.0, 0.0, 0.0)"><circle cx="0.0" cy="0.0" r="0.1" style="vector-effect: non-scaling-stroke" /></g></g></g></g></g><g><g><g><g /><g style="stroke: #39ff00;stroke-width: 0.6;" transform="matrix(-0.9256787229390862, -0.37831058919605, 0.37831058919605, -0.9256787229390862, 5.5, 0.75)"><polyline points="0.0,0.0 2.6433307143876266,0.0" style="vector-effect: non-scaling-stroke;" /></g></g><g><g /><g transform="matrix(1.0, 0.0, 0.0, 1.0, 6.0, 0.75)"><g style="stroke: #39ff00;stroke-width: 2.25;fill-opacity: 0;" transform="matrix(1.0, 0.0, 0.0, 1.0, 0.0, 0.0)"><rect height="0.95" style="vector-effect: non-scaling-stroke;" width="0.95" x="-0.475" y="-0.475" /></g></g></g></g><g><g /><g transform="matrix(1.0, 0.0, 0.0, 1.0, 3.053125, -0.25)"><g style="fill: #39ff00;stroke: black;stroke-width: 0.6;" transform="matrix(1.0, 0.0, 0.0, 1.0, 0.0, 0.0)"><circle cx="0.0" cy="0.0" r="0.1" style="vector-effect: non-scaling-stroke" /></g></g></g></g></g><g><g><g><g /><g style="stroke: #39ff00;stroke-width: 0.6;" transform="matrix(-1.0, 0.0, 0.0, -1.0, 5.5, 0.75)"><polyline points="0.0,0.0 2.446875,0.0" style="vector-effect: non-scaling-stroke;" /></g></g><g><g /><g transform="matrix(1.0, 0.0, 0.0, 1.0, 6.0, 0.75)"><g style="stroke: #39ff00;stroke-width: 2.25;fill-opacity: 0;" transform="matrix(1.0, 0.0, 0.0, 1.0, 0.0, 0.0)"><rect height="0.95" style="vector-effect: non-scaling-stroke;" width="0.95" x="-0.475" y="-0.475" /></g></g></g></g><g><g /><g transform="matrix(1.0, 0.0, 0.0, 1.0, 3.053125, 0.75)"><g style="fill: #39ff00;stroke: black;stroke-width: 0.6;" transform="matrix(1.0, 0.0, 0.0, 1.0, 0.0, 0.0)"><circle cx="0.0" cy="0.0" r="0.1" style="vector-effect: non-scaling-stroke" /></g></g></g></g></g></g></g><g><g><g><g /><g /></g><g><g /><g><g><g><g /><g style="stroke: #00ff39;stroke-width: 0.6;" transform="matrix(-1.0, 0.0, 0.0, -1.0, 2.5, 1.75)"><polyline points="0.0,0.0 2.340625,0.0" style="vector-effect: non-scaling-stroke;" /></g></g><g><g /><g transform="matrix(1.0, 0.0, 0.0, 1.0, 3.0, 1.75)"><g style="stroke: #00ff39;stroke-width: 2.25;fill-opacity: 0;" transform="matrix(1.0, 0.0, 0.0, 1.0, 0.0, 0.0)"><rect height="0.95" style="vector-effect: non-scaling-stroke;" width="0.95" x="-0.475" y="-0.475" /></g></g></g></g><g><g /><g transform="matrix(1.0, 0.0, 0.0, 1.0, 0.159375, 1.75)"><g style="fill: #00ff39;stroke: black;stroke-width: 0.6;" transform="matrix(1.0, 0.0, 0.0, 1.0, 0.0, 0.0)"><circle cx="0.0" cy="0.0" r="0.1" style="vector-effect: non-scaling-stroke" /></g></g></g></g></g></g><g><g><g><g /><g><g><g><g /><g style="stroke: #00ff39;stroke-width: 0.6;" transform="matrix(-0.7602587906849181, -0.6496203284891152, 0.6496203284891152, -0.7602587906849181, 5.5, 1.75)"><polyline points="0.0,0.0 3.0787213889251173,0.0" style="vector-effect: non-scaling-stroke;" /></g></g><g><g /><g transform="matrix(1.0, 0.0, 0.0, 1.0, 6.0, 1.75)"><g style="stroke: #00ff39;stroke-width: 2.25;fill-opacity: 0;" transform="matrix(1.0, 0.0, 0.0, 1.0, 0.0, 0.0)"><rect height="0.95" style="vector-effect: non-scaling-stroke;" width="0.95" x="-0.475" y="-0.475" /></g></g></g></g><g><g /><g transform="matrix(1.0, 0.0, 0.0, 1.0, 3.159375, -0.25)"><g style="fill: #00ff39;stroke: black;stroke-width: 0.6;" transform="matrix(1.0, 0.0, 0.0, 1.0, 0.0, 0.0)"><circle cx="0.0" cy="0.0" r="0.1" style="vector-effect: non-scaling-stroke" /></g></g></g></g></g><g><g><g><g /><g style="stroke: #00ff39;stroke-width: 0.6;" transform="matrix(-0.9195889769774344, -0.39288180591826294, 0.39288180591826294, -0.9195889769774344, 5.5, 1.75)"><polyline points="0.0,0.0 2.5452947551560707,0.0" style="vector-effect: non-scaling-stroke;" /></g></g><g><g /><g transform="matrix(1.0, 0.0, 0.0, 1.0, 6.0, 1.75)"><g style="stroke: #00ff39;stroke-width: 2.25;fill-opacity: 0;" transform="matrix(1.0, 0.0, 0.0, 1.0, 0.0, 0.0)"><rect height="0.95" style="vector-effect: non-scaling-stroke;" width="0.95" x="-0.475" y="-0.475" /></g></g></g></g><g><g /><g transform="matrix(1.0, 0.0, 0.0, 1.0, 3.159375, 0.75)"><g style="fill: #00ff39;stroke: black;stroke-width: 0.6;" transform="matrix(1.0, 0.0, 0.0, 1.0, 0.0, 0.0)"><circle cx="0.0" cy="0.0" r="0.1" style="vector-effect: non-scaling-stroke" /></g></g></g></g></g><g><g><g><g /><g style="stroke: #00ff39;stroke-width: 0.6;" transform="matrix(-1.0, 0.0, 0.0, -1.0, 5.5, 1.75)"><polyline points="0.0,0.0 2.340625,0.0" style="vector-effect: non-scaling-stroke;" /></g></g><g><g /><g transform="matrix(1.0, 0.0, 0.0, 1.0, 6.0, 1.75)"><g style="stroke: #00ff39;stroke-width: 2.25;fill-opacity: 0;" transform="matrix(1.0, 0.0, 0.0, 1.0, 0.0, 0.0)"><rect height="0.95" style="vector-effect: non-scaling-stroke;" width="0.95" x="-0.475" y="-0.475" /></g></g></g></g><g><g /><g transform="matrix(1.0, 0.0, 0.0, 1.0, 3.159375, 1.75)"><g style="fill: #00ff39;stroke: black;stroke-width: 0.6;" transform="matrix(1.0, 0.0, 0.0, 1.0, 0.0, 0.0)"><circle cx="0.0" cy="0.0" r="0.1" style="vector-effect: non-scaling-stroke" /></g></g></g></g></g></g></g><g><g><g><g /><g /></g><g><g /><g><g><g><g /><g style="stroke: #00ffaa;stroke-width: 0.6;" transform="matrix(-1.0, 0.0, 0.0, -1.0, 2.5, 2.75)"><polyline points="0.0,0.0 2.234375,0.0" style="vector-effect: non-scaling-stroke;" /></g></g><g><g /><g transform="matrix(1.0, 0.0, 0.0, 1.0, 3.0, 2.75)"><g style="stroke: #00ffaa;stroke-width: 2.25;fill-opacity: 0;" transform="matrix(1.0, 0.0, 0.0, 1.0, 0.0, 0.0)"><rect height="0.95" style="vector-effect: non-scaling-stroke;" width="0.95" x="-0.475" y="-0.475" /></g></g></g></g><g><g /><g transform="matrix(1.0, 0.0, 0.0, 1.0, 0.265625, 2.75)"><g style="fill: #00ffaa;stroke: black;stroke-width: 0.6;" transform="matrix(1.0, 0.0, 0.0, 1.0, 0.0, 0.0)"><circle cx="0.0" cy="0.0" r="0.1" style="vector-effect: non-scaling-stroke" /></g></g></g></g></g></g><g><g><g><g /><g><g><g><g /><g style="stroke: #00ffaa;stroke-width: 0.6;" transform="matrix(-0.7451050227016036, -0.6669471531874491, 0.6669471531874491, -0.7451050227016036, 5.5, 2.75)"><polyline points="0.0,0.0 2.998738341473794,0.0" style="vector-effect: non-scaling-stroke;" /></g></g><g><g /><g transform="matrix(1.0, 0.0, 0.0, 1.0, 6.0, 2.75)"><g style="stroke: #00ffaa;stroke-width: 2.25;fill-opacity: 0;" transform="matrix(1.0, 0.0, 0.0, 1.0, 0.0, 0.0)"><rect height="0.95" style="vector-effect: non-scaling-stroke;" width="0.95" x="-0.475" y="-0.475" /></g></g></g></g><g><g /><g transform="matrix(1.0, 0.0, 0.0, 1.0, 3.265625, 0.75)"><g style="fill: #00ffaa;stroke: black;stroke-width: 0.6;" transform="matrix(1.0, 0.0, 0.0, 1.0, 0.0, 0.0)"><circle cx="0.0" cy="0.0" r="0.1" style="vector-effect: non-scaling-stroke" /></g></g></g></g></g><g><g><g><g /><g style="stroke: #00ffaa;stroke-width: 0.6;" transform="matrix(-0.9127556275411655, -0.4085060151233188, 0.4085060151233188, -0.9127556275411655, 5.5, 2.75)"><polyline points="0.0,0.0 2.4479443704106103,0.0" style="vector-effect: non-scaling-stroke;" /></g></g><g><g /><g transform="matrix(1.0, 0.0, 0.0, 1.0, 6.0, 2.75)"><g style="stroke: #00ffaa;stroke-width: 2.25;fill-opacity: 0;" transform="matrix(1.0, 0.0, 0.0, 1.0, 0.0, 0.0)"><rect height="0.95" style="vector-effect: non-scaling-stroke;" width="0.95" x="-0.475" y="-0.475" /></g></g></g></g><g><g /><g transform="matrix(1.0, 0.0, 0.0, 1.0, 3.265625, 1.75)"><g style="fill: #00ffaa;stroke: black;stroke-width: 0.6;" transform="matrix(1.0, 0.0, 0.0, 1.0, 0.0, 0.0)"><circle cx="0.0" cy="0.0" r="0.1" style="vector-effect: non-scaling-stroke" /></g></g></g></g></g><g><g><g><g /><g style="stroke: #00ffaa;stroke-width: 0.6;" transform="matrix(-1.0, 0.0, 0.0, -1.0, 5.5, 2.75)"><polyline points="0.0,0.0 2.234375,0.0" style="vector-effect: non-scaling-stroke;" /></g></g><g><g /><g transform="matrix(1.0, 0.0, 0.0, 1.0, 6.0, 2.75)"><g style="stroke: #00ffaa;stroke-width: 2.25;fill-opacity: 0;" transform="matrix(1.0, 0.0, 0.0, 1.0, 0.0, 0.0)"><rect height="0.95" style="vector-effect: non-scaling-stroke;" width="0.95" x="-0.475" y="-0.475" /></g></g></g></g><g><g /><g transform="matrix(1.0, 0.0, 0.0, 1.0, 3.265625, 2.75)"><g style="fill: #00ffaa;stroke: black;stroke-width: 0.6;" transform="matrix(1.0, 0.0, 0.0, 1.0, 0.0, 0.0)"><circle cx="0.0" cy="0.0" r="0.1" style="vector-effect: non-scaling-stroke" /></g></g></g></g></g></g></g><g><g><g><g /><g /></g><g><g /><g><g><g><g /><g style="stroke: #00e3ff;stroke-width: 0.6;" transform="matrix(-1.0, 0.0, 0.0, -1.0, 2.5, 3.75)"><polyline points="0.0,0.0 2.128125,0.0" style="vector-effect: non-scaling-stroke;" /></g></g><g><g /><g transform="matrix(1.0, 0.0, 0.0, 1.0, 3.0, 3.75)"><g style="stroke: #00e3ff;stroke-width: 2.25;fill-opacity: 0;" transform="matrix(1.0, 0.0, 0.0, 1.0, 0.0, 0.0)"><rect height="0.95" style="vector-effect: non-scaling-stroke;" width="0.95" x="-0.475" y="-0.475" /></g></g></g></g><g><g /><g transform="matrix(1.0, 0.0, 0.0, 1.0, 0.371875, 3.75)"><g style="fill: #00e3ff;stroke: black;stroke-width: 0.6;" transform="matrix(1.0, 0.0, 0.0, 1.0, 0.0, 0.0)"><circle cx="0.0" cy="0.0" r="0.1" style="vector-effect: non-scaling-stroke" /></g></g></g></g></g></g><g><g><g><g /><g><g><g><g /><g style="stroke: #00e3ff;stroke-width: 0.6;" transform="matrix(-0.7287024247365695, -0.6848304725864967, 0.6848304725864967, -0.7287024247365695, 5.5, 3.75)"><polyline points="0.0,0.0 2.9204307928155053,0.0" style="vector-effect: non-scaling-stroke;" /></g></g><g><g /><g transform="matrix(1.0, 0.0, 0.0, 1.0, 6.0, 3.75)"><g style="stroke: #00e3ff;stroke-width: 2.25;fill-opacity: 0;" transform="matrix(1.0, 0.0, 0.0, 1.0, 0.0, 0.0)"><rect height="0.95" style="vector-effect: non-scaling-stroke;" width="0.95" x="-0.475" y="-0.475" /></g></g></g></g><g><g /><g transform="matrix(1.0, 0.0, 0.0, 1.0, 3.371875, 1.75)"><g style="fill: #00e3ff;stroke: black;stroke-width: 0.6;" transform="matrix(1.0, 0.0, 0.0, 1.0, 0.0, 0.0)"><circle cx="0.0" cy="0.0" r="0.1" style="vector-effect: non-scaling-stroke" /></g></g></g></g></g><g><g><g><g /><g style="stroke: #00e3ff;stroke-width: 0.6;" transform="matrix(-0.9050595119648016, -0.4252849395429318, 0.4252849395429318, -0.9050595119648016, 5.5, 3.75)"><polyline points="0.0,0.0 2.3513647134430253,0.0" style="vector-effect: non-scaling-stroke;" /></g></g><g><g /><g transform="matrix(1.0, 0.0, 0.0, 1.0, 6.0, 3.75)"><g style="stroke: #00e3ff;stroke-width: 2.25;fill-opacity: 0;" transform="matrix(1.0, 0.0, 0.0, 1.0, 0.0, 0.0)"><rect height="0.95" style="vector-effect: non-scaling-stroke;" width="0.95" x="-0.475" y="-0.475" /></g></g></g></g><g><g /><g transform="matrix(1.0, 0.0, 0.0, 1.0, 3.371875, 2.75)"><g style="fill: #00e3ff;stroke: black;stroke-width: 0.6;" transform="matrix(1.0, 0.0, 0.0, 1.0, 0.0, 0.0)"><circle cx="0.0" cy="0.0" r="0.1" style="vector-effect: non-scaling-stroke" /></g></g></g></g></g><g><g><g><g /><g style="stroke: #00e3ff;stroke-width: 0.6;" transform="matrix(-1.0, 0.0, 0.0, -1.0, 5.5, 3.75)"><polyline points="0.0,0.0 2.128125,0.0" style="vector-effect: non-scaling-stroke;" /></g></g><g><g /><g transform="matrix(1.0, 0.0, 0.0, 1.0, 6.0, 3.75)"><g style="stroke: #00e3ff;stroke-width: 2.25;fill-opacity: 0;" transform="matrix(1.0, 0.0, 0.0, 1.0, 0.0, 0.0)"><rect height="0.95" style="vector-effect: non-scaling-stroke;" width="0.95" x="-0.475" y="-0.475" /></g></g></g></g><g><g /><g transform="matrix(1.0, 0.0, 0.0, 1.0, 3.371875, 3.75)"><g style="fill: #00e3ff;stroke: black;stroke-width: 0.6;" transform="matrix(1.0, 0.0, 0.0, 1.0, 0.0, 0.0)"><circle cx="0.0" cy="0.0" r="0.1" style="vector-effect: non-scaling-stroke" /></g></g></g></g></g></g></g></g><g transform="matrix(1.0, 0.0, 0.0, 1.0, -0.0, -5.0001)"><g><g><g style="stroke: black;stroke-width: 1.5;" transform="matrix(1.0, 0.0, 0.0, 1.0, 0.0, 0.0)"><g /></g><g transform="matrix(1.0, 0.0, 0.0, 1.0, 0.0, 0.25)"><g style="fill: #000000;stroke: black;stroke-width: 0.0;" transform="matrix(1.0, 0.0, 0.0, 1.0, 0.0, 0.0)"><text style="text-align:center; text-anchor:middle; dominant-baseline:middle;font-family:sans-serif; font-weight: bold;font-size:0.5px;vector-effect: non-scaling-stroke;" transform="translate(-5e-05, 0)">Block 0 0</text></g></g></g><g transform="matrix(1.0, 0.0, 0.0, 1.0, 0.0, 0.5001)"><g style="stroke: black;stroke-width: 1.5;" transform="matrix(1.0, 0.0, 0.0, 1.0, 0.0, 0.0)"><g /></g></g></g></g></g></g></g></g><g transform="matrix(1.0, 0.0, 0.0, 1.0, 8.0, 0.0)"><g style="stroke: black;stroke-width: 1.5;" transform="matrix(1.0, 0.0, 0.0, 1.0, 0.0, 0.0)"><g /></g></g></g></g><g /></g><g style="stroke: #808080;stroke-width: 1.5;fill-opacity: 0.0;" transform="matrix(1.0, 0.0, 0.0, 1.0, 0.0, 0.0)"><rect height="11.40012" rx="0.5" ry="0.5" style="vector-effect: non-scaling-stroke;" width="10.799999999999999" x="-5.3999999999999995" y="-5.70006" /></g></g><g /></g></g></g></g></g></g><g /></g></g></g></g><g /></g></g></g></g></svg>